<?xml version="1.0" encoding="UTF-8" standalone="no"?>
<svg
   version="1.2"
   width="83.769905mm"
   height="35.153355mm"
   viewBox="0 0 47.669703 20.0042"
   id="svg276"
   xmlns:xlink="http://www.w3.org/1999/xlink"
   xmlns="http://www.w3.org/2000/svg"
   xmlns:svg="http://www.w3.org/2000/svg">
  <defs
     id="defs280" />
  <style
     text="style/css"
     id="style2"><![CDATA[
tspan { white-space: pre; }
]]></style>
  <!-- Page: 1/1 -->
  <line
     stroke-linejoin="round"
     stroke-linecap="round"
     stroke-width="0.1"
     stroke="currentColor"
     x1="0.050000001"
     y1="7.0499997"
     x2="47.619701"
     y2="7.0499997"
     id="line4" />
  <line
     stroke-linejoin="round"
     stroke-linecap="round"
     stroke-width="0.1"
     stroke="currentColor"
     x1="0.050000001"
     y1="6.0499997"
     x2="47.619701"
     y2="6.0499997"
     id="line6" />
  <line
     stroke-linejoin="round"
     stroke-linecap="round"
     stroke-width="0.1"
     stroke="currentColor"
     x1="0.050000001"
     y1="5.0499997"
     x2="47.619701"
     y2="5.0499997"
     id="line8" />
  <line
     stroke-linejoin="round"
     stroke-linecap="round"
     stroke-width="0.1"
     stroke="currentColor"
     x1="0.050000001"
     y1="4.0499997"
     x2="47.619701"
     y2="4.0499997"
     id="line10" />
  <line
     stroke-linejoin="round"
     stroke-linecap="round"
     stroke-width="0.1"
     stroke="currentColor"
     x1="0.050000001"
     y1="3.0499997"
     x2="47.619701"
     y2="3.0499997"
     id="line12" />
  <rect
     x="44.3414"
     y="7.9499998"
     width="1.9563"
     height="0.2"
     ry="0.1"
     fill="currentColor"
     id="rect14" />
  <rect
     x="44.3414"
     y="8.9499998"
     width="1.9563"
     height="0.2"
     ry="0.1"
     fill="currentColor"
     id="rect16" />
  <rect
     x="44.3414"
     y="9.9499998"
     width="1.9563"
     height="0.2"
     ry="0.1"
     fill="currentColor"
     id="rect18" />
  <rect
     x="44.3414"
     y="10.95"
     width="1.9563"
     height="0.2"
     ry="0.1"
     fill="currentColor"
     id="rect20" />
  <rect
     x="44.3414"
     y="11.95"
     width="1.9563"
     height="0.2"
     ry="0.1"
     fill="currentColor"
     id="rect22" />
  <rect
     x="40.249199"
     y="7.9499998"
     width="1.9563"
     height="0.2"
     ry="0.1"
     fill="currentColor"
     id="rect24" />
  <rect
     x="40.249199"
     y="8.9499998"
     width="1.9563"
     height="0.2"
     ry="0.1"
     fill="currentColor"
     id="rect26" />
  <rect
     x="40.249199"
     y="9.9499998"
     width="1.9563"
     height="0.2"
     ry="0.1"
     fill="currentColor"
     id="rect28" />
  <rect
     x="40.249199"
     y="10.95"
     width="1.9563"
     height="0.2"
     ry="0.1"
     fill="currentColor"
     id="rect30" />
  <rect
     x="40.249199"
     y="11.95"
     width="1.9563"
     height="0.2"
     ry="0.1"
     fill="currentColor"
     id="rect32" />
  <rect
     x="40.249199"
     y="12.95"
     width="1.9563"
     height="0.2"
     ry="0.1"
     fill="currentColor"
     id="rect34" />
  <rect
     x="40.249199"
     y="13.95"
     width="1.9563"
     height="0.2"
     ry="0.1"
     fill="currentColor"
     id="rect36" />
  <rect
     x="37.246899"
     y="7.9499998"
     width="1.9563"
     height="0.2"
     ry="0.1"
     fill="currentColor"
     id="rect38" />
  <rect
     x="37.246899"
     y="8.9499998"
     width="1.9563"
     height="0.2"
     ry="0.1"
     fill="currentColor"
     id="rect40" />
  <rect
     x="37.246899"
     y="9.9499998"
     width="1.9563"
     height="0.2"
     ry="0.1"
     fill="currentColor"
     id="rect42" />
  <rect
     x="37.246899"
     y="10.95"
     width="1.9563"
     height="0.2"
     ry="0.1"
     fill="currentColor"
     id="rect44" />
  <rect
     x="37.246899"
     y="11.95"
     width="1.9563"
     height="0.2"
     ry="0.1"
     fill="currentColor"
     id="rect46" />
  <rect
     x="37.246899"
     y="12.95"
     width="1.9563"
     height="0.2"
     ry="0.1"
     fill="currentColor"
     id="rect48" />
  <rect
     x="37.246899"
     y="13.95"
     width="1.9563"
     height="0.2"
     ry="0.1"
     fill="currentColor"
     id="rect50" />
  <rect
     x="37.246899"
     y="14.95"
     width="1.9563"
     height="0.2"
     ry="0.1"
     fill="currentColor"
     id="rect52" />
  <rect
     x="34.244598"
     y="7.9499998"
     width="1.9563"
     height="0.2"
     ry="0.1"
     fill="currentColor"
     id="rect54" />
  <rect
     x="34.244598"
     y="8.9499998"
     width="1.9563"
     height="0.2"
     ry="0.1"
     fill="currentColor"
     id="rect56" />
  <rect
     x="34.244598"
     y="9.9499998"
     width="1.9563"
     height="0.2"
     ry="0.1"
     fill="currentColor"
     id="rect58" />
  <rect
     x="34.244598"
     y="10.95"
     width="1.9563"
     height="0.2"
     ry="0.1"
     fill="currentColor"
     id="rect60" />
  <rect
     x="34.244598"
     y="11.95"
     width="1.9563"
     height="0.2"
     ry="0.1"
     fill="currentColor"
     id="rect62" />
  <rect
     x="34.244598"
     y="12.95"
     width="1.9563"
     height="0.2"
     ry="0.1"
     fill="currentColor"
     id="rect64" />
  <rect
     x="34.244598"
     y="13.95"
     width="1.9563"
     height="0.2"
     ry="0.1"
     fill="currentColor"
     id="rect66" />
  <rect
     x="34.381001"
     y="14.95"
     width="1.8199"
     height="0.2"
     ry="0.1"
     fill="currentColor"
     id="rect68" />
  <rect
     x="31.0159"
     y="7.9499998"
     width="1.9563"
     height="0.2"
     ry="0.1"
     fill="currentColor"
     id="rect70" />
  <rect
     x="31.0159"
     y="8.9499998"
     width="1.9563"
     height="0.2"
     ry="0.1"
     fill="currentColor"
     id="rect72" />
  <rect
     x="31.167"
     y="9.9499998"
     width="1.8053"
     height="0.2"
     ry="0.1"
     fill="currentColor"
     id="rect74" />
  <rect
     x="27.661699"
     y="7.9499998"
     width="1.9563"
     height="0.2"
     ry="0.1"
     fill="currentColor"
     id="rect76" />
  <rect
     x="27.661699"
     y="8.9499998"
     width="1.9563"
     height="0.2"
     ry="0.1"
     fill="currentColor"
     id="rect78" />
  <rect
     x="27.661699"
     y="9.9499998"
     width="1.9563"
     height="0.2"
     ry="0.1"
     fill="currentColor"
     id="rect80" />
  <rect
     x="27.661699"
     y="10.95"
     width="1.9563"
     height="0.2"
     ry="0.1"
     fill="currentColor"
     id="rect82" />
  <rect
     x="24.4095"
     y="7.9499998"
     width="1.9563"
     height="0.2"
     ry="0.1"
     fill="currentColor"
     id="rect84" />
  <rect
     x="24.4095"
     y="8.9499998"
     width="1.9563"
     height="0.2"
     ry="0.1"
     fill="currentColor"
     id="rect86" />
  <rect
     x="24.4095"
     y="9.9499998"
     width="1.9563"
     height="0.2"
     ry="0.1"
     fill="currentColor"
     id="rect88" />
  <rect
     x="24.4095"
     y="10.95"
     width="1.9563"
     height="0.2"
     ry="0.1"
     fill="currentColor"
     id="rect90" />
  <rect
     x="24.4095"
     y="11.95"
     width="1.9563"
     height="0.2"
     ry="0.1"
     fill="currentColor"
     id="rect92" />
  <rect
     x="15.3037"
     y="7.9499998"
     width="1.8053"
     height="0.2"
     ry="0.1"
     fill="currentColor"
     id="rect94" />
  <rect
     x="5.4738998"
     y="7.9499998"
     width="1.9563"
     height="0.2"
     ry="0.1"
     fill="currentColor"
     id="rect96" />
  <rect
     x="43.5774"
     y="3.0499997"
     width="0.19"
     height="4"
     ry="0.0000"
     fill="currentColor"
     id="rect98" />
  <rect
     x="15.4787"
     y="8.7361002"
     width="0.13"
     height="2.2992001"
     ry="0.039999999"
     fill="currentColor"
     id="rect100" />
  <path
     d="m 14.4367,8.3859998 -0.004,0.264 v 0.044 c 0,0.088 0.004,0.176 0.016,0.264 0.18,-0.152 0.372,-0.32 0.372,-0.556 0,-0.132 -0.056,-0.268 -0.172,-0.268 -0.124,0 -0.208,0.12 -0.212,0.252 z m -0.168,0.716 -0.048,-2.38 c 0.032,-0.02 0.072,-0.032 0.108,-0.032 0.036,0 0.076,0.012 0.108,0.032 l -0.028,1.38 c 0.1,-0.084 0.232,-0.136 0.364,-0.136 0.208,0 0.356,0.192 0.356,0.408 0,0.32 -0.344,0.468 -0.588,0.676 -0.06,0.052 -0.096,0.152 -0.18,0.152 -0.052,0 -0.092,-0.044 -0.092,-0.1 z"
     fill="currentColor"
     id="path102"
     style="stroke-width:0.004" />
  <a
     style="color:inherit"
     xlink:href="textedit:///Users/philippeperret/Sites/MusicScoreWriter/score_building/code/visu-not-trimed.ly:28:65:73"
     id="a106"
     transform="translate(-5.6906,-3.8452002)">
    <path
       transform="matrix(0.004,0,0,-0.004,24.4215,10.8952)"
       d="m 218,136 c 55,0 108,-28 108,-89 0,-71 -55,-121 -102,-149 -35,-21 -75,-34 -116,-34 -55,0 -108,28 -108,89 0,71 55,121 102,149 35,21 75,34 116,34 z"
       fill="currentColor"
       id="path104" />
  </a>
  <rect
     x="18.7309"
     y="7.2360997"
     width="0.13"
     height="3.0639"
     ry="0.039999999"
     fill="currentColor"
     id="rect108" />
  <a
     style="color:inherit"
     xlink:href="textedit:///Users/philippeperret/Sites/MusicScoreWriter/score_building/code/visu-not-trimed.ly:28:67:75"
     id="a112"
     transform="translate(-5.6906,-3.8452002)">
    <path
       transform="matrix(0.004,0,0,-0.004,27.6738,9.8952)"
       d="m 218,136 c 55,0 108,-28 108,-89 0,-71 -55,-121 -102,-149 -35,-21 -75,-34 -116,-34 -55,0 -108,28 -108,89 0,71 55,121 102,149 35,21 75,34 116,34 z"
       fill="currentColor"
       id="path110" />
  </a>
  <rect
     x="21.9832"
     y="6.2360997"
     width="0.13"
     height="3.3285999"
     ry="0.039999999"
     fill="currentColor"
     id="rect114" />
  <a
     style="color:inherit"
     xlink:href="textedit:///Users/philippeperret/Sites/MusicScoreWriter/score_building/code/visu-not-trimed.ly:28:20:28"
     id="a116"
     transform="translate(-5.6906,-3.8452002)" />
  <a
     style="color:inherit"
     xlink:href="textedit:///Users/philippeperret/Sites/MusicScoreWriter/score_building/code/visu-not-trimed.ly:28:39:47"
     id="a120"
     transform="translate(-5.6906,-3.8452002)">
    <path
       transform="matrix(0.004,0,0,-0.004,14.7428,11.3952)"
       d="m 218,136 c 55,0 108,-28 108,-89 0,-71 -55,-121 -102,-149 -35,-21 -75,-34 -116,-34 -55,0 -108,28 -108,89 0,71 55,121 102,149 35,21 75,34 116,34 z"
       fill="currentColor"
       id="path118" />
  </a>
  <rect
     x="9.0522003"
     y="7.7360997"
     width="0.13"
     height="2.4689"
     ry="0.039999999"
     fill="currentColor"
     id="rect122" />
  <rect
     x="16.652901"
     y="0.049999829"
     width="0.13"
     height="2.3139"
     ry="0.039999999"
     fill="currentColor"
     id="rect124" />
  <a
     style="color:inherit"
     xlink:href="textedit:///Users/philippeperret/Sites/MusicScoreWriter/score_building/code/visu-not-trimed.ly:28:41:49"
     id="a128"
     transform="translate(-5.6906,-3.8452002)">
    <path
       transform="matrix(0.004,0,0,-0.004,17.9951,9.8952)"
       d="m 218,136 c 55,0 108,-28 108,-89 0,-71 -55,-121 -102,-149 -35,-21 -75,-34 -116,-34 -55,0 -108,28 -108,89 0,71 55,121 102,149 35,21 75,34 116,34 z"
       fill="currentColor"
       id="path126" />
  </a>
  <rect
     x="12.3045"
     y="6.2360997"
     width="0.13"
     height="3.3267"
     ry="0.039999999"
     fill="currentColor"
     id="rect130" />
  <a
     style="color:inherit"
     xlink:href="textedit:///Users/philippeperret/Sites/MusicScoreWriter/score_building/code/visu-not-trimed.ly:28:10:18"
     id="a134"
     transform="translate(-5.6906,-3.8452002)">
    <path
       transform="matrix(0.004,0,0,-0.004,21.1693,6.3952)"
       d="m 218,136 c 55,0 108,-28 108,-89 0,-71 -55,-121 -102,-149 -35,-21 -75,-34 -116,-34 -55,0 -108,28 -108,89 0,71 55,121 102,149 35,21 75,34 116,34 z"
       fill="currentColor"
       id="path132" />
  </a>
  <a
     style="color:inherit"
     xlink:href="textedit:///Users/philippeperret/Sites/MusicScoreWriter/score_building/code/visu-not-trimed.ly:28:59:67"
     id="a138"
     transform="translate(-5.6906,-3.8452002)">
    <path
       transform="matrix(0.004,0,0,-0.004,21.1693,12.3952)"
       d="m 218,136 c 55,0 108,-28 108,-89 0,-71 -55,-121 -102,-149 -35,-21 -75,-34 -116,-34 -55,0 -108,28 -108,89 0,71 55,121 102,149 35,21 75,34 116,34 z"
       fill="currentColor"
       id="path136" />
  </a>
  <polygon
     transform="translate(25.9097,0.23999983)"
     stroke-linejoin="round"
     stroke-linecap="round"
     stroke-width="0.08"
     fill="currentColor"
     stroke="currentColor"
     points="0.04,0.2 0.04,-0.2 7.421,0.11 7.421,0.51 "
     id="polygon140" />
  <polygon
     transform="translate(32.2057,1.3115998)"
     stroke-linejoin="round"
     stroke-linecap="round"
     stroke-width="0.08"
     fill="currentColor"
     stroke="currentColor"
     points="0.04,0.2 0.04,-0.2 1.125,-0.1516 1.125,0.2484 "
     id="polygon142" />
  <rect
     x="27.9877"
     y="11.2361"
     width="0.13"
     height="3.0752001"
     ry="0.039999999"
     fill="currentColor"
     id="rect144" />
  <a
     style="color:inherit"
     xlink:href="textedit:///Users/philippeperret/Sites/MusicScoreWriter/score_building/code/visu-not-trimed.ly:28:125:133"
     id="a148"
     transform="translate(-5.6906,-3.8452002)">
    <path
       transform="matrix(0.004,0,0,-0.004,37.0325,13.8952)"
       d="m 218,136 c 55,0 108,-28 108,-89 0,-71 -55,-121 -102,-149 -35,-21 -75,-34 -116,-34 -55,0 -108,28 -108,89 0,71 55,121 102,149 35,21 75,34 116,34 z"
       fill="currentColor"
       id="path146" />
  </a>
  <rect
     x="31.3419"
     y="10.2361"
     width="0.13"
     height="3.3283999"
     ry="0.039999999"
     fill="currentColor"
     id="rect150" />
  <polygon
     transform="translate(34.5707,17.55)"
     stroke-linejoin="round"
     stroke-linecap="round"
     stroke-width="0.08"
     fill="currentColor"
     stroke="currentColor"
     points="0.04,0.2 0.04,-0.2 6.0945,-0.51 6.0945,-0.11 "
     id="polygon152" />
  <polygon
     transform="translate(24.7355,15.05)"
     stroke-linejoin="round"
     stroke-linecap="round"
     stroke-width="0.08"
     fill="currentColor"
     stroke="currentColor"
     points="0.04,0.2 0.04,-0.2 6.6965,-1.7 6.6965,-1.3 "
     id="polygon154" />
  <a
     style="color:inherit"
     xlink:href="textedit:///Users/philippeperret/Sites/MusicScoreWriter/score_building/code/visu-not-trimed.ly:28:123:131"
     id="a158"
     transform="translate(-5.6906,-3.8452002)">
    <path
       transform="matrix(0.004,0,0,-0.004,33.6783,14.8952)"
       d="m 218,136 c 55,0 108,-28 108,-89 0,-71 -55,-121 -102,-149 -35,-21 -75,-34 -116,-34 -55,0 -108,28 -108,89 0,71 55,121 102,149 35,21 75,34 116,34 z"
       fill="currentColor"
       id="path156" />
  </a>
  <a
     style="color:inherit"
     xlink:href="textedit:///Users/philippeperret/Sites/MusicScoreWriter/score_building/code/visu-not-trimed.ly:28:131:139"
     id="a164"
     transform="translate(-5.6906,-3.8452002)">
    <text
       transform="translate(44.9308,23.2017)"
       font-family="serif"
       font-style="italic"
       font-size="1.7461px"
       text-anchor="start"
       fill="currentColor"
       id="text162"><tspan
         id="tspan160">3</tspan></text>
  </a>
  <a
     style="color:inherit"
     xlink:href="textedit:///Users/philippeperret/Sites/MusicScoreWriter/score_building/code/visu-not-trimed.ly:28:131:139"
     id="a174"
     transform="translate(-5.6906,-3.8452002)">
    <line
       transform="translate(40.2613,23.7271)"
       stroke-linejoin="round"
       stroke-linecap="round"
       stroke-width="0.16"
       stroke="currentColor"
       x1="10.4223"
       y1="-2.2539999"
       x2="10.4223"
       y2="-2.954"
       id="line166" />
    <line
       transform="translate(40.2613,23.7271)"
       stroke-linejoin="round"
       stroke-linecap="round"
       stroke-width="0.16"
       stroke="currentColor"
       x1="-0.1955"
       y1="0.042300001"
       x2="-0.1955"
       y2="-0.6577"
       id="line168" />
    <line
       transform="translate(40.2613,23.7271)"
       stroke-linejoin="round"
       stroke-linecap="round"
       stroke-width="0.16"
       stroke="currentColor"
       x1="10.4223"
       y1="-2.2539999"
       x2="6.1336999"
       y2="-1.3265001"
       id="line170" />
    <line
       transform="translate(40.2613,23.7271)"
       stroke-linejoin="round"
       stroke-linecap="round"
       stroke-width="0.16"
       stroke="currentColor"
       x1="-0.1955"
       y1="0.042300001"
       x2="4.2886"
       y2="-0.92750001"
       id="line172" />
  </a>
  <polygon
     transform="translate(15.4787,11.05)"
     stroke-linejoin="round"
     stroke-linecap="round"
     stroke-width="0.08"
     fill="currentColor"
     stroke="currentColor"
     points="0.04,0.2 0.04,-0.2 6.5945,-1.7 6.5945,-1.3 "
     id="polygon176" />
  <a
     style="color:inherit"
     xlink:href="textedit:///Users/philippeperret/Sites/MusicScoreWriter/score_building/code/visu-not-trimed.ly:28:104:112"
     id="a182"
     transform="translate(-5.6906,-3.8452002)">
    <text
       transform="translate(33.3504,20.0799)"
       font-family="serif"
       font-style="italic"
       font-size="1.7461px"
       text-anchor="start"
       fill="currentColor"
       id="text180"><tspan
         id="tspan178">3</tspan></text>
  </a>
  <a
     style="color:inherit"
     xlink:href="textedit:///Users/philippeperret/Sites/MusicScoreWriter/score_building/code/visu-not-trimed.ly:28:104:112"
     id="a184"
     transform="translate(-5.6906,-3.8452002)" />
  <polygon
     transform="translate(5.8,10.86)"
     stroke-linejoin="round"
     stroke-linecap="round"
     stroke-width="0.08"
     fill="currentColor"
     stroke="currentColor"
     points="0.04,0.2 0.04,-0.2 6.5945,-1.51 6.5945,-1.11 "
     id="polygon186" />
  <a
     style="color:inherit"
     xlink:href="textedit:///Users/philippeperret/Sites/MusicScoreWriter/score_building/code/visu-not-trimed.ly:28:45:53"
     id="a192"
     transform="translate(-5.6906,-3.8452002)">
    <text
       transform="translate(24.0427,16.0801)"
       font-family="serif"
       font-style="italic"
       font-size="1.7461px"
       text-anchor="start"
       fill="currentColor"
       id="text190"><tspan
         id="tspan188">3</tspan></text>
  </a>
  <a
     style="color:inherit"
     xlink:href="textedit:///Users/philippeperret/Sites/MusicScoreWriter/score_building/code/visu-not-trimed.ly:28:45:53"
     id="a194"
     transform="translate(-5.6906,-3.8452002)" />
  <a
     style="color:inherit"
     xlink:href="textedit:///Users/philippeperret/Sites/MusicScoreWriter/score_building/code/visu-not-trimed.ly:28:20:28"
     id="a200"
     transform="translate(-5.6906,-3.8452002)">
    <text
       transform="translate(14.3639,15.9833)"
       font-family="serif"
       font-style="italic"
       font-size="1.7461px"
       text-anchor="start"
       fill="currentColor"
       id="text198"><tspan
         id="tspan196">3</tspan></text>
  </a>
  <a
     style="color:inherit"
     xlink:href="textedit:///Users/philippeperret/Sites/MusicScoreWriter/score_building/code/visu-not-trimed.ly:28:83:91"
     id="a204"
     transform="translate(-5.6906,-3.8452002)">
    <path
       transform="matrix(0.004,0,0,-0.004,30.4261,6.8952)"
       d="m 218,136 c 55,0 108,-28 108,-89 0,-71 -55,-121 -102,-149 -35,-21 -75,-34 -116,-34 -55,0 -108,28 -108,89 0,71 55,121 102,149 35,21 75,34 116,34 z"
       fill="currentColor"
       id="path202" />
  </a>
  <a
     style="color:inherit"
     xlink:href="textedit:///Users/philippeperret/Sites/MusicScoreWriter/score_building/code/visu-not-trimed.ly:28:118:126"
     id="a208"
     transform="translate(-5.6906,-3.8452002)">
    <path
       transform="matrix(0.004,0,0,-0.004,30.4261,16.3952)"
       d="m 218,136 c 55,0 108,-28 108,-89 0,-71 -55,-121 -102,-149 -35,-21 -75,-34 -116,-34 -55,0 -108,28 -108,89 0,71 55,121 102,149 35,21 75,34 116,34 z"
       fill="currentColor"
       id="path206" />
  </a>
  <path
     d="m 26.4897,2.5499998 c 0,-0.124 0.1,-0.224 0.224,-0.224 0.124,0 0.224,0.1 0.224,0.224 0,0.124 -0.1,0.224 -0.224,0.224 -0.124,0 -0.224,-0.1 -0.224,-0.224 z"
     fill="currentColor"
     id="path210"
     style="stroke-width:0.004" />
  <rect
     x="25.9097"
     y="0.24269974"
     width="0.13"
     height="2.6212001"
     ry="0.039999999"
     fill="currentColor"
     id="rect212" />
  <rect
     x="24.7355"
     y="12.7361"
     width="0.13"
     height="2.2994001"
     ry="0.039999999"
     fill="currentColor"
     id="rect214" />
  <path
     d="m 24.1495,4.2979998 c 0,0.04 -0.032,0.076 -0.072,0.076 -0.04,0 -0.076,-0.036 -0.076,-0.076 v -0.58 l -0.332,0.124 v 0.632 c 0,0.04 -0.036,0.076 -0.076,0.076 -0.04,0 -0.072,-0.036 -0.072,-0.076 v -0.58 l -0.128,0.048 c -0.008,0.004 -0.02,0.004 -0.028,0.004 -0.044,0 -0.08,-0.036 -0.08,-0.08 v -0.24 c 0,-0.032 0.02,-0.064 0.052,-0.076 l 0.184,-0.064 v -0.64 l -0.128,0.044 c -0.008,0.004 -0.02,0.004 -0.028,0.004 -0.044,0 -0.08,-0.036 -0.08,-0.08 v -0.24 c 0,-0.032 0.02,-0.06 0.052,-0.072 l 0.184,-0.068 v -0.632 c 0,-0.04 0.032,-0.076 0.072,-0.076 0.04,0 0.076,0.036 0.076,0.076 v 0.58 l 0.332,-0.124 v -0.632 c 0,-0.04 0.036,-0.076 0.076,-0.076 0.04,0 0.072,0.036 0.072,0.076 v 0.58 l 0.128,-0.048 c 0.008,-0.004 0.02,-0.004 0.028,-0.004 0.044,0 0.08,0.036 0.08,0.08 v 0.24 c 0,0.032 -0.02,0.064 -0.052,0.076 l -0.184,0.064 v 0.64 l 0.128,-0.044 c 0.008,-0.004 0.02,-0.004 0.028,-0.004 0.044,0 0.08,0.036 0.08,0.08 v 0.24 c 0,0.032 -0.02,0.06 -0.052,0.072 l -0.184,0.068 z m -0.48,-1.508 v 0.64 l 0.332,-0.12 v -0.64 z"
     fill="currentColor"
     id="path216"
     style="stroke-width:0.004" />
  <path
     d="m 30.7559,11.298 c 0,0.04 -0.032,0.076 -0.072,0.076 -0.04,0 -0.076,-0.036 -0.076,-0.076 v -0.58 l -0.332,0.124 v 0.632 c 0,0.04 -0.036,0.076 -0.076,0.076 -0.04,0 -0.072,-0.036 -0.072,-0.076 v -0.58 l -0.128,0.048 c -0.008,0.004 -0.02,0.004 -0.028,0.004 -0.044,0 -0.08,-0.036 -0.08,-0.08 v -0.24 c 0,-0.032 0.02,-0.064 0.052,-0.076 l 0.184,-0.064 V 9.8459998 l -0.128,0.044 c -0.008,0.004 -0.02,0.004 -0.028,0.004 -0.044,0 -0.08,-0.036 -0.08,-0.08 v -0.24 c 0,-0.032 0.02,-0.06 0.052,-0.072 l 0.184,-0.068 v -0.632 c 0,-0.04 0.032,-0.076 0.072,-0.076 0.04,0 0.076,0.036 0.076,0.076 v 0.58 l 0.332,-0.124 v -0.632 c 0,-0.04 0.036,-0.076 0.076,-0.076 0.04,0 0.072,0.036 0.072,0.076 v 0.58 l 0.128,-0.048 c 0.008,-0.004 0.02,-0.004 0.028,-0.004 0.044,0 0.08,0.036 0.08,0.08 v 0.24 c 0,0.032 -0.02,0.064 -0.052,0.076 l -0.184,0.064 V 10.254 l 0.128,-0.044 c 0.008,-0.004 0.02,-0.004 0.028,-0.004 0.044,0 0.08,0.036 0.08,0.08 v 0.24 c 0,0.032 -0.02,0.06 -0.052,0.072 l -0.184,0.068 z m -0.48,-1.5080002 V 10.43 l 0.332,-0.12 V 9.6699998 Z"
     fill="currentColor"
     id="path218"
     style="stroke-width:0.004" />
  <a
     style="color:inherit"
     xlink:href="textedit:///Users/philippeperret/Sites/MusicScoreWriter/score_building/code/visu-not-trimed.ly:28:90:98"
     id="a222"
     transform="translate(-5.6906,-3.8452002)">
    <path
       transform="matrix(0.004,0,0,-0.004,37.757,7.3952)"
       d="m 218,136 c 55,0 108,-28 108,-89 0,-71 -55,-121 -102,-149 -35,-21 -75,-34 -116,-34 -55,0 -108,28 -108,89 0,71 55,121 102,149 35,21 75,34 116,34 z"
       fill="currentColor"
       id="path220" />
  </a>
  <rect
     x="33.2407"
     y="0.54729998"
     width="0.13"
     height="2.8166001"
     ry="0.039999999"
     fill="currentColor"
     id="rect224" />
  <a
     style="color:inherit"
     xlink:href="textedit:///Users/philippeperret/Sites/MusicScoreWriter/score_building/code/visu-not-trimed.ly:28:94:102"
     id="a228"
     transform="translate(-5.6906,-3.8452002)">
    <path
       transform="matrix(0.004,0,0,-0.004,40.2613,7.8952)"
       d="m 218,136 c 55,0 108,-28 108,-89 0,-71 -55,-121 -102,-149 -35,-21 -75,-34 -116,-34 -55,0 -108,28 -108,89 0,71 55,121 102,149 35,21 75,34 116,34 z"
       fill="currentColor"
       id="path226" />
  </a>
  <rect
     x="35.7449"
     y="1.0499998"
     width="0.13"
     height="2.8139"
     ry="0.039999999"
     fill="currentColor"
     id="rect230" />
  <rect
     x="6.9741998"
     y="1.7166997"
     width="0.13"
     height="3.1472001"
     ry="0.039999999"
     fill="currentColor"
     id="rect232" />
  <a
     style="color:inherit"
     xlink:href="textedit:///Users/philippeperret/Sites/MusicScoreWriter/score_building/code/visu-not-trimed.ly:28:7:15"
     id="a236"
     transform="translate(-5.6906,-3.8452002)">
    <path
       transform="matrix(0.004,0,0,-0.004,11.4906,8.8952)"
       d="m 218,136 c 55,0 108,-28 108,-89 0,-71 -55,-121 -102,-149 -35,-21 -75,-34 -116,-34 -55,0 -108,28 -108,89 0,71 55,121 102,149 35,21 75,34 116,34 z"
       fill="currentColor"
       id="path234" />
  </a>
  <a
     style="color:inherit"
     xlink:href="textedit:///Users/philippeperret/Sites/MusicScoreWriter/score_building/code/visu-not-trimed.ly:28:34:42"
     id="a240"
     transform="translate(-5.6906,-3.8452002)">
    <path
       transform="matrix(0.004,0,0,-0.004,11.4906,12.3952)"
       d="m 218,136 c 55,0 108,-28 108,-89 0,-71 -55,-121 -102,-149 -35,-21 -75,-34 -116,-34 -55,0 -108,28 -108,89 0,71 55,121 102,149 35,21 75,34 116,34 z"
       fill="currentColor"
       id="path238" />
  </a>
  <path
     d="M 1.864,8.5899998 H 1.84 c -0.432,0 -0.78,-0.352 -0.78,-0.788 0,-0.232 0.212,-0.412 0.448,-0.412 0.216,0 0.38,0.188 0.38,0.412 0,0.208 -0.172,0.38 -0.38,0.38 -0.044,0 -0.084,-0.008 -0.124,-0.024 0.104,0.156 0.272,0.26 0.468,0.26 h 0.016 z m 0.78,-1.728 c 0.272,-0.096 0.452,-0.38 0.452,-0.656 0,-0.36 -0.264,-0.716 -0.692,-0.76 0.096,0.464 0.184,0.924 0.24,1.416 z m -1.548,-0.924 c 0,0.54 0.516,0.988 1.056,0.988 0.112,0 0.22,-0.008 0.328,-0.024 -0.056,-0.508 -0.148,-0.98 -0.252,-1.456 -0.316,0.032 -0.496,0.244 -0.496,0.476 0,0.176 0.1,0.364 0.324,0.492 0.02,0.02 0.028,0.04 0.028,0.06 0,0.044 -0.04,0.088 -0.088,0.088 -0.012,0 -0.024,-0.004 -0.036,-0.008 -0.32,-0.172 -0.468,-0.46 -0.468,-0.74 0,-0.352 0.232,-0.696 0.64,-0.788 -0.056,-0.232 -0.116,-0.468 -0.184,-0.7 -0.428,0.484 -0.852,0.972 -0.852,1.612 z m 1.044,1.16 c -0.752,0 -1.332,-0.688 -1.332,-1.496 0,-0.708 0.524,-1.224 0.992,-1.764 -0.076,-0.248 -0.148,-0.5 -0.18,-0.76 -0.024,-0.208 -0.028,-0.416 -0.028,-0.624 0,-0.46 0.22,-0.896 0.596,-1.168 0.024,-0.02 0.056,-0.02 0.08,0 0.284,0.336 0.532,0.98 0.532,1.432 0,0.572 -0.344,1.02 -0.72,1.456 0.084,0.272 0.156,0.552 0.224,0.828 0.016,0 0.036,-0.004 0.052,-0.004 0.62,0 1.024,0.512 1.024,1.044 0,0.304 -0.132,0.616 -0.428,0.84 -0.088,0.068 -0.188,0.112 -0.292,0.144 0.012,0.14 0.02,0.28 0.02,0.42 0,0.076 -0.004,0.156 -0.008,0.232 -0.028,0.476 -0.352,0.9 -0.808,0.912 l 0.004,-0.172 c 0.372,-0.008 0.612,-0.368 0.636,-0.764 0.004,-0.072 0.008,-0.148 0.008,-0.22 0,-0.124 -0.004,-0.244 -0.016,-0.368 -0.116,0.02 -0.232,0.032 -0.356,0.032 z m 0.372,-4.712 c 0,-0.22 -0.016,-0.316 -0.08,-0.516 -0.396,0.192 -0.648,0.596 -0.648,1.036 0,0.296 0.072,0.532 0.144,0.776 0.32,-0.388 0.584,-0.792 0.584,-1.296 z"
     fill="currentColor"
     id="path242"
     style="stroke-width:0.004" />
  <a
     style="color:inherit"
     xlink:href="textedit:///Users/philippeperret/Sites/MusicScoreWriter/score_building/code/visu-not-trimed.ly:26:2:3"
     id="a244"
     transform="translate(-5.6906,-3.8452002)" />
  <a
     style="color:inherit"
     xlink:href="textedit:///Users/philippeperret/Sites/MusicScoreWriter/score_building/code/visu-not-trimed.ly:28:145:153"
     id="a248"
     transform="translate(-5.6906,-3.8452002)">
    <path
       transform="matrix(0.004,0,0,-0.004,40.2613,18.8952)"
       d="m 218,136 c 55,0 108,-28 108,-89 0,-71 -55,-121 -102,-149 -35,-21 -75,-34 -116,-34 -55,0 -108,28 -108,89 0,71 55,121 102,149 35,21 75,34 116,34 z"
       fill="currentColor"
       id="path246" />
  </a>
  <rect
     x="5.8000002"
     y="8.7361002"
     width="0.13"
     height="2.1111"
     ry="0.039999999"
     fill="currentColor"
     id="rect250" />
  <a
     style="color:inherit"
     xlink:href="textedit:///Users/philippeperret/Sites/MusicScoreWriter/score_building/code/visu-not-trimed.ly:28:150:158"
     id="a254"
     transform="translate(-5.6906,-3.8452002)">
    <path
       transform="matrix(0.004,0,0,-0.004,46.2658,18.3952)"
       d="m 218,136 c 55,0 108,-28 108,-89 0,-71 -55,-121 -102,-149 -35,-21 -75,-34 -116,-34 -55,0 -108,28 -108,89 0,71 55,121 102,149 35,21 75,34 116,34 z"
       fill="currentColor"
       id="path252" />
  </a>
  <rect
     x="40.575199"
     y="14.7361"
     width="0.13"
     height="2.5072"
     ry="0.039999999"
     fill="currentColor"
     id="rect256" />
  <a
     style="color:inherit"
     xlink:href="textedit:///Users/philippeperret/Sites/MusicScoreWriter/score_building/code/visu-not-trimed.ly:28:152:160"
     id="a260"
     transform="translate(-5.6906,-3.8452002)">
    <path
       transform="matrix(0.004,0,0,-0.004,50.358,16.3952)"
       d="m 218,136 c 55,0 108,-28 108,-89 0,-71 -55,-121 -102,-149 -35,-21 -75,-34 -116,-34 -55,0 -108,28 -108,89 0,71 55,121 102,149 35,21 75,34 116,34 z"
       fill="currentColor"
       id="path258" />
  </a>
  <rect
     x="44.6674"
     y="12.7361"
     width="0.13"
     height="2.8139"
     ry="0.039999999"
     fill="currentColor"
     id="rect262" />
  <path
     d="m 44.7974,15.51 h -0.064 v -1 h 0.064 z m 0,0 v -1 c 0.388,-0.236 0.896,-0.592 0.896,-1.036 0,-0.228 -0.06,-0.448 -0.16,-0.652 -0.012,-0.064 0.04,-0.108 0.092,-0.108 0.028,0 0.06,0.012 0.08,0.044 0.1,0.224 0.16,0.468 0.16,0.716 0,0.812 -1.068,1.224 -1.068,2.036 z"
     fill="currentColor"
     id="path264"
     style="stroke-width:0.004" />
  <path
     d="m 33.4927,13.55 c 0.032,-0.016 0.068,-0.028 0.104,-0.028 0.036,0 0.064,0.012 0.096,0.028 l -0.008,0.732 0.424,-0.08 h 0.012 c 0.04,0 0.072,0.028 0.072,0.068 l 0.028,2.28 c -0.032,0.016 -0.064,0.028 -0.1,0.028 -0.036,0 -0.068,-0.012 -0.1,-0.028 l 0.012,-0.732 -0.424,0.08 h -0.012 c -0.04,0 -0.072,-0.028 -0.072,-0.068 z m 0.556,1.052 -0.368,0.068 -0.012,0.828 0.368,-0.068 z"
     fill="currentColor"
     id="path266"
     style="stroke-width:0.004" />
  <rect
     x="34.570702"
     y="15.2361"
     width="0.13"
     height="2.3106"
     ry="0.039999999"
     fill="currentColor"
     id="rect268" />
  <a
     style="color:inherit"
     xlink:href="textedit:///Users/philippeperret/Sites/MusicScoreWriter/score_building/code/visu-not-trimed.ly:28:148:156"
     id="a272"
     transform="translate(-5.6906,-3.8452002)">
    <path
       transform="matrix(0.004,0,0,-0.004,43.2635,18.8952)"
       d="m 218,136 c 55,0 108,-28 108,-89 0,-71 -55,-121 -102,-149 -35,-21 -75,-34 -116,-34 -55,0 -108,28 -108,89 0,71 55,121 102,149 35,21 75,34 116,34 z"
       fill="currentColor"
       id="path270" />
  </a>
  <rect
     x="37.572899"
     y="15.2361"
     width="0.13"
     height="2.1589"
     ry="0.039999999"
     fill="currentColor"
     id="rect274" />
</svg>
