<?xml version="1.0" encoding="UTF-8" standalone="no"?>
<svg
   version="1.2"
   width="128.9736mm"
   height="28.684385mm"
   viewBox="0 0 73.393104 16.322999"
   id="svg266"
   xmlns:xlink="http://www.w3.org/1999/xlink"
   xmlns="http://www.w3.org/2000/svg"
   xmlns:svg="http://www.w3.org/2000/svg">
  <defs
     id="defs270" />
  <style
     text="style/css"
     id="style2"><![CDATA[
tspan { white-space: pre; }
]]></style>
  <!-- Page: 1/1 -->
  <rect
     x="39.636101"
     y="10.729"
     width="0.19"
     height="4.0500002"
     ry="0.0000"
     fill="currentColor"
     id="rect4" />
  <rect
     x="28.165199"
     y="1.779"
     width="0.19"
     height="4.0500002"
     ry="0.0000"
     fill="currentColor"
     id="rect6" />
  <rect
     x="16.0366"
     y="5.829"
     width="0.19"
     height="4.9499998"
     ry="0.0000"
     fill="currentColor"
     id="rect8" />
  <rect
     x="28.165199"
     y="10.729"
     width="0.19"
     height="4.0500002"
     ry="0.0000"
     fill="currentColor"
     id="rect10" />
  <rect
     x="16.0366"
     y="10.729"
     width="0.19"
     height="4.0500002"
     ry="0.0000"
     fill="currentColor"
     id="rect12" />
  <rect
     x="28.165199"
     y="5.829"
     width="0.19"
     height="4.9499998"
     ry="0.0000"
     fill="currentColor"
     id="rect14" />
  <rect
     x="16.0366"
     y="1.779"
     width="0.19"
     height="4.0500002"
     ry="0.0000"
     fill="currentColor"
     id="rect16" />
  <rect
     x="33.739601"
     y="1.779"
     width="0.19"
     height="4.0500002"
     ry="0.0000"
     fill="currentColor"
     id="rect18" />
  <rect
     x="33.739601"
     y="10.729"
     width="0.19"
     height="4.0500002"
     ry="0.0000"
     fill="currentColor"
     id="rect20" />
  <rect
     x="33.739601"
     y="5.829"
     width="0.19"
     height="4.9499998"
     ry="0.0000"
     fill="currentColor"
     id="rect22" />
  <rect
     x="68.300797"
     y="5.829"
     width="0.19"
     height="4.9499998"
     ry="0.0000"
     fill="currentColor"
     id="rect24" />
  <rect
     x="68.300797"
     y="10.729"
     width="0.19"
     height="4.0500002"
     ry="0.0000"
     fill="currentColor"
     id="rect26" />
  <rect
     x="68.300797"
     y="1.779"
     width="0.19"
     height="4.0500002"
     ry="0.0000"
     fill="currentColor"
     id="rect28" />
  <rect
     x="39.636101"
     y="1.779"
     width="0.19"
     height="4.0500002"
     ry="0.0000"
     fill="currentColor"
     id="rect30" />
  <line
     stroke-linejoin="round"
     stroke-linecap="round"
     stroke-width="0.1"
     stroke="currentColor"
     x1="1.262"
     y1="5.7789998"
     x2="73.343102"
     y2="5.7789998"
     id="line32" />
  <line
     stroke-linejoin="round"
     stroke-linecap="round"
     stroke-width="0.1"
     stroke="currentColor"
     x1="1.262"
     y1="4.7789998"
     x2="73.343102"
     y2="4.7789998"
     id="line34" />
  <line
     stroke-linejoin="round"
     stroke-linecap="round"
     stroke-width="0.1"
     stroke="currentColor"
     x1="1.262"
     y1="3.779"
     x2="73.343102"
     y2="3.779"
     id="line36" />
  <line
     stroke-linejoin="round"
     stroke-linecap="round"
     stroke-width="0.1"
     stroke="currentColor"
     x1="1.262"
     y1="2.779"
     x2="73.343102"
     y2="2.779"
     id="line38" />
  <line
     stroke-linejoin="round"
     stroke-linecap="round"
     stroke-width="0.1"
     stroke="currentColor"
     x1="1.262"
     y1="1.779"
     x2="73.343102"
     y2="1.779"
     id="line40" />
  <rect
     x="39.636101"
     y="5.829"
     width="0.19"
     height="4.9499998"
     ry="0.0000"
     fill="currentColor"
     id="rect42" />
  <rect
     x="62.7621"
     y="5.829"
     width="0.19"
     height="4.9499998"
     ry="0.0000"
     fill="currentColor"
     id="rect44" />
  <rect
     x="62.7621"
     y="10.729"
     width="0.19"
     height="4.0500002"
     ry="0.0000"
     fill="currentColor"
     id="rect46" />
  <rect
     x="62.7621"
     y="1.779"
     width="0.19"
     height="4.0500002"
     ry="0.0000"
     fill="currentColor"
     id="rect48" />
  <rect
     x="45.4305"
     y="1.779"
     width="0.19"
     height="4.0500002"
     ry="0.0000"
     fill="currentColor"
     id="rect50" />
  <rect
     x="56.865601"
     y="5.829"
     width="0.19"
     height="4.9499998"
     ry="0.0000"
     fill="currentColor"
     id="rect52" />
  <rect
     x="45.4305"
     y="10.729"
     width="0.19"
     height="4.0500002"
     ry="0.0000"
     fill="currentColor"
     id="rect54" />
  <rect
     x="45.4305"
     y="5.829"
     width="0.19"
     height="4.9499998"
     ry="0.0000"
     fill="currentColor"
     id="rect56" />
  <rect
     x="56.865601"
     y="10.729"
     width="0.19"
     height="4.0500002"
     ry="0.0000"
     fill="currentColor"
     id="rect58" />
  <rect
     x="56.865601"
     y="1.779"
     width="0.19"
     height="4.0500002"
     ry="0.0000"
     fill="currentColor"
     id="rect60" />
  <rect
     x="51.327"
     y="1.779"
     width="0.19"
     height="4.0500002"
     ry="0.0000"
     fill="currentColor"
     id="rect62" />
  <rect
     x="51.327"
     y="10.729"
     width="0.19"
     height="4.0500002"
     ry="0.0000"
     fill="currentColor"
     id="rect64" />
  <rect
     x="51.327"
     y="5.829"
     width="0.19"
     height="4.9499998"
     ry="0.0000"
     fill="currentColor"
     id="rect66" />
  <line
     stroke-linejoin="round"
     stroke-linecap="round"
     stroke-width="0.1"
     stroke="currentColor"
     x1="1.262"
     y1="14.779"
     x2="73.343102"
     y2="14.779"
     id="line68" />
  <line
     stroke-linejoin="round"
     stroke-linecap="round"
     stroke-width="0.1"
     stroke="currentColor"
     x1="1.262"
     y1="13.779"
     x2="73.343102"
     y2="13.779"
     id="line70" />
  <line
     stroke-linejoin="round"
     stroke-linecap="round"
     stroke-width="0.1"
     stroke="currentColor"
     x1="1.262"
     y1="12.779"
     x2="73.343102"
     y2="12.779"
     id="line72" />
  <line
     stroke-linejoin="round"
     stroke-linecap="round"
     stroke-width="0.1"
     stroke="currentColor"
     x1="1.262"
     y1="11.779"
     x2="73.343102"
     y2="11.779"
     id="line74" />
  <line
     stroke-linejoin="round"
     stroke-linecap="round"
     stroke-width="0.1"
     stroke="currentColor"
     x1="1.262"
     y1="10.779"
     x2="73.343102"
     y2="10.779"
     id="line76" />
  <rect
     x="21.611"
     y="10.729"
     width="0.19"
     height="4.0500002"
     ry="0.0000"
     fill="currentColor"
     id="rect78" />
  <rect
     x="21.611"
     y="1.779"
     width="0.19"
     height="4.0500002"
     ry="0.0000"
     fill="currentColor"
     id="rect80" />
  <rect
     x="21.611"
     y="5.829"
     width="0.19"
     height="4.9499998"
     ry="0.0000"
     fill="currentColor"
     id="rect82" />
  <rect
     x="70.064796"
     y="6.6789999"
     width="1.9563"
     height="0.2"
     ry="0.1"
     fill="currentColor"
     id="rect84" />
  <rect
     x="64.826103"
     y="6.6789999"
     width="1.9563"
     height="0.2"
     ry="0.1"
     fill="currentColor"
     id="rect86" />
  <rect
     x="60.631901"
     y="6.6789999"
     width="1.9563"
     height="0.2"
     ry="0.1"
     fill="currentColor"
     id="rect88" />
  <rect
     x="57.629601"
     y="6.6789999"
     width="1.9563"
     height="0.2"
     ry="0.1"
     fill="currentColor"
     id="rect90" />
  <rect
     x="53.390903"
     y="6.6789999"
     width="1.9563"
     height="0.2"
     ry="0.1"
     fill="currentColor"
     id="rect92" />
  <rect
     x="53.390903"
     y="7.6789999"
     width="1.9563"
     height="0.2"
     ry="0.1"
     fill="currentColor"
     id="rect94" />
  <rect
     x="49.196701"
     y="6.6789999"
     width="1.9563"
     height="0.2"
     ry="0.1"
     fill="currentColor"
     id="rect96" />
  <rect
     x="49.196701"
     y="7.6789999"
     width="1.9563"
     height="0.2"
     ry="0.1"
     fill="currentColor"
     id="rect98" />
  <rect
     x="46.1945"
     y="6.6789999"
     width="1.9563"
     height="0.2"
     ry="0.1"
     fill="currentColor"
     id="rect100" />
  <rect
     x="46.1945"
     y="7.6789999"
     width="1.9563"
     height="0.2"
     ry="0.1"
     fill="currentColor"
     id="rect102" />
  <rect
     x="41.7001"
     y="6.6789999"
     width="1.9563"
     height="0.2"
     ry="0.1"
     fill="currentColor"
     id="rect104" />
  <rect
     x="41.7001"
     y="7.6789999"
     width="1.9563"
     height="0.2"
     ry="0.1"
     fill="currentColor"
     id="rect106" />
  <rect
     x="37.505901"
     y="6.6789999"
     width="1.9563"
     height="0.2"
     ry="0.1"
     fill="currentColor"
     id="rect108" />
  <rect
     x="37.505901"
     y="7.6789999"
     width="1.9563"
     height="0.2"
     ry="0.1"
     fill="currentColor"
     id="rect110" />
  <rect
     x="34.503601"
     y="6.6789999"
     width="1.9563"
     height="0.2"
     ry="0.1"
     fill="currentColor"
     id="rect112" />
  <rect
     x="30.2292"
     y="6.6789999"
     width="1.9563"
     height="0.2"
     ry="0.1"
     fill="currentColor"
     id="rect114" />
  <rect
     x="18.100599"
     y="6.6789999"
     width="1.9563"
     height="0.2"
     ry="0.1"
     fill="currentColor"
     id="rect116" />
  <rect
     x="13.9064"
     y="6.6789999"
     width="1.9563"
     height="0.2"
     ry="0.1"
     fill="currentColor"
     id="rect118" />
  <rect
     x="10.904099"
     y="6.6789999"
     width="1.9563"
     height="0.2"
     ry="0.1"
     fill="currentColor"
     id="rect120" />
  <rect
     x="10.904099"
     y="7.6789999"
     width="1.9563"
     height="0.2"
     ry="0.1"
     fill="currentColor"
     id="rect122" />
  <rect
     x="25.212799"
     y="15.679"
     width="2.9430001"
     height="0.2"
     ry="0.1"
     fill="currentColor"
     id="rect124" />
  <rect
     x="62.132099"
     y="3.779"
     width="0.13"
     height="3.3139"
     ry="0.039999999"
     fill="currentColor"
     id="rect126" />
  <a
     style="color:inherit"
     xlink:href="textedit:///Users/philippeperret/Sites/MusicScoreWriter/score_building/code/visu-not-trimed.ly:30:39:40"
     id="a130"
     transform="translate(-4.4786,-3.8303)">
    <path
       transform="matrix(0.004,0,0,-0.004,65.4365,11.1093)"
       d="m 218,136 c 55,0 108,-28 108,-89 0,-71 -55,-121 -102,-149 -35,-21 -75,-34 -116,-34 -55,0 -108,28 -108,89 0,71 55,121 102,149 35,21 75,34 116,34 z"
       fill="currentColor"
       id="path128" />
  </a>
  <a
     style="color:inherit"
     xlink:href="textedit:///Users/philippeperret/Sites/MusicScoreWriter/score_building/code/visu-not-trimed.ly:30:33:34"
     id="a134"
     transform="translate(-4.4786,-3.8303)">
    <path
       transform="matrix(0.004,0,0,-0.004,58.1956,11.6093)"
       d="m 218,136 c 55,0 108,-28 108,-89 0,-71 -55,-121 -102,-149 -35,-21 -75,-34 -116,-34 -55,0 -108,28 -108,89 0,71 55,121 102,149 35,21 75,34 116,34 z"
       fill="currentColor"
       id="path132" />
  </a>
  <rect
     x="54.891201"
     y="3.779"
     width="0.13"
     height="3.8139"
     ry="0.039999999"
     fill="currentColor"
     id="rect136" />
  <a
     style="color:inherit"
     xlink:href="textedit:///Users/philippeperret/Sites/MusicScoreWriter/score_building/code/visu-not-trimed.ly:30:37:38"
     id="a140"
     transform="translate(-4.4786,-3.8303)">
    <path
       transform="matrix(0.004,0,0,-0.004,62.4342,11.1093)"
       d="m 218,136 c 55,0 108,-28 108,-89 0,-71 -55,-121 -102,-149 -35,-21 -75,-34 -116,-34 -55,0 -108,28 -108,89 0,71 55,121 102,149 35,21 75,34 116,34 z"
       fill="currentColor"
       id="path138" />
  </a>
  <a
     style="color:inherit"
     xlink:href="textedit:///Users/philippeperret/Sites/MusicScoreWriter/score_building/code/visu-not-trimed.ly:40:20:21"
     id="a144"
     transform="translate(-4.4786,-3.8303)">
    <path
       transform="matrix(0.004,0,0,-0.004,62.4342,18.6093)"
       d="m 213,112 c -50,0 -69,-43 -69,-88 0,-77 57,-136 134,-136 50,0 69,43 69,88 0,77 -57,136 -134,136 z M 491,0 c 0,-43 -34,-75 -72,-96 -53,-29 -114,-40 -174,-40 -60,0 -120,11 -173,40 -38,21 -72,53 -72,96 0,43 34,75 72,96 53,29 113,40 173,40 60,0 121,-11 174,-40 38,-21 72,-53 72,-96 z"
       fill="currentColor"
       id="path142" />
  </a>
  <rect
     x="59.129799"
     y="3.779"
     width="0.13"
     height="3.3139"
     ry="0.039999999"
     fill="currentColor"
     id="rect146" />
  <a
     style="color:inherit"
     xlink:href="textedit:///Users/philippeperret/Sites/MusicScoreWriter/score_building/code/visu-not-trimed.ly:30:7:8"
     id="a150"
     transform="translate(-4.4786,-3.8303)">
    <path
       transform="matrix(0.004,0,0,-0.004,15.7087,11.6093)"
       d="m 218,136 c 55,0 108,-28 108,-89 0,-71 -55,-121 -102,-149 -35,-21 -75,-34 -116,-34 -55,0 -108,28 -108,89 0,71 55,121 102,149 35,21 75,34 116,34 z"
       fill="currentColor"
       id="path148" />
  </a>
  <rect
     x="15.4066"
     y="3.779"
     width="0.13"
     height="3.3139"
     ry="0.039999999"
     fill="currentColor"
     id="rect152" />
  <a
     style="color:inherit"
     xlink:href="textedit:///Users/philippeperret/Sites/MusicScoreWriter/score_building/code/visu-not-trimed.ly:30:9:10"
     id="a156"
     transform="translate(-4.4786,-3.8303)">
    <path
       transform="matrix(0.004,0,0,-0.004,18.711,11.1093)"
       d="m 218,136 c 55,0 108,-28 108,-89 0,-71 -55,-121 -102,-149 -35,-21 -75,-34 -116,-34 -55,0 -108,28 -108,89 0,71 55,121 102,149 35,21 75,34 116,34 z"
       fill="currentColor"
       id="path154" />
  </a>
  <path
     d="M 3.076,7.319 H 3.052 c -0.432,0 -0.78,-0.352 -0.78,-0.788 0,-0.232 0.212,-0.412 0.448,-0.412 0.216,0 0.38,0.188 0.38,0.412 0,0.208 -0.172,0.38 -0.38,0.38 -0.044,0 -0.084,-0.008 -0.124,-0.024 0.104,0.156 0.272,0.26 0.468,0.26 H 3.08 Z M 3.856,5.591 C 4.128,5.495 4.308,5.211 4.308,4.935 4.308,4.575 4.044,4.219 3.616,4.175 3.712,4.639 3.8,5.099 3.856,5.591 Z M 2.308,4.667 c 0,0.54 0.516,0.988 1.056,0.988 0.112,0 0.22,-0.008 0.328,-0.024 C 3.636,5.123 3.544,4.651 3.44,4.175 3.124,4.207 2.944,4.419 2.944,4.651 c 0,0.176 0.1,0.364 0.324,0.492 0.02,0.02 0.028,0.04 0.028,0.06 0,0.044 -0.04,0.088 -0.088,0.088 C 3.196,5.291 3.184,5.287 3.172,5.283 2.852,5.111 2.704,4.823 2.704,4.543 2.704,4.191 2.936,3.847 3.344,3.755 3.288,3.523 3.228,3.287 3.16,3.055 2.732,3.539 2.308,4.027 2.308,4.667 Z m 1.044,1.16 C 2.6,5.827 2.02,5.139 2.02,4.331 2.02,3.623 2.544,3.107 3.012,2.567 2.936,2.319 2.864,2.067 2.832,1.807 2.808,1.599 2.804,1.391 2.804,1.183 c 0,-0.46 0.22,-0.896 0.596,-1.168 0.024,-0.02 0.056,-0.02 0.08,0 0.284,0.336 0.532,0.98 0.532,1.432 0,0.572 -0.344,1.02 -0.72,1.456 0.084,0.272 0.156,0.552 0.224,0.828 0.016,0 0.036,-0.004 0.052,-0.004 0.62,0 1.024,0.512 1.024,1.044 0,0.304 -0.132,0.616 -0.428,0.84 -0.088,0.068 -0.188,0.112 -0.292,0.144 0.012,0.14 0.02,0.28 0.02,0.42 0,0.076 -0.004,0.156 -0.008,0.232 -0.028,0.476 -0.352,0.9 -0.808,0.912 L 3.08,7.147 C 3.452,7.139 3.692,6.779 3.716,6.383 3.72,6.311 3.724,6.235 3.724,6.163 3.724,6.039 3.72,5.919 3.708,5.795 3.592,5.815 3.476,5.827 3.352,5.827 Z M 3.724,1.115 C 3.724,0.895 3.708,0.799 3.644,0.599 3.248,0.791 2.996,1.195 2.996,1.635 2.996,1.931 3.068,2.167 3.14,2.411 3.46,2.023 3.724,1.619 3.724,1.115 Z"
     fill="currentColor"
     id="path158"
     style="stroke-width:0.004" />
  <rect
     x="19.6008"
     y="3.279"
     width="0.13"
     height="3.3139"
     ry="0.039999999"
     fill="currentColor"
     id="rect160" />
  <a
     style="color:inherit"
     xlink:href="textedit:///Users/philippeperret/Sites/MusicScoreWriter/score_building/code/visu-not-trimed.ly:30:11:12"
     id="a164"
     transform="translate(-4.4786,-3.8303)">
    <path
       transform="matrix(0.004,0,0,-0.004,22.9052,10.6093)"
       d="m 218,136 c 55,0 108,-28 108,-89 0,-71 -55,-121 -102,-149 -35,-21 -75,-34 -116,-34 -55,0 -108,28 -108,89 0,71 55,121 102,149 35,21 75,34 116,34 z"
       fill="currentColor"
       id="path162" />
  </a>
  <a
     style="color:inherit"
     xlink:href="textedit:///Users/philippeperret/Sites/MusicScoreWriter/score_building/code/visu-not-trimed.ly:30:41:42"
     id="a168"
     transform="translate(-4.4786,-3.8303)">
    <path
       transform="matrix(0.004,0,0,-0.004,69.6307,11.1093)"
       d="m 218,136 c 55,0 108,-28 108,-89 0,-71 -55,-121 -102,-149 -35,-21 -75,-34 -116,-34 -55,0 -108,28 -108,89 0,71 55,121 102,149 35,21 75,34 116,34 z"
       fill="currentColor"
       id="path166" />
  </a>
  <rect
     x="66.326302"
     y="3.779"
     width="0.13"
     height="3.3139"
     ry="0.039999999"
     fill="currentColor"
     id="rect170" />
  <a
     style="color:inherit"
     xlink:href="textedit:///Users/philippeperret/Sites/MusicScoreWriter/score_building/code/visu-not-trimed.ly:30:43:44"
     id="a174"
     transform="translate(-4.4786,-3.8303)">
    <path
       transform="matrix(0.004,0,0,-0.004,74.8694,11.1093)"
       d="m 218,136 c 55,0 108,-28 108,-89 0,-71 -55,-121 -102,-149 -35,-21 -75,-34 -116,-34 -55,0 -108,28 -108,89 0,71 55,121 102,149 35,21 75,34 116,34 z"
       fill="currentColor"
       id="path172" />
  </a>
  <rect
     x="71.565002"
     y="3.779"
     width="0.13"
     height="3.3139"
     ry="0.039999999"
     fill="currentColor"
     id="rect176" />
  <rect
     x="23.8752"
     y="2.779"
     width="0.13"
     height="3.3139"
     ry="0.039999999"
     fill="currentColor"
     id="rect178" />
  <a
     style="color:inherit"
     xlink:href="textedit:///Users/philippeperret/Sites/MusicScoreWriter/score_building/code/visu-not-trimed.ly:30:13:14"
     id="a182"
     transform="translate(-4.4786,-3.8303)">
    <path
       transform="matrix(0.004,0,0,-0.004,27.1796,10.1093)"
       d="m 218,136 c 55,0 108,-28 108,-89 0,-71 -55,-121 -102,-149 -35,-21 -75,-34 -116,-34 -55,0 -108,28 -108,89 0,71 55,121 102,149 35,21 75,34 116,34 z"
       fill="currentColor"
       id="path180" />
  </a>
  <rect
     x="36.003899"
     y="3.779"
     width="0.13"
     height="3.3139"
     ry="0.039999999"
     fill="currentColor"
     id="rect184" />
  <a
     style="color:inherit"
     xlink:href="textedit:///Users/philippeperret/Sites/MusicScoreWriter/score_building/code/visu-not-trimed.ly:30:21:22"
     id="a188"
     transform="translate(-4.4786,-3.8303)">
    <path
       transform="matrix(0.004,0,0,-0.004,39.3082,11.1093)"
       d="m 218,136 c 55,0 108,-28 108,-89 0,-71 -55,-121 -102,-149 -35,-21 -75,-34 -116,-34 -55,0 -108,28 -108,89 0,71 55,121 102,149 35,21 75,34 116,34 z"
       fill="currentColor"
       id="path186" />
  </a>
  <rect
     x="31.7295"
     y="3.279"
     width="0.13"
     height="3.3139"
     ry="0.039999999"
     fill="currentColor"
     id="rect190" />
  <a
     style="color:inherit"
     xlink:href="textedit:///Users/philippeperret/Sites/MusicScoreWriter/score_building/code/visu-not-trimed.ly:30:19:20"
     id="a194"
     transform="translate(-4.4786,-3.8303)">
    <path
       transform="matrix(0.004,0,0,-0.004,35.0338,10.6093)"
       d="m 218,136 c 55,0 108,-28 108,-89 0,-71 -55,-121 -102,-149 -35,-21 -75,-34 -116,-34 -55,0 -108,28 -108,89 0,71 55,121 102,149 35,21 75,34 116,34 z"
       fill="currentColor"
       id="path192" />
  </a>
  <a
     style="color:inherit"
     xlink:href="textedit:///Users/philippeperret/Sites/MusicScoreWriter/score_building/code/visu-not-trimed.ly:40:7:8"
     id="a198"
     transform="translate(-4.4786,-3.8303)">
    <path
       transform="matrix(0.004,0,0,-0.004,15.7087,18.1093)"
       d="m 213,112 c -50,0 -69,-43 -69,-88 0,-77 57,-136 134,-136 50,0 69,43 69,88 0,77 -57,136 -134,136 z M 491,0 c 0,-43 -34,-75 -72,-96 -53,-29 -114,-40 -174,-40 -60,0 -120,11 -173,40 -38,21 -72,53 -72,96 0,43 34,75 72,96 53,29 113,40 173,40 60,0 121,-11 174,-40 38,-21 72,-53 72,-96 z"
       fill="currentColor"
       id="path196" />
  </a>
  <a
     style="color:inherit"
     xlink:href="textedit:///Users/philippeperret/Sites/MusicScoreWriter/score_building/code/visu-not-trimed.ly:39:6:7"
     id="a202"
     transform="translate(-4.4786,-3.8303)">
    <path
       transform="matrix(0.004,0,0,-0.004,9.9906,15.6093)"
       d="m 216,-312 c 0,-10 -8,-19 -18,-19 -10,0 -19,9 -19,19 v 145 l -83,-31 v -158 c 0,-10 -9,-19 -19,-19 -10,0 -18,9 -18,19 v 145 l -32,-12 c -2,-1 -5,-1 -7,-1 -11,0 -20,9 -20,20 v 60 c 0,8 5,16 13,19 l 46,16 V 51 L 27,40 C 25,39 22,39 20,39 9,39 0,48 0,59 v 60 c 0,8 5,15 13,18 l 46,17 v 158 c 0,10 8,19 18,19 10,0 19,-9 19,-19 V 167 l 83,31 v 158 c 0,10 9,19 19,19 10,0 18,-9 18,-19 V 211 l 32,12 c 2,1 5,1 7,1 11,0 20,-9 20,-20 v -60 c 0,-8 -5,-16 -13,-19 L 216,109 V -51 l 32,11 c 2,1 5,1 7,1 11,0 20,-9 20,-20 v -60 c 0,-8 -5,-15 -13,-18 l -46,-17 z M 96,65 V -95 l 83,30 V 95 Z"
       fill="currentColor"
       id="path200" />
  </a>
  <a
     style="color:inherit"
     xlink:href="textedit:///Users/philippeperret/Sites/MusicScoreWriter/score_building/code/visu-not-trimed.ly:30:23:24"
     id="a206"
     transform="translate(-4.4786,-3.8303)">
    <path
       transform="matrix(0.004,0,0,-0.004,42.3105,11.6093)"
       d="m 218,136 c 55,0 108,-28 108,-89 0,-71 -55,-121 -102,-149 -35,-21 -75,-34 -116,-34 -55,0 -108,28 -108,89 0,71 55,121 102,149 35,21 75,34 116,34 z"
       fill="currentColor"
       id="path204" />
  </a>
  <path
     d="m 4.24,12.279 c 0,-0.112 0.092,-0.204 0.204,-0.204 0.112,0 0.204,0.092 0.204,0.204 0,0.112 -0.092,0.204 -0.204,0.204 -0.112,0 -0.204,-0.092 -0.204,-0.204 z m 0,-1 c 0,-0.112 0.092,-0.204 0.204,-0.204 0.112,0 0.204,0.092 0.204,0.204 0,0.112 -0.092,0.204 -0.204,0.204 -0.112,0 -0.204,-0.092 -0.204,-0.204 z m -1.3,-0.552 c 0.688,0 1.172,0.352 1.172,1.004 0,1.052 -1.052,1.656 -2.064,2.084 -0.012,0.012 -0.024,0.016 -0.036,0.016 -0.028,0 -0.052,-0.024 -0.052,-0.052 0,-0.012 0.004,-0.024 0.016,-0.036 0.808,-0.472 1.648,-1.06 1.648,-1.972 0,-0.48 -0.252,-0.94 -0.684,-0.94 -0.296,0 -0.516,0.216 -0.616,0.504 0.044,-0.02 0.088,-0.032 0.136,-0.032 0.22,0 0.4,0.18 0.4,0.4 0,0.232 -0.176,0.424 -0.4,0.424 -0.24,0 -0.448,-0.188 -0.448,-0.424 0,-0.532 0.408,-0.976 0.928,-0.976 z"
     fill="currentColor"
     id="path208"
     style="stroke-width:0.004" />
  <rect
     x="26.877501"
     y="2.779"
     width="0.13"
     height="3.3139"
     ry="0.039999999"
     fill="currentColor"
     id="rect210" />
  <a
     style="color:inherit"
     xlink:href="textedit:///Users/philippeperret/Sites/MusicScoreWriter/score_building/code/visu-not-trimed.ly:40:12:13"
     id="a214"
     transform="translate(-4.4786,-3.8303)">
    <path
       transform="matrix(0.004,0,0,-0.004,30.1818,19.6093)"
       d="m 213,112 c -50,0 -69,-43 -69,-88 0,-77 57,-136 134,-136 50,0 69,43 69,88 0,77 -57,136 -134,136 z M 491,0 c 0,-43 -34,-75 -72,-96 -53,-29 -114,-40 -174,-40 -60,0 -120,11 -173,40 -38,21 -72,53 -72,96 0,43 34,75 72,96 53,29 113,40 173,40 60,0 121,-11 174,-40 38,-21 72,-53 72,-96 z"
       fill="currentColor"
       id="path212" />
  </a>
  <a
     style="color:inherit"
     xlink:href="textedit:///Users/philippeperret/Sites/MusicScoreWriter/score_building/code/visu-not-trimed.ly:30:17:18"
     id="a218"
     transform="translate(-4.4786,-3.8303)">
    <path
       transform="matrix(0.004,0,0,-0.004,30.1818,10.1093)"
       d="m 218,136 c 55,0 108,-28 108,-89 0,-71 -55,-121 -102,-149 -35,-21 -75,-34 -116,-34 -55,0 -108,28 -108,89 0,71 55,121 102,149 35,21 75,34 116,34 z"
       fill="currentColor"
       id="path216" />
  </a>
  <a
     style="color:inherit"
     xlink:href="textedit:///Users/philippeperret/Sites/MusicScoreWriter/score_building/code/visu-not-trimed.ly:28:6:7"
     id="a222"
     transform="translate(-4.4786,-3.8303)">
    <path
       transform="matrix(0.004,0,0,-0.004,9.9906,5.6093)"
       d="m 216,-312 c 0,-10 -8,-19 -18,-19 -10,0 -19,9 -19,19 v 145 l -83,-31 v -158 c 0,-10 -9,-19 -19,-19 -10,0 -18,9 -18,19 v 145 l -32,-12 c -2,-1 -5,-1 -7,-1 -11,0 -20,9 -20,20 v 60 c 0,8 5,16 13,19 l 46,16 V 51 L 27,40 C 25,39 22,39 20,39 9,39 0,48 0,59 v 60 c 0,8 5,15 13,18 l 46,17 v 158 c 0,10 8,19 18,19 10,0 19,-9 19,-19 V 167 l 83,31 v 158 c 0,10 9,19 19,19 10,0 18,-9 18,-19 V 211 l 32,12 c 2,1 5,1 7,1 11,0 20,-9 20,-20 v -60 c 0,-8 -5,-16 -13,-19 L 216,109 V -51 l 32,11 c 2,1 5,1 7,1 11,0 20,-9 20,-20 v -60 c 0,-8 -5,-15 -13,-18 l -46,-17 z M 96,65 V -95 l 83,30 V 95 Z"
       fill="currentColor"
       id="path220" />
  </a>
  <rect
     x="1.152"
     y="1.7289999"
     width="0.16"
     height="13.1"
     ry="0.050000001"
     fill="currentColor"
     id="rect224" />
  <path
     d="m 0.792,10.271 c 0,1.044 -0.408,2.064 -0.408,3.06 0,0.54 0.12,1.044 0.516,1.44 0.06,0.06 -0.036,0.156 -0.096,0.096 -0.528,-0.54 -0.708,-1.248 -0.708,-2.004 0,-1.068 0.432,-2.112 0.432,-3.12 0,-0.54 -0.132,-1.044 -0.516,-1.44 C 0,8.291 0,8.291 0,8.279 0,8.267 0,8.267 0.012,8.255 c 0.384,-0.396 0.516,-0.9 0.516,-1.44 0,-1.008 -0.432,-2.052 -0.432,-3.12 0,-0.756 0.18,-1.464 0.708,-2.004 0.06,-0.06 0.156,0.036 0.096,0.096 -0.396,0.396 -0.516,0.9 -0.516,1.44 0,0.996 0.408,2.016 0.408,3.06 0,0.744 -0.18,1.452 -0.696,1.992 0.516,0.54 0.696,1.248 0.696,1.992 z"
     fill="currentColor"
     id="path226"
     style="stroke-width:0.004" />
  <rect
     x="39.0061"
     y="3.779"
     width="0.13"
     height="3.8139"
     ry="0.039999999"
     fill="currentColor"
     id="rect228" />
  <a
     style="color:inherit"
     xlink:href="textedit:///Users/philippeperret/Sites/MusicScoreWriter/score_building/code/visu-not-trimed.ly:25:6:7"
     id="a234"
     transform="translate(-4.4786,-3.8303)">
    <path
       transform="matrix(0.004,0,0,-0.004,12.3088,7.6093)"
       d="m 150,477 c -29,0 -59,-8 -59,-33 0,-22 36,-25 36,-47 0,-32 -26,-58 -58,-58 -32,0 -57,26 -57,58 0,65 67,103 138,103 91,0 169,-33 169,-114 0,-43 -4,-82 -42,-100 -9,-4 -14,-12 -14,-21 0,-9 5,-18 14,-22 41,-19 56,-57 56,-103 C 333,48 254,0 154,0 75,0 0,42 0,113 c 0,36 30,66 66,66 36,0 65,-30 65,-66 0,-25 -40,-28 -40,-53 0,-27 32,-37 63,-37 49,0 63,61 63,117 v 16 c 0,54 -2,94 -50,94 H 87 c -10,0 -14,8 -14,15 0,7 4,14 14,14 h 80 c 49,0 50,43 50,99 v 8 c 0,54 -18,91 -67,91 z"
       fill="currentColor"
       id="path230" />
    <path
       transform="matrix(0.004,0,0,-0.004,12.2406,9.6237)"
       d="m 259,288 c 27,29 49,62 49,102 0,55 -57,87 -117,87 -47,0 -75,-36 -75,-71 0,-20 10,-40 30,-52 z m 30,-17 C 344,240 372,192 372,144 372,71 306,0 183,0 89,0 0,54 0,140 c 0,50 39,85 76,120 -41,28 -61,67 -61,106 0,68 61,134 176,134 81,0 161,-38 161,-110 0,-47 -30,-85 -63,-119 z M 106,242 C 73,213 44,183 44,140 44,71 110,23 183,23 c 54,0 86,42 86,83 0,24 -10,48 -35,62 z"
       fill="currentColor"
       id="path232" />
  </a>
  <a
     style="color:inherit"
     xlink:href="textedit:///Users/philippeperret/Sites/MusicScoreWriter/score_building/code/visu-not-trimed.ly:30:29:30"
     id="a238"
     transform="translate(-4.4786,-3.8303)">
    <path
       transform="matrix(0.004,0,0,-0.004,50.9991,11.6093)"
       d="m 218,136 c 55,0 108,-28 108,-89 0,-71 -55,-121 -102,-149 -35,-21 -75,-34 -116,-34 -55,0 -108,28 -108,89 0,71 55,121 102,149 35,21 75,34 116,34 z"
       fill="currentColor"
       id="path236" />
  </a>
  <rect
     x="47.694698"
     y="3.779"
     width="0.13"
     height="3.8139"
     ry="0.039999999"
     fill="currentColor"
     id="rect240" />
  <rect
     x="12.4043"
     y="3.779"
     width="0.13"
     height="3.8139"
     ry="0.039999999"
     fill="currentColor"
     id="rect242" />
  <a
     style="color:inherit"
     xlink:href="textedit:///Users/philippeperret/Sites/MusicScoreWriter/score_building/code/visu-not-trimed.ly:30:31:32"
     id="a246"
     transform="translate(-4.4786,-3.8303)">
    <path
       transform="matrix(0.004,0,0,-0.004,54.0013,11.6093)"
       d="m 218,136 c 55,0 108,-28 108,-89 0,-71 -55,-121 -102,-149 -35,-21 -75,-34 -116,-34 -55,0 -108,28 -108,89 0,71 55,121 102,149 35,21 75,34 116,34 z"
       fill="currentColor"
       id="path244" />
  </a>
  <rect
     x="50.696999"
     y="3.779"
     width="0.13"
     height="3.8139"
     ry="0.039999999"
     fill="currentColor"
     id="rect248" />
  <a
     style="color:inherit"
     xlink:href="textedit:///Users/philippeperret/Sites/MusicScoreWriter/score_building/code/visu-not-trimed.ly:30:27:28"
     id="a252"
     transform="translate(-4.4786,-3.8303)">
    <path
       transform="matrix(0.004,0,0,-0.004,46.5047,11.6093)"
       d="m 218,136 c 55,0 108,-28 108,-89 0,-71 -55,-121 -102,-149 -35,-21 -75,-34 -116,-34 -55,0 -108,28 -108,89 0,71 55,121 102,149 35,21 75,34 116,34 z"
       fill="currentColor"
       id="path250" />
  </a>
  <a
     style="color:inherit"
     xlink:href="textedit:///Users/philippeperret/Sites/MusicScoreWriter/score_building/code/visu-not-trimed.ly:40:16:17"
     id="a256"
     transform="translate(-4.4786,-3.8303)">
    <path
       transform="matrix(0.004,0,0,-0.004,46.5047,18.1093)"
       d="m 213,112 c -50,0 -69,-43 -69,-88 0,-77 57,-136 134,-136 50,0 69,43 69,88 0,77 -57,136 -134,136 z M 491,0 c 0,-43 -34,-75 -72,-96 -53,-29 -114,-40 -174,-40 -60,0 -120,11 -173,40 -38,21 -72,53 -72,96 0,43 34,75 72,96 53,29 113,40 173,40 60,0 121,-11 174,-40 38,-21 72,-53 72,-96 z"
       fill="currentColor"
       id="path254" />
  </a>
  <rect
     x="43.200298"
     y="3.779"
     width="0.13"
     height="3.8139"
     ry="0.039999999"
     fill="currentColor"
     id="rect258" />
  <a
     style="color:inherit"
     xlink:href="textedit:///Users/philippeperret/Sites/MusicScoreWriter/score_building/code/visu-not-trimed.ly:36:6:7"
     id="a264"
     transform="translate(-4.4786,-3.8303)">
    <path
       transform="matrix(0.004,0,0,-0.004,12.3088,16.6093)"
       d="m 150,477 c -29,0 -59,-8 -59,-33 0,-22 36,-25 36,-47 0,-32 -26,-58 -58,-58 -32,0 -57,26 -57,58 0,65 67,103 138,103 91,0 169,-33 169,-114 0,-43 -4,-82 -42,-100 -9,-4 -14,-12 -14,-21 0,-9 5,-18 14,-22 41,-19 56,-57 56,-103 C 333,48 254,0 154,0 75,0 0,42 0,113 c 0,36 30,66 66,66 36,0 65,-30 65,-66 0,-25 -40,-28 -40,-53 0,-27 32,-37 63,-37 49,0 63,61 63,117 v 16 c 0,54 -2,94 -50,94 H 87 c -10,0 -14,8 -14,15 0,7 4,14 14,14 h 80 c 49,0 50,43 50,99 v 8 c 0,54 -18,91 -67,91 z"
       fill="currentColor"
       id="path260" />
    <path
       transform="matrix(0.004,0,0,-0.004,12.2406,18.6237)"
       d="m 259,288 c 27,29 49,62 49,102 0,55 -57,87 -117,87 -47,0 -75,-36 -75,-71 0,-20 10,-40 30,-52 z m 30,-17 C 344,240 372,192 372,144 372,71 306,0 183,0 89,0 0,54 0,140 c 0,50 39,85 76,120 -41,28 -61,67 -61,106 0,68 61,134 176,134 81,0 161,-38 161,-110 0,-47 -30,-85 -63,-119 z M 106,242 C 73,213 44,183 44,140 44,71 110,23 183,23 c 54,0 86,42 86,83 0,24 -10,48 -35,62 z"
       fill="currentColor"
       id="path262" />
  </a>
</svg>
