<?xml version="1.0" encoding="UTF-8" standalone="no"?>
<svg
   version="1.2"
   width="103.97111mm"
   height="28.684385mm"
   viewBox="0 0 59.165303 16.322999"
   id="svg210"
   xmlns:xlink="http://www.w3.org/1999/xlink"
   xmlns="http://www.w3.org/2000/svg"
   xmlns:svg="http://www.w3.org/2000/svg">
  <defs
     id="defs214" />
  <style
     text="style/css"
     id="style2"><![CDATA[
tspan { white-space: pre; }
]]></style>
  <!-- Page: 1/1 -->
  <rect
     x="58.975201"
     y="10.729"
     width="0.19"
     height="4.0500002"
     ry="0.0000"
     fill="currentColor"
     id="rect4" />
  <rect
     x="32.484299"
     y="1.779"
     width="0.19"
     height="4.0500002"
     ry="0.0000"
     fill="currentColor"
     id="rect6" />
  <rect
     x="45.729698"
     y="10.729"
     width="0.19"
     height="4.0500002"
     ry="0.0000"
     fill="currentColor"
     id="rect8" />
  <rect
     x="45.729698"
     y="5.829"
     width="0.19"
     height="4.9499998"
     ry="0.0000"
     fill="currentColor"
     id="rect10" />
  <rect
     x="19.2388"
     y="10.729"
     width="0.19"
     height="4.0500002"
     ry="0.0000"
     fill="currentColor"
     id="rect12" />
  <rect
     x="32.484299"
     y="10.729"
     width="0.19"
     height="4.0500002"
     ry="0.0000"
     fill="currentColor"
     id="rect14" />
  <rect
     x="19.2388"
     y="5.829"
     width="0.19"
     height="4.9499998"
     ry="0.0000"
     fill="currentColor"
     id="rect16" />
  <rect
     x="58.975201"
     y="5.829"
     width="0.19"
     height="4.9499998"
     ry="0.0000"
     fill="currentColor"
     id="rect18" />
  <rect
     x="32.484299"
     y="5.829"
     width="0.19"
     height="4.9499998"
     ry="0.0000"
     fill="currentColor"
     id="rect20" />
  <rect
     x="45.729698"
     y="1.779"
     width="0.19"
     height="4.0500002"
     ry="0.0000"
     fill="currentColor"
     id="rect22" />
  <rect
     x="58.975201"
     y="1.779"
     width="0.19"
     height="4.0500002"
     ry="0.0000"
     fill="currentColor"
     id="rect24" />
  <rect
     x="19.2388"
     y="1.779"
     width="0.19"
     height="4.0500002"
     ry="0.0000"
     fill="currentColor"
     id="rect26" />
  <line
     stroke-linejoin="round"
     stroke-linecap="round"
     stroke-width="0.1"
     stroke="currentColor"
     x1="1.262"
     y1="5.7789998"
     x2="59.115303"
     y2="5.7789998"
     id="line28" />
  <line
     stroke-linejoin="round"
     stroke-linecap="round"
     stroke-width="0.1"
     stroke="currentColor"
     x1="1.262"
     y1="4.7789998"
     x2="59.115303"
     y2="4.7789998"
     id="line30" />
  <line
     stroke-linejoin="round"
     stroke-linecap="round"
     stroke-width="0.1"
     stroke="currentColor"
     x1="1.262"
     y1="3.779"
     x2="59.115303"
     y2="3.779"
     id="line32" />
  <line
     stroke-linejoin="round"
     stroke-linecap="round"
     stroke-width="0.1"
     stroke="currentColor"
     x1="1.262"
     y1="2.779"
     x2="59.115303"
     y2="2.779"
     id="line34" />
  <line
     stroke-linejoin="round"
     stroke-linecap="round"
     stroke-width="0.1"
     stroke="currentColor"
     x1="1.262"
     y1="1.779"
     x2="59.115303"
     y2="1.779"
     id="line36" />
  <rect
     x="55.500504"
     y="6.6789999"
     width="1.9563"
     height="0.2"
     ry="0.1"
     fill="currentColor"
     id="rect38" />
  <rect
     x="52.498302"
     y="6.6789999"
     width="1.9563"
     height="0.2"
     ry="0.1"
     fill="currentColor"
     id="rect40" />
  <rect
     x="49.496002"
     y="6.6789999"
     width="1.9563"
     height="0.2"
     ry="0.1"
     fill="currentColor"
     id="rect42" />
  <rect
     x="46.493702"
     y="6.6789999"
     width="1.9563"
     height="0.2"
     ry="0.1"
     fill="currentColor"
     id="rect44" />
  <rect
     x="42.2551"
     y="6.6789999"
     width="1.9563"
     height="0.2"
     ry="0.1"
     fill="currentColor"
     id="rect46" />
  <rect
     x="42.2551"
     y="7.6789999"
     width="1.9563"
     height="0.2"
     ry="0.1"
     fill="currentColor"
     id="rect48" />
  <rect
     x="39.2528"
     y="6.6789999"
     width="1.9563"
     height="0.2"
     ry="0.1"
     fill="currentColor"
     id="rect50" />
  <rect
     x="39.2528"
     y="7.6789999"
     width="1.9563"
     height="0.2"
     ry="0.1"
     fill="currentColor"
     id="rect52" />
  <rect
     x="36.250504"
     y="6.6789999"
     width="1.9563"
     height="0.2"
     ry="0.1"
     fill="currentColor"
     id="rect54" />
  <rect
     x="36.250504"
     y="7.6789999"
     width="1.9563"
     height="0.2"
     ry="0.1"
     fill="currentColor"
     id="rect56" />
  <rect
     x="33.248302"
     y="6.6789999"
     width="1.9563"
     height="0.2"
     ry="0.1"
     fill="currentColor"
     id="rect58" />
  <rect
     x="33.248302"
     y="7.6789999"
     width="1.9563"
     height="0.2"
     ry="0.1"
     fill="currentColor"
     id="rect60" />
  <rect
     x="29.0096"
     y="6.6789999"
     width="1.9563"
     height="0.2"
     ry="0.1"
     fill="currentColor"
     id="rect62" />
  <rect
     x="29.0096"
     y="7.6789999"
     width="1.9563"
     height="0.2"
     ry="0.1"
     fill="currentColor"
     id="rect64" />
  <rect
     x="26.007299"
     y="6.6789999"
     width="1.9563"
     height="0.2"
     ry="0.1"
     fill="currentColor"
     id="rect66" />
  <rect
     x="23.0051"
     y="6.6789999"
     width="1.9563"
     height="0.2"
     ry="0.1"
     fill="currentColor"
     id="rect68" />
  <rect
     x="12.6905"
     y="6.6789999"
     width="1.9563"
     height="0.2"
     ry="0.1"
     fill="currentColor"
     id="rect70" />
  <rect
     x="9.6882"
     y="6.6789999"
     width="1.9563"
     height="0.2"
     ry="0.1"
     fill="currentColor"
     id="rect72" />
  <rect
     x="6.6858997"
     y="6.6789999"
     width="1.9563"
     height="0.2"
     ry="0.1"
     fill="currentColor"
     id="rect74" />
  <rect
     x="6.6858997"
     y="7.6789999"
     width="1.9563"
     height="0.2"
     ry="0.1"
     fill="currentColor"
     id="rect76" />
  <rect
     x="19.8384"
     y="15.679"
     width="2.9430001"
     height="0.2"
     ry="0.1"
     fill="currentColor"
     id="rect78" />
  <line
     stroke-linejoin="round"
     stroke-linecap="round"
     stroke-width="0.1"
     stroke="currentColor"
     x1="1.262"
     y1="14.779"
     x2="59.115303"
     y2="14.779"
     id="line80" />
  <line
     stroke-linejoin="round"
     stroke-linecap="round"
     stroke-width="0.1"
     stroke="currentColor"
     x1="1.262"
     y1="13.779"
     x2="59.115303"
     y2="13.779"
     id="line82" />
  <line
     stroke-linejoin="round"
     stroke-linecap="round"
     stroke-width="0.1"
     stroke="currentColor"
     x1="1.262"
     y1="12.779"
     x2="59.115303"
     y2="12.779"
     id="line84" />
  <line
     stroke-linejoin="round"
     stroke-linecap="round"
     stroke-width="0.1"
     stroke="currentColor"
     x1="1.262"
     y1="11.779"
     x2="59.115303"
     y2="11.779"
     id="line86" />
  <line
     stroke-linejoin="round"
     stroke-linecap="round"
     stroke-width="0.1"
     stroke="currentColor"
     x1="1.262"
     y1="10.779"
     x2="59.115303"
     y2="10.779"
     id="line88" />
  <rect
     x="50.996201"
     y="3.779"
     width="0.13"
     height="3.3139"
     ry="0.039999999"
     fill="currentColor"
     id="rect90" />
  <a
     style="color:inherit"
     xlink:href="textedit:///Users/philippeperret/Sites/MusicScoreWriter/score_building/code/visu-not-trimed.ly:30:39:40"
     id="a94"
     transform="translate(-4.4786,-3.8303)">
    <path
       transform="matrix(0.004,0,0,-0.004,54.3006,11.1093)"
       d="m 218,136 c 55,0 108,-28 108,-89 0,-71 -55,-121 -102,-149 -35,-21 -75,-34 -116,-34 -55,0 -108,28 -108,89 0,71 55,121 102,149 35,21 75,34 116,34 z"
       fill="currentColor"
       id="path92" />
  </a>
  <rect
     x="53.998501"
     y="3.779"
     width="0.13"
     height="3.3139"
     ry="0.039999999"
     fill="currentColor"
     id="rect96" />
  <a
     style="color:inherit"
     xlink:href="textedit:///Users/philippeperret/Sites/MusicScoreWriter/score_building/code/visu-not-trimed.ly:30:41:42"
     id="a100"
     transform="translate(-4.4786,-3.8303)">
    <path
       transform="matrix(0.004,0,0,-0.004,57.3029,11.1093)"
       d="m 218,136 c 55,0 108,-28 108,-89 0,-71 -55,-121 -102,-149 -35,-21 -75,-34 -116,-34 -55,0 -108,28 -108,89 0,71 55,121 102,149 35,21 75,34 116,34 z"
       fill="currentColor"
       id="path98" />
  </a>
  <a
     style="color:inherit"
     xlink:href="textedit:///Users/philippeperret/Sites/MusicScoreWriter/score_building/code/visu-not-trimed.ly:30:33:34"
     id="a104"
     transform="translate(-4.4786,-3.8303)">
    <path
       transform="matrix(0.004,0,0,-0.004,47.0597,11.6093)"
       d="m 218,136 c 55,0 108,-28 108,-89 0,-71 -55,-121 -102,-149 -35,-21 -75,-34 -116,-34 -55,0 -108,28 -108,89 0,71 55,121 102,149 35,21 75,34 116,34 z"
       fill="currentColor"
       id="path102" />
  </a>
  <rect
     x="43.755299"
     y="3.779"
     width="0.13"
     height="3.8139"
     ry="0.039999999"
     fill="currentColor"
     id="rect106" />
  <a
     style="color:inherit"
     xlink:href="textedit:///Users/philippeperret/Sites/MusicScoreWriter/score_building/code/visu-not-trimed.ly:30:37:38"
     id="a110"
     transform="translate(-4.4786,-3.8303)">
    <path
       transform="matrix(0.004,0,0,-0.004,51.2983,11.1093)"
       d="m 218,136 c 55,0 108,-28 108,-89 0,-71 -55,-121 -102,-149 -35,-21 -75,-34 -116,-34 -55,0 -108,28 -108,89 0,71 55,121 102,149 35,21 75,34 116,34 z"
       fill="currentColor"
       id="path108" />
  </a>
  <a
     style="color:inherit"
     xlink:href="textedit:///Users/philippeperret/Sites/MusicScoreWriter/score_building/code/visu-not-trimed.ly:40:20:21"
     id="a114"
     transform="translate(-4.4786,-3.8303)">
    <path
       transform="matrix(0.004,0,0,-0.004,51.2983,18.6093)"
       d="m 213,112 c -50,0 -69,-43 -69,-88 0,-77 57,-136 134,-136 50,0 69,43 69,88 0,77 -57,136 -134,136 z M 491,0 c 0,-43 -34,-75 -72,-96 -53,-29 -114,-40 -174,-40 -60,0 -120,11 -173,40 -38,21 -72,53 -72,96 0,43 34,75 72,96 53,29 113,40 173,40 60,0 121,-11 174,-40 38,-21 72,-53 72,-96 z"
       fill="currentColor"
       id="path112" />
  </a>
  <rect
     x="47.993999"
     y="3.779"
     width="0.13"
     height="3.3139"
     ry="0.039999999"
     fill="currentColor"
     id="rect116" />
  <a
     style="color:inherit"
     xlink:href="textedit:///Users/philippeperret/Sites/MusicScoreWriter/score_building/code/visu-not-trimed.ly:40:12:13"
     id="a120"
     transform="translate(-4.4786,-3.8303)">
    <path
       transform="matrix(0.004,0,0,-0.004,24.8074,19.6093)"
       d="m 213,112 c -50,0 -69,-43 -69,-88 0,-77 57,-136 134,-136 50,0 69,43 69,88 0,77 -57,136 -134,136 z M 491,0 c 0,-43 -34,-75 -72,-96 -53,-29 -114,-40 -174,-40 -60,0 -120,11 -173,40 -38,21 -72,53 -72,96 0,43 34,75 72,96 53,29 113,40 173,40 60,0 121,-11 174,-40 38,-21 72,-53 72,-96 z"
       fill="currentColor"
       id="path118" />
  </a>
  <a
     style="color:inherit"
     xlink:href="textedit:///Users/philippeperret/Sites/MusicScoreWriter/score_building/code/visu-not-trimed.ly:30:11:12"
     id="a124"
     transform="translate(-4.4786,-3.8303)">
    <path
       transform="matrix(0.004,0,0,-0.004,17.4951,10.6093)"
       d="m 218,136 c 55,0 108,-28 108,-89 0,-71 -55,-121 -102,-149 -35,-21 -75,-34 -116,-34 -55,0 -108,28 -108,89 0,71 55,121 102,149 35,21 75,34 116,34 z"
       fill="currentColor"
       id="path122" />
  </a>
  <rect
     x="14.1907"
     y="3.279"
     width="0.13"
     height="3.3139"
     ry="0.039999999"
     fill="currentColor"
     id="rect126" />
  <a
     style="color:inherit"
     xlink:href="textedit:///Users/philippeperret/Sites/MusicScoreWriter/score_building/code/visu-not-trimed.ly:30:13:14"
     id="a130"
     transform="translate(-4.4786,-3.8303)">
    <path
       transform="matrix(0.004,0,0,-0.004,20.4973,10.1093)"
       d="m 218,136 c 55,0 108,-28 108,-89 0,-71 -55,-121 -102,-149 -35,-21 -75,-34 -116,-34 -55,0 -108,28 -108,89 0,71 55,121 102,149 35,21 75,34 116,34 z"
       fill="currentColor"
       id="path128" />
  </a>
  <rect
     x="17.1929"
     y="2.779"
     width="0.13"
     height="3.3139"
     ry="0.039999999"
     fill="currentColor"
     id="rect132" />
  <a
     style="color:inherit"
     xlink:href="textedit:///Users/philippeperret/Sites/MusicScoreWriter/score_building/code/visu-not-trimed.ly:30:17:18"
     id="a136"
     transform="translate(-4.4786,-3.8303)">
    <path
       transform="matrix(0.004,0,0,-0.004,24.8074,10.1093)"
       d="m 218,136 c 55,0 108,-28 108,-89 0,-71 -55,-121 -102,-149 -35,-21 -75,-34 -116,-34 -55,0 -108,28 -108,89 0,71 55,121 102,149 35,21 75,34 116,34 z"
       fill="currentColor"
       id="path134" />
  </a>
  <rect
     x="21.503"
     y="2.779"
     width="0.13"
     height="3.3139"
     ry="0.039999999"
     fill="currentColor"
     id="rect138" />
  <a
     style="color:inherit"
     xlink:href="textedit:///Users/philippeperret/Sites/MusicScoreWriter/score_building/code/visu-not-trimed.ly:30:43:44"
     id="a142"
     transform="translate(-4.4786,-3.8303)">
    <path
       transform="matrix(0.004,0,0,-0.004,60.3051,11.1093)"
       d="m 218,136 c 55,0 108,-28 108,-89 0,-71 -55,-121 -102,-149 -35,-21 -75,-34 -116,-34 -55,0 -108,28 -108,89 0,71 55,121 102,149 35,21 75,34 116,34 z"
       fill="currentColor"
       id="path140" />
  </a>
  <rect
     x="57.000702"
     y="3.779"
     width="0.13"
     height="3.3139"
     ry="0.039999999"
     fill="currentColor"
     id="rect144" />
  <a
     style="color:inherit"
     xlink:href="textedit:///Users/philippeperret/Sites/MusicScoreWriter/score_building/code/visu-not-trimed.ly:30:9:10"
     id="a148"
     transform="translate(-4.4786,-3.8303)">
    <path
       transform="matrix(0.004,0,0,-0.004,14.4928,11.1093)"
       d="m 218,136 c 55,0 108,-28 108,-89 0,-71 -55,-121 -102,-149 -35,-21 -75,-34 -116,-34 -55,0 -108,28 -108,89 0,71 55,121 102,149 35,21 75,34 116,34 z"
       fill="currentColor"
       id="path146" />
  </a>
  <rect
     x="11.1884"
     y="3.779"
     width="0.13"
     height="3.3139"
     ry="0.039999999"
     fill="currentColor"
     id="rect150" />
  <a
     style="color:inherit"
     xlink:href="textedit:///Users/philippeperret/Sites/MusicScoreWriter/score_building/code/visu-not-trimed.ly:30:19:20"
     id="a154"
     transform="translate(-4.4786,-3.8303)">
    <path
       transform="matrix(0.004,0,0,-0.004,27.8097,10.6093)"
       d="m 218,136 c 55,0 108,-28 108,-89 0,-71 -55,-121 -102,-149 -35,-21 -75,-34 -116,-34 -55,0 -108,28 -108,89 0,71 55,121 102,149 35,21 75,34 116,34 z"
       fill="currentColor"
       id="path152" />
  </a>
  <rect
     x="24.505301"
     y="3.279"
     width="0.13"
     height="3.3139"
     ry="0.039999999"
     fill="currentColor"
     id="rect156" />
  <a
     style="color:inherit"
     xlink:href="textedit:///Users/philippeperret/Sites/MusicScoreWriter/score_building/code/visu-not-trimed.ly:30:21:22"
     id="a160"
     transform="translate(-4.4786,-3.8303)">
    <path
       transform="matrix(0.004,0,0,-0.004,30.812,11.1093)"
       d="m 218,136 c 55,0 108,-28 108,-89 0,-71 -55,-121 -102,-149 -35,-21 -75,-34 -116,-34 -55,0 -108,28 -108,89 0,71 55,121 102,149 35,21 75,34 116,34 z"
       fill="currentColor"
       id="path158" />
  </a>
  <rect
     x="27.507601"
     y="3.779"
     width="0.13"
     height="3.3139"
     ry="0.039999999"
     fill="currentColor"
     id="rect162" />
  <path
     d="m 0.792,10.271 c 0,1.044 -0.408,2.064 -0.408,3.06 0,0.54 0.12,1.044 0.516,1.44 0.06,0.06 -0.036,0.156 -0.096,0.096 -0.528,-0.54 -0.708,-1.248 -0.708,-2.004 0,-1.068 0.432,-2.112 0.432,-3.12 0,-0.54 -0.132,-1.044 -0.516,-1.44 C 0,8.291 0,8.291 0,8.279 0,8.267 0,8.267 0.012,8.255 c 0.384,-0.396 0.516,-0.9 0.516,-1.44 0,-1.008 -0.432,-2.052 -0.432,-3.12 0,-0.756 0.18,-1.464 0.708,-2.004 0.06,-0.06 0.156,0.036 0.096,0.096 -0.396,0.396 -0.516,0.9 -0.516,1.44 0,0.996 0.408,2.016 0.408,3.06 0,0.744 -0.18,1.452 -0.696,1.992 0.516,0.54 0.696,1.248 0.696,1.992 z"
     fill="currentColor"
     id="path164"
     style="stroke-width:0.004" />
  <rect
     x="1.152"
     y="1.7289999"
     width="0.16"
     height="13.1"
     ry="0.050000001"
     fill="currentColor"
     id="rect166" />
  <rect
     x="34.748501"
     y="3.779"
     width="0.13"
     height="3.8139"
     ry="0.039999999"
     fill="currentColor"
     id="rect168" />
  <a
     style="color:inherit"
     xlink:href="textedit:///Users/philippeperret/Sites/MusicScoreWriter/score_building/code/visu-not-trimed.ly:30:7:8"
     id="a172"
     transform="translate(-4.4786,-3.8303)">
    <path
       transform="matrix(0.004,0,0,-0.004,11.4906,11.6093)"
       d="m 218,136 c 55,0 108,-28 108,-89 0,-71 -55,-121 -102,-149 -35,-21 -75,-34 -116,-34 -55,0 -108,28 -108,89 0,71 55,121 102,149 35,21 75,34 116,34 z"
       fill="currentColor"
       id="path170" />
  </a>
  <path
     d="M 3.076,7.319 H 3.052 c -0.432,0 -0.78,-0.352 -0.78,-0.788 0,-0.232 0.212,-0.412 0.448,-0.412 0.216,0 0.38,0.188 0.38,0.412 0,0.208 -0.172,0.38 -0.38,0.38 -0.044,0 -0.084,-0.008 -0.124,-0.024 0.104,0.156 0.272,0.26 0.468,0.26 H 3.08 Z M 3.856,5.591 C 4.128,5.495 4.308,5.211 4.308,4.935 4.308,4.575 4.044,4.219 3.616,4.175 3.712,4.639 3.8,5.099 3.856,5.591 Z M 2.308,4.667 c 0,0.54 0.516,0.988 1.056,0.988 0.112,0 0.22,-0.008 0.328,-0.024 C 3.636,5.123 3.544,4.651 3.44,4.175 3.124,4.207 2.944,4.419 2.944,4.651 c 0,0.176 0.1,0.364 0.324,0.492 0.02,0.02 0.028,0.04 0.028,0.06 0,0.044 -0.04,0.088 -0.088,0.088 C 3.196,5.291 3.184,5.287 3.172,5.283 2.852,5.111 2.704,4.823 2.704,4.543 2.704,4.191 2.936,3.847 3.344,3.755 3.288,3.523 3.228,3.287 3.16,3.055 2.732,3.539 2.308,4.027 2.308,4.667 Z m 1.044,1.16 C 2.6,5.827 2.02,5.139 2.02,4.331 2.02,3.623 2.544,3.107 3.012,2.567 2.936,2.319 2.864,2.067 2.832,1.807 2.808,1.599 2.804,1.391 2.804,1.183 c 0,-0.46 0.22,-0.896 0.596,-1.168 0.024,-0.02 0.056,-0.02 0.08,0 0.284,0.336 0.532,0.98 0.532,1.432 0,0.572 -0.344,1.02 -0.72,1.456 0.084,0.272 0.156,0.552 0.224,0.828 0.016,0 0.036,-0.004 0.052,-0.004 0.62,0 1.024,0.512 1.024,1.044 0,0.304 -0.132,0.616 -0.428,0.84 -0.088,0.068 -0.188,0.112 -0.292,0.144 0.012,0.14 0.02,0.28 0.02,0.42 0,0.076 -0.004,0.156 -0.008,0.232 -0.028,0.476 -0.352,0.9 -0.808,0.912 L 3.08,7.147 C 3.452,7.139 3.692,6.779 3.716,6.383 3.72,6.311 3.724,6.235 3.724,6.163 3.724,6.039 3.72,5.919 3.708,5.795 3.592,5.815 3.476,5.827 3.352,5.827 Z M 3.724,1.115 C 3.724,0.895 3.708,0.799 3.644,0.599 3.248,0.791 2.996,1.195 2.996,1.635 2.996,1.931 3.068,2.167 3.14,2.411 3.46,2.023 3.724,1.619 3.724,1.115 Z"
     fill="currentColor"
     id="path174"
     style="stroke-width:0.004" />
  <a
     style="color:inherit"
     xlink:href="textedit:///Users/philippeperret/Sites/MusicScoreWriter/score_building/code/visu-not-trimed.ly:40:7:8"
     id="a178"
     transform="translate(-4.4786,-3.8303)">
    <path
       transform="matrix(0.004,0,0,-0.004,11.4906,18.1093)"
       d="m 213,112 c -50,0 -69,-43 -69,-88 0,-77 57,-136 134,-136 50,0 69,43 69,88 0,77 -57,136 -134,136 z M 491,0 c 0,-43 -34,-75 -72,-96 -53,-29 -114,-40 -174,-40 -60,0 -120,11 -173,40 -38,21 -72,53 -72,96 0,43 34,75 72,96 53,29 113,40 173,40 60,0 121,-11 174,-40 38,-21 72,-53 72,-96 z"
       fill="currentColor"
       id="path176" />
  </a>
  <path
     d="m 4.24,12.279 c 0,-0.112 0.092,-0.204 0.204,-0.204 0.112,0 0.204,0.092 0.204,0.204 0,0.112 -0.092,0.204 -0.204,0.204 -0.112,0 -0.204,-0.092 -0.204,-0.204 z m 0,-1 c 0,-0.112 0.092,-0.204 0.204,-0.204 0.112,0 0.204,0.092 0.204,0.204 0,0.112 -0.092,0.204 -0.204,0.204 -0.112,0 -0.204,-0.092 -0.204,-0.204 z m -1.3,-0.552 c 0.688,0 1.172,0.352 1.172,1.004 0,1.052 -1.052,1.656 -2.064,2.084 -0.012,0.012 -0.024,0.016 -0.036,0.016 -0.028,0 -0.052,-0.024 -0.052,-0.052 0,-0.012 0.004,-0.024 0.016,-0.036 0.808,-0.472 1.648,-1.06 1.648,-1.972 0,-0.48 -0.252,-0.94 -0.684,-0.94 -0.296,0 -0.516,0.216 -0.616,0.504 0.044,-0.02 0.088,-0.032 0.136,-0.032 0.22,0 0.4,0.18 0.4,0.4 0,0.232 -0.176,0.424 -0.4,0.424 -0.24,0 -0.448,-0.188 -0.448,-0.424 0,-0.532 0.408,-0.976 0.928,-0.976 z"
     fill="currentColor"
     id="path180"
     style="stroke-width:0.004" />
  <rect
     x="8.1862001"
     y="3.779"
     width="0.13"
     height="3.8139"
     ry="0.039999999"
     fill="currentColor"
     id="rect182" />
  <a
     style="color:inherit"
     xlink:href="textedit:///Users/philippeperret/Sites/MusicScoreWriter/score_building/code/visu-not-trimed.ly:30:29:30"
     id="a186"
     transform="translate(-4.4786,-3.8303)">
    <path
       transform="matrix(0.004,0,0,-0.004,41.0551,11.6093)"
       d="m 218,136 c 55,0 108,-28 108,-89 0,-71 -55,-121 -102,-149 -35,-21 -75,-34 -116,-34 -55,0 -108,28 -108,89 0,71 55,121 102,149 35,21 75,34 116,34 z"
       fill="currentColor"
       id="path184" />
  </a>
  <rect
     x="37.750801"
     y="3.779"
     width="0.13"
     height="3.8139"
     ry="0.039999999"
     fill="currentColor"
     id="rect188" />
  <a
     style="color:inherit"
     xlink:href="textedit:///Users/philippeperret/Sites/MusicScoreWriter/score_building/code/visu-not-trimed.ly:30:31:32"
     id="a192"
     transform="translate(-4.4786,-3.8303)">
    <path
       transform="matrix(0.004,0,0,-0.004,44.0574,11.6093)"
       d="m 218,136 c 55,0 108,-28 108,-89 0,-71 -55,-121 -102,-149 -35,-21 -75,-34 -116,-34 -55,0 -108,28 -108,89 0,71 55,121 102,149 35,21 75,34 116,34 z"
       fill="currentColor"
       id="path190" />
  </a>
  <rect
     x="40.752998"
     y="3.779"
     width="0.13"
     height="3.8139"
     ry="0.039999999"
     fill="currentColor"
     id="rect194" />
  <a
     style="color:inherit"
     xlink:href="textedit:///Users/philippeperret/Sites/MusicScoreWriter/score_building/code/visu-not-trimed.ly:30:23:24"
     id="a198"
     transform="translate(-4.4786,-3.8303)">
    <path
       transform="matrix(0.004,0,0,-0.004,33.8142,11.6093)"
       d="m 218,136 c 55,0 108,-28 108,-89 0,-71 -55,-121 -102,-149 -35,-21 -75,-34 -116,-34 -55,0 -108,28 -108,89 0,71 55,121 102,149 35,21 75,34 116,34 z"
       fill="currentColor"
       id="path196" />
  </a>
  <rect
     x="30.5098"
     y="3.779"
     width="0.13"
     height="3.8139"
     ry="0.039999999"
     fill="currentColor"
     id="rect200" />
  <a
     style="color:inherit"
     xlink:href="textedit:///Users/philippeperret/Sites/MusicScoreWriter/score_building/code/visu-not-trimed.ly:40:16:17"
     id="a204"
     transform="translate(-4.4786,-3.8303)">
    <path
       transform="matrix(0.004,0,0,-0.004,38.0529,18.1093)"
       d="m 213,112 c -50,0 -69,-43 -69,-88 0,-77 57,-136 134,-136 50,0 69,43 69,88 0,77 -57,136 -134,136 z M 491,0 c 0,-43 -34,-75 -72,-96 -53,-29 -114,-40 -174,-40 -60,0 -120,11 -173,40 -38,21 -72,53 -72,96 0,43 34,75 72,96 53,29 113,40 173,40 60,0 121,-11 174,-40 38,-21 72,-53 72,-96 z"
       fill="currentColor"
       id="path202" />
  </a>
  <a
     style="color:inherit"
     xlink:href="textedit:///Users/philippeperret/Sites/MusicScoreWriter/score_building/code/visu-not-trimed.ly:30:27:28"
     id="a208"
     transform="translate(-4.4786,-3.8303)">
    <path
       transform="matrix(0.004,0,0,-0.004,38.0529,11.6093)"
       d="m 218,136 c 55,0 108,-28 108,-89 0,-71 -55,-121 -102,-149 -35,-21 -75,-34 -116,-34 -55,0 -108,28 -108,89 0,71 55,121 102,149 35,21 75,34 116,34 z"
       fill="currentColor"
       id="path206" />
  </a>
</svg>
