<?xml version="1.0" encoding="UTF-8" standalone="no"?>
<svg
   version="1.2"
   width="88.09848mm"
   height="34.794514mm"
   viewBox="0 0 50.132902 19.8"
   id="svg280"
   xmlns:xlink="http://www.w3.org/1999/xlink"
   xmlns="http://www.w3.org/2000/svg"
   xmlns:svg="http://www.w3.org/2000/svg">
  <defs
     id="defs284" />
  <style
     text="style/css"
     id="style2"><![CDATA[
tspan { white-space: pre; }
]]></style>
  <!-- Page: 1/1 -->
  <line
     stroke-linejoin="round"
     stroke-linecap="round"
     stroke-width="0.1"
     stroke="currentColor"
     x1="1.322"
     y1="7.0499997"
     x2="50.082901"
     y2="7.0499997"
     id="line4" />
  <line
     stroke-linejoin="round"
     stroke-linecap="round"
     stroke-width="0.1"
     stroke="currentColor"
     x1="1.322"
     y1="6.0499997"
     x2="50.082901"
     y2="6.0499997"
     id="line6" />
  <line
     stroke-linejoin="round"
     stroke-linecap="round"
     stroke-width="0.1"
     stroke="currentColor"
     x1="1.322"
     y1="5.0499997"
     x2="50.082901"
     y2="5.0499997"
     id="line8" />
  <line
     stroke-linejoin="round"
     stroke-linecap="round"
     stroke-width="0.1"
     stroke="currentColor"
     x1="1.322"
     y1="4.0499997"
     x2="50.082901"
     y2="4.0499997"
     id="line10" />
  <line
     stroke-linejoin="round"
     stroke-linecap="round"
     stroke-width="0.1"
     stroke="currentColor"
     x1="1.322"
     y1="3.05"
     x2="50.082901"
     y2="3.05"
     id="line12" />
  <rect
     x="43.551201"
     y="12.95"
     width="1.9563"
     height="0.2"
     ry="0.1"
     fill="currentColor"
     id="rect14" />
  <rect
     x="40.685398"
     y="12.95"
     width="1.8199"
     height="0.2"
     ry="0.1"
     fill="currentColor"
     id="rect16" />
  <rect
     x="33.2864"
     y="12.95"
     width="1.9563"
     height="0.2"
     ry="0.1"
     fill="currentColor"
     id="rect18" />
  <rect
     x="21.9555"
     y="11.95"
     width="1.9563"
     height="0.2"
     ry="0.1"
     fill="currentColor"
     id="rect20" />
  <rect
     x="21.9555"
     y="12.95"
     width="1.9563"
     height="0.2"
     ry="0.1"
     fill="currentColor"
     id="rect22" />
  <rect
     x="12.8029"
     y="12.95"
     width="1.9563"
     height="0.2"
     ry="0.1"
     fill="currentColor"
     id="rect24" />
  <line
     stroke-linejoin="round"
     stroke-linecap="round"
     stroke-width="0.1"
     stroke="currentColor"
     x1="1.322"
     y1="18.049999"
     x2="50.082901"
     y2="18.049999"
     id="line26" />
  <line
     stroke-linejoin="round"
     stroke-linecap="round"
     stroke-width="0.1"
     stroke="currentColor"
     x1="1.322"
     y1="17.049999"
     x2="50.082901"
     y2="17.049999"
     id="line28" />
  <line
     stroke-linejoin="round"
     stroke-linecap="round"
     stroke-width="0.1"
     stroke="currentColor"
     x1="1.322"
     y1="16.049999"
     x2="50.082901"
     y2="16.049999"
     id="line30" />
  <line
     stroke-linejoin="round"
     stroke-linecap="round"
     stroke-width="0.1"
     stroke="currentColor"
     x1="1.322"
     y1="15.05"
     x2="50.082901"
     y2="15.05"
     id="line32" />
  <line
     stroke-linejoin="round"
     stroke-linecap="round"
     stroke-width="0.1"
     stroke="currentColor"
     x1="1.322"
     y1="14.05"
     x2="50.082901"
     y2="14.05"
     id="line34" />
  <rect
     x="28.1201"
     y="14"
     width="0.19"
     height="4.0500002"
     ry="0.0000"
     fill="currentColor"
     id="rect36" />
  <rect
     x="28.1201"
     y="3.05"
     width="0.19"
     height="4.0500002"
     ry="0.0000"
     fill="currentColor"
     id="rect38" />
  <rect
     x="49.942799"
     y="7.1000996"
     width="0.19"
     height="6.9499998"
     ry="0.0000"
     fill="currentColor"
     id="rect40" />
  <rect
     x="28.1201"
     y="7.1000996"
     width="0.19"
     height="6.9499998"
     ry="0.0000"
     fill="currentColor"
     id="rect42" />
  <rect
     x="49.942799"
     y="14"
     width="0.19"
     height="4.0500002"
     ry="0.0000"
     fill="currentColor"
     id="rect44" />
  <rect
     x="49.942799"
     y="3.05"
     width="0.19"
     height="4.0500002"
     ry="0.0000"
     fill="currentColor"
     id="rect46" />
  <path
     d="m 17.9872,13.386 -0.004,0.264 v 0.044 c 0,0.088 0.004,0.176 0.016,0.264 0.18,-0.152 0.372,-0.32 0.372,-0.556 0,-0.132 -0.056,-0.268 -0.172,-0.268 -0.124,0 -0.208,0.12 -0.212,0.252 z m -0.168,0.716 -0.048,-2.38 c 0.032,-0.02 0.072,-0.032 0.108,-0.032 0.036,0 0.076,0.012 0.108,0.032 l -0.028,1.38 c 0.1,-0.084 0.232,-0.136 0.364,-0.136 0.208,0 0.356,0.192 0.356,0.408 0,0.32 -0.344,0.468 -0.588,0.676 -0.06,0.052 -0.096,0.152 -0.18,0.152 -0.052,0 -0.092,-0.044 -0.092,-0.1 z"
     fill="currentColor"
     id="path48"
     style="stroke-width:0.004" />
  <path
     d="m 19.1592,19.76 h -0.064 v -1 h 0.064 z m 0,0 v -1 c 0.388,-0.236 0.896,-0.592 0.896,-1.036 0,-0.228 -0.06,-0.448 -0.16,-0.652 -0.012,-0.064 0.04,-0.108 0.092,-0.108 0.028,0 0.06,0.012 0.08,0.044 0.1,0.224 0.16,0.468 0.16,0.716 0,0.812 -1.068,1.224 -1.068,2.036 z"
     fill="currentColor"
     id="path50"
     style="stroke-width:0.004" />
  <path
     d="m 18.4432,17.798 c 0,0.04 -0.032,0.076 -0.072,0.076 -0.04,0 -0.076,-0.036 -0.076,-0.076 v -0.58 l -0.332,0.124 v 0.632 c 0,0.04 -0.036,0.076 -0.076,0.076 -0.04,0 -0.072,-0.036 -0.072,-0.076 v -0.58 l -0.128,0.048 c -0.008,0.004 -0.02,0.004 -0.028,0.004 -0.044,0 -0.08,-0.036 -0.08,-0.08 v -0.24 c 0,-0.032 0.02,-0.064 0.052,-0.076 l 0.184,-0.064 v -0.64 l -0.128,0.044 c -0.008,0.004 -0.02,0.004 -0.028,0.004 -0.044,0 -0.08,-0.036 -0.08,-0.08 v -0.24 c 0,-0.032 0.02,-0.06 0.052,-0.072 l 0.184,-0.068 v -0.632 c 0,-0.04 0.032,-0.076 0.072,-0.076 0.04,0 0.076,0.036 0.076,0.076 v 0.58 l 0.332,-0.124 v -0.632 c 0,-0.04 0.036,-0.076 0.076,-0.076 0.04,0 0.072,0.036 0.072,0.076 v 0.58 l 0.128,-0.048 c 0.008,-0.004 0.02,-0.004 0.028,-0.004 0.044,0 0.08,0.036 0.08,0.08 v 0.24 c 0,0.032 -0.02,0.064 -0.052,0.076 l -0.184,0.064 v 0.64 l 0.128,-0.044 c 0.008,-0.004 0.02,-0.004 0.028,-0.004 0.044,0 0.08,0.036 0.08,0.08 v 0.24 c 0,0.032 -0.02,0.06 -0.052,0.072 l -0.184,0.068 z m -0.48,-1.508 v 0.64 l 0.332,-0.12 v -0.64 z"
     fill="currentColor"
     id="path52"
     style="stroke-width:0.004" />
  <rect
     x="20.203501"
     y="10.0373"
     width="0.13"
     height="3.3266001"
     ry="0.039999999"
     fill="currentColor"
     id="rect54" />
  <a
     style="color:inherit"
     xlink:href="textedit:///Users/philippeperret/Sites/MusicScoreWriter/score_building/code/visu-not-trimed.ly:45:122:123"
     id="a58"
     transform="translate(-4.4186,-3.8452002)">
    <path
       transform="matrix(0.004,0,0,-0.004,26.7001,15.8952)"
       d="m 218,136 c 55,0 108,-28 108,-89 0,-71 -55,-121 -102,-149 -35,-21 -75,-34 -116,-34 -55,0 -108,28 -108,89 0,71 55,121 102,149 35,21 75,34 116,34 z"
       fill="currentColor"
       id="path56" />
  </a>
  <rect
     x="23.4557"
     y="9.4003"
     width="0.13"
     height="2.4635999"
     ry="0.039999999"
     fill="currentColor"
     id="rect60" />
  <a
     style="color:inherit"
     xlink:href="textedit:///Users/philippeperret/Sites/MusicScoreWriter/score_building/code/visu-not-trimed.ly:45:180:181"
     id="a64"
     transform="translate(-4.4186,-3.8452002)">
    <path
       transform="matrix(0.004,0,0,-0.004,28.1491,21.8952)"
       d="M 72,-250 189,76 C 155,64 120,54 84,54 38,54 -3,87 -3,133 c 0,40 33,72 73,72 25,0 48,-15 56,-39 10,-28 6,-59 35,-59 16,0 54,48 61,63 6,12 23,12 28,0 L 127,-250 c -8,-7 -17,-10 -27,-10 -10,0 -20,3 -28,10 z"
       fill="currentColor"
       id="path62" />
  </a>
  <a
     style="color:inherit"
     xlink:href="textedit:///Users/philippeperret/Sites/MusicScoreWriter/score_building/code/visu-not-trimed.ly:45:158:159"
     id="a68"
     transform="translate(-4.4186,-3.8452002)">
    <path
       transform="matrix(0.004,0,0,-0.004,29.5981,9.8952)"
       d="m 218,136 c 55,0 108,-28 108,-89 0,-71 -55,-121 -102,-149 -35,-21 -75,-34 -116,-34 -55,0 -108,28 -108,89 0,71 55,121 102,149 35,21 75,34 116,34 z"
       fill="currentColor"
       id="path66" />
  </a>
  <rect
     x="25.179501"
     y="6.2360997"
     width="0.13"
     height="2.8266001"
     ry="0.039999999"
     fill="currentColor"
     id="rect70" />
  <a
     style="color:inherit"
     xlink:href="textedit:///Users/philippeperret/Sites/MusicScoreWriter/score_building/code/visu-not-trimed.ly:45:66:67"
     id="a74"
     transform="translate(-4.4186,-3.8452002)">
    <path
       transform="matrix(0.004,0,0,-0.004,20.4456,9.8952)"
       d="m 218,136 c 55,0 108,-28 108,-89 0,-71 -55,-121 -102,-149 -35,-21 -75,-34 -116,-34 -55,0 -108,28 -108,89 0,71 55,121 102,149 35,21 75,34 116,34 z"
       fill="currentColor"
       id="path72" />
  </a>
  <a
     style="color:inherit"
     xlink:href="textedit:///Users/philippeperret/Sites/MusicScoreWriter/score_building/code/visu-not-trimed.ly:45:12:13"
     id="a76"
     transform="translate(-4.4186,-3.8452002)" />
  <a
     style="color:inherit"
     xlink:href="textedit:///Users/philippeperret/Sites/MusicScoreWriter/score_building/code/visu-not-trimed.ly:45:30:31"
     id="a80"
     transform="translate(-4.4186,-3.8452002)">
    <path
       transform="matrix(0.004,0,0,-0.004,17.5475,16.3952)"
       d="m 218,136 c 55,0 108,-28 108,-89 0,-71 -55,-121 -102,-149 -35,-21 -75,-34 -116,-34 -55,0 -108,28 -108,89 0,71 55,121 102,149 35,21 75,34 116,34 z"
       fill="currentColor"
       id="path78" />
  </a>
  <rect
     x="14.3032"
     y="9.5237999"
     width="0.13"
     height="2.8401"
     ry="0.039999999"
     fill="currentColor"
     id="rect82" />
  <a
     style="color:inherit"
     xlink:href="textedit:///Users/philippeperret/Sites/MusicScoreWriter/score_building/code/visu-not-trimed.ly:45:173:174"
     id="a86"
     transform="translate(-4.4186,-3.8452002)">
    <path
       transform="matrix(0.004,0,0,-0.004,18.9966,21.8952)"
       d="M 72,-250 189,76 C 155,64 120,54 84,54 38,54 -3,87 -3,133 c 0,40 33,72 73,72 25,0 48,-15 56,-39 10,-28 6,-59 35,-59 16,0 54,48 61,63 6,12 23,12 28,0 L 127,-250 c -8,-7 -17,-10 -27,-10 -10,0 -20,3 -28,10 z"
       fill="currentColor"
       id="path84" />
  </a>
  <rect
     x="16.027"
     y="6.2360997"
     width="0.13"
     height="3.0142"
     ry="0.039999999"
     fill="currentColor"
     id="rect88" />
  <a
     style="color:inherit"
     xlink:href="textedit:///Users/philippeperret/Sites/MusicScoreWriter/score_building/code/visu-not-trimed.ly:35:18:19"
     id="a92"
     transform="translate(-4.4186,-3.8452002)">
    <path
       transform="matrix(0.004,0,0,-0.004,23.4478,6.3952)"
       d="m 218,136 c 55,0 108,-28 108,-89 0,-71 -55,-121 -102,-149 -35,-21 -75,-34 -116,-34 -55,0 -108,28 -108,89 0,71 55,121 102,149 35,21 75,34 116,34 z"
       fill="currentColor"
       id="path90" />
  </a>
  <a
     style="color:inherit"
     xlink:href="textedit:///Users/philippeperret/Sites/MusicScoreWriter/score_building/code/visu-not-trimed.ly:45:175:176"
     id="a96"
     transform="translate(-4.4186,-3.8452002)">
    <path
       transform="matrix(0.004,0,0,-0.004,23.4478,20.3952)"
       d="m 218,136 c 55,0 108,-28 108,-89 0,-71 -55,-121 -102,-149 -35,-21 -75,-34 -116,-34 -55,0 -108,28 -108,89 0,71 55,121 102,149 35,21 75,34 116,34 z"
       fill="currentColor"
       id="path94" />
  </a>
  <a
     style="color:inherit"
     xlink:href="textedit:///Users/philippeperret/Sites/MusicScoreWriter/score_building/code/visu-not-trimed.ly:45:116:117"
     id="a100"
     transform="translate(-4.4186,-3.8452002)">
    <path
       transform="matrix(0.004,0,0,-0.004,23.4478,17.3952)"
       d="m 218,136 c 55,0 108,-28 108,-89 0,-71 -55,-121 -102,-149 -35,-21 -75,-34 -116,-34 -55,0 -108,28 -108,89 0,71 55,121 102,149 35,21 75,34 116,34 z"
       fill="currentColor"
       id="path98" />
  </a>
  <rect
     x="20.203501"
     y="0.049999844"
     width="0.13"
     height="2.3139"
     ry="0.039999999"
     fill="currentColor"
     id="rect102" />
  <rect
     x="19.0292"
     y="16.736099"
     width="0.13"
     height="3.0639"
     ry="0.039999999"
     fill="currentColor"
     id="rect104" />
  <a
     style="color:inherit"
     xlink:href="textedit:///Users/philippeperret/Sites/MusicScoreWriter/score_building/code/visu-not-trimed.ly:45:328:329"
     id="a108"
     transform="translate(-4.4186,-3.8452002)">
    <path
       transform="matrix(0.004,0,0,-0.004,39.6081,21.8952)"
       d="M 72,-250 189,76 C 155,64 120,54 84,54 38,54 -3,87 -3,133 c 0,40 33,72 73,72 25,0 48,-15 56,-39 10,-28 6,-59 35,-59 16,0 54,48 61,63 6,12 23,12 28,0 L 127,-250 c -8,-7 -17,-10 -27,-10 -10,0 -20,3 -28,10 z"
       fill="currentColor"
       id="path106" />
  </a>
  <a
     style="color:inherit"
     xlink:href="textedit:///Users/philippeperret/Sites/MusicScoreWriter/score_building/code/visu-not-trimed.ly:45:212:213"
     id="a112"
     transform="translate(-4.4186,-3.8452002)">
    <path
       transform="matrix(0.004,0,0,-0.004,38.031,16.3952)"
       d="m 218,136 c 55,0 108,-28 108,-89 0,-71 -55,-121 -102,-149 -35,-21 -75,-34 -116,-34 -55,0 -108,28 -108,89 0,71 55,121 102,149 35,21 75,34 116,34 z"
       fill="currentColor"
       id="path110" />
  </a>
  <rect
     x="34.786598"
     y="4.6210999"
     width="0.13"
     height="7.7428002"
     ry="0.039999999"
     fill="currentColor"
     id="rect114" />
  <polygon
     transform="translate(42.0492,6.2399998)"
     stroke-linejoin="round"
     stroke-linecap="round"
     stroke-width="0.08"
     fill="currentColor"
     stroke="currentColor"
     points="0.04,0.2 0.04,-0.2 5.9903,-3.2 5.9903,-2.8 "
     id="polygon116" />
  <polygon
     transform="translate(31.5343,6.2399998)"
     stroke-linejoin="round"
     stroke-linecap="round"
     stroke-width="0.08"
     fill="currentColor"
     stroke="currentColor"
     points="0.04,0.2 0.04,-0.2 6.4965,-3.39 6.4965,-2.99 "
     id="polygon118" />
  <polygon
     transform="translate(31.5343,0.23999984)"
     stroke-linejoin="round"
     stroke-linecap="round"
     stroke-width="0.08"
     fill="currentColor"
     stroke="currentColor"
     points="0.04,0.2 0.04,-0.2 8.1007,0.11 8.1007,0.51 "
     id="polygon120" />
  <polygon
     transform="translate(38.51,1.3156998)"
     stroke-linejoin="round"
     stroke-linecap="round"
     stroke-width="0.08"
     fill="currentColor"
     stroke="currentColor"
     points="0.04,0.2 0.04,-0.2 1.125,-0.1556 1.125,0.2444 "
     id="polygon122" />
  <a
     style="color:inherit"
     xlink:href="textedit:///Users/philippeperret/Sites/MusicScoreWriter/score_building/code/visu-not-trimed.ly:45:268:269"
     id="a128"
     transform="translate(-4.4186,-3.8452002)">
    <text
       transform="translate(49.0391,7.794)"
       font-family="serif"
       font-style="italic"
       font-size="1.7461px"
       text-anchor="start"
       fill="currentColor"
       id="text126"><tspan
         id="tspan124">3</tspan></text>
  </a>
  <a
     style="color:inherit"
     xlink:href="textedit:///Users/philippeperret/Sites/MusicScoreWriter/score_building/code/visu-not-trimed.ly:45:268:269"
     id="a130"
     transform="translate(-4.4186,-3.8452002)" />
  <a
     style="color:inherit"
     xlink:href="textedit:///Users/philippeperret/Sites/MusicScoreWriter/score_building/code/visu-not-trimed.ly:45:194:195"
     id="a136"
     transform="translate(-4.4186,-3.8452002)">
    <text
       transform="translate(38.7773,7.6996)"
       font-family="serif"
       font-style="italic"
       font-size="1.7461px"
       text-anchor="start"
       fill="currentColor"
       id="text134"><tspan
         id="tspan132">3</tspan></text>
  </a>
  <a
     style="color:inherit"
     xlink:href="textedit:///Users/philippeperret/Sites/MusicScoreWriter/score_building/code/visu-not-trimed.ly:45:194:195"
     id="a138"
     transform="translate(-4.4186,-3.8452002)" />
  <polygon
     transform="translate(20.2035,10.05)"
     stroke-linejoin="round"
     stroke-linecap="round"
     stroke-width="0.08"
     fill="currentColor"
     stroke="currentColor"
     points="0.04,0.2 0.04,-0.2 5.0661,-1.2 5.0661,-0.8 "
     id="polygon140" />
  <polygon
     transform="translate(11.0509,10.05)"
     stroke-linejoin="round"
     stroke-linecap="round"
     stroke-width="0.08"
     fill="currentColor"
     stroke="currentColor"
     points="0.04,0.2 0.04,-0.2 5.0661,-1.01 5.0661,-0.61 "
     id="polygon142" />
  <a
     style="color:inherit"
     xlink:href="textedit:///Users/philippeperret/Sites/MusicScoreWriter/score_building/code/visu-not-trimed.ly:45:102:103"
     id="a148"
     transform="translate(-4.4186,-3.8452002)">
    <text
       transform="translate(26.7312,12.6211)"
       font-family="serif"
       font-style="italic"
       font-size="1.7461px"
       text-anchor="start"
       fill="currentColor"
       id="text146"><tspan
         id="tspan144">3</tspan></text>
  </a>
  <a
     style="color:inherit"
     xlink:href="textedit:///Users/philippeperret/Sites/MusicScoreWriter/score_building/code/visu-not-trimed.ly:45:102:103"
     id="a150"
     transform="translate(-4.4186,-3.8452002)" />
  <a
     style="color:inherit"
     xlink:href="textedit:///Users/philippeperret/Sites/MusicScoreWriter/score_building/code/visu-not-trimed.ly:45:12:13"
     id="a156"
     transform="translate(-4.4186,-3.8452002)">
    <text
       transform="translate(17.5787,12.7161)"
       font-family="serif"
       font-style="italic"
       font-size="1.7461px"
       text-anchor="start"
       fill="currentColor"
       id="text154"><tspan
         id="tspan152">3</tspan></text>
  </a>
  <a
     style="color:inherit"
     xlink:href="textedit:///Users/philippeperret/Sites/MusicScoreWriter/score_building/code/visu-not-trimed.ly:35:23:24"
     id="a160"
     transform="translate(-4.4186,-3.8452002)">
    <path
       transform="matrix(0.004,0,0,-0.004,34.7787,6.8952)"
       d="m 218,136 c 55,0 108,-28 108,-89 0,-71 -55,-121 -102,-149 -35,-21 -75,-34 -116,-34 -55,0 -108,28 -108,89 0,71 55,121 102,149 35,21 75,34 116,34 z"
       fill="currentColor"
       id="path158" />
  </a>
  <a
     style="color:inherit"
     xlink:href="textedit:///Users/philippeperret/Sites/MusicScoreWriter/score_building/code/visu-not-trimed.ly:45:324:325"
     id="a164"
     transform="translate(-4.4186,-3.8452002)">
    <path
       transform="matrix(0.004,0,0,-0.004,34.7787,19.8952)"
       d="m 218,136 c 55,0 108,-28 108,-89 0,-71 -55,-121 -102,-149 -35,-21 -75,-34 -116,-34 -55,0 -108,28 -108,89 0,71 55,121 102,149 35,21 75,34 116,34 z"
       fill="currentColor"
       id="path162" />
  </a>
  <a
     style="color:inherit"
     xlink:href="textedit:///Users/philippeperret/Sites/MusicScoreWriter/score_building/code/visu-not-trimed.ly:45:208:209"
     id="a168"
     transform="translate(-4.4186,-3.8452002)">
    <path
       transform="matrix(0.004,0,0,-0.004,34.7787,17.8952)"
       d="m 218,136 c 55,0 108,-28 108,-89 0,-71 -55,-121 -102,-149 -35,-21 -75,-34 -116,-34 -55,0 -108,28 -108,89 0,71 55,121 102,149 35,21 75,34 116,34 z"
       fill="currentColor"
       id="path166" />
  </a>
  <path
     d="m 32.1143,2.5499998 c 0,-0.124 0.1,-0.224 0.224,-0.224 0.124,0 0.224,0.1 0.224,0.224 0,0.124 -0.1,0.224 -0.224,0.224 -0.124,0 -0.224,-0.1 -0.224,-0.224 z"
     fill="currentColor"
     id="path170"
     style="stroke-width:0.004" />
  <rect
     x="31.5343"
     y="0.24249996"
     width="0.13"
     height="2.6214001"
     ry="0.039999999"
     fill="currentColor"
     id="rect172" />
  <path
     d="m 29.7741,4.2979998 c 0,0.04 -0.032,0.076 -0.072,0.076 -0.04,0 -0.076,-0.036 -0.076,-0.076 v -0.58 l -0.332,0.124 v 0.632 c 0,0.04 -0.036,0.076 -0.076,0.076 -0.04,0 -0.072,-0.036 -0.072,-0.076 v -0.58 l -0.128,0.048 c -0.008,0.004 -0.02,0.004 -0.028,0.004 -0.044,0 -0.08,-0.036 -0.08,-0.08 v -0.24 c 0,-0.032 0.02,-0.064 0.052,-0.076 l 0.184,-0.064 v -0.64 l -0.128,0.044 c -0.008,0.004 -0.02,0.004 -0.028,0.004 -0.044,0 -0.08,-0.036 -0.08,-0.08 v -0.24 c 0,-0.032 0.02,-0.06 0.052,-0.072 l 0.184,-0.068 v -0.632 c 0,-0.04 0.032,-0.076 0.072,-0.076 0.04,0 0.076,0.036 0.076,0.076 v 0.58 l 0.332,-0.124 v -0.632 c 0,-0.04 0.036,-0.076 0.076,-0.076 0.04,0 0.072,0.036 0.072,0.076 v 0.58 l 0.128,-0.048 c 0.008,-0.004 0.02,-0.004 0.028,-0.004 0.044,0 0.08,0.036 0.08,0.08 v 0.24 c 0,0.032 -0.02,0.064 -0.052,0.076 l -0.184,0.064 v 0.64 l 0.128,-0.044 c 0.008,-0.004 0.02,-0.004 0.028,-0.004 0.044,0 0.08,0.036 0.08,0.08 v 0.24 c 0,0.032 -0.02,0.06 -0.052,0.072 l -0.184,0.068 z m -0.48,-1.508 v 0.64 l 0.332,-0.12 v -0.64 z"
     fill="currentColor"
     id="path174"
     style="stroke-width:0.004" />
  <rect
     x="30.3601"
     y="16.236099"
     width="0.13"
     height="3.1889"
     ry="0.039999999"
     fill="currentColor"
     id="rect176" />
  <path
     d="m 30.4901,19.385 h -0.064 v -1 h 0.064 z m 0,0 v -1 c 0.388,-0.236 0.896,-0.592 0.896,-1.036 0,-0.228 -0.06,-0.448 -0.16,-0.652 -0.012,-0.064 0.04,-0.108 0.092,-0.108 0.028,0 0.06,0.012 0.08,0.044 0.1,0.224 0.16,0.468 0.16,0.716 0,0.812 -1.068,1.224 -1.068,2.036 z"
     fill="currentColor"
     id="path178"
     style="stroke-width:0.004" />
  <rect
     x="31.5343"
     y="6.2083001"
     width="0.13"
     height="7.6556001"
     ry="0.039999999"
     fill="currentColor"
     id="rect180" />
  <a
     style="color:inherit"
     xlink:href="textedit:///Users/philippeperret/Sites/MusicScoreWriter/score_building/code/visu-not-trimed.ly:45:238:239"
     id="a184"
     transform="translate(-4.4186,-3.8452002)">
    <path
       transform="matrix(0.004,0,0,-0.004,41.1852,10.3952)"
       d="m 218,136 c 55,0 108,-28 108,-89 0,-71 -55,-121 -102,-149 -35,-21 -75,-34 -116,-34 -55,0 -108,28 -108,89 0,71 55,121 102,149 35,21 75,34 116,34 z"
       fill="currentColor"
       id="path182" />
  </a>
  <path
     d="m 10.0067,18.01 h -0.064 v -1 h 0.064 z m 0,0 v -1 c 0.388,-0.236 0.896,-0.592 0.896,-1.036 0,-0.228 -0.06,-0.448 -0.16,-0.652 -0.012,-0.064 0.04,-0.108 0.092,-0.108 0.028,0 0.06,0.012 0.08,0.044 0.1,0.224 0.16,0.468 0.16,0.716 0,0.812 -1.068,1.224 -1.068,2.036 z"
     fill="currentColor"
     id="path186"
     style="stroke-width:0.004" />
  <rect
     x="37.9408"
     y="3.0816998"
     width="0.13"
     height="3.2822001"
     ry="0.039999999"
     fill="currentColor"
     id="rect188" />
  <path
     d="m 36.1806,7.7979998 c 0,0.04 -0.032,0.076 -0.072,0.076 -0.04,0 -0.076,-0.036 -0.076,-0.076 v -0.58 l -0.332,0.124 v 0.632 c 0,0.04 -0.036,0.076 -0.076,0.076 -0.04,0 -0.072,-0.036 -0.072,-0.076 v -0.58 l -0.128,0.048 c -0.008,0.004 -0.02,0.004 -0.028,0.004 -0.044,0 -0.08,-0.036 -0.08,-0.08 v -0.24 c 0,-0.032 0.02,-0.064 0.052,-0.076 l 0.184,-0.064 v -0.64 l -0.128,0.044 c -0.008,0.004 -0.02,0.004 -0.028,0.004 -0.044,0 -0.08,-0.036 -0.08,-0.08 v -0.24 c 0,-0.032 0.02,-0.06 0.052,-0.072 l 0.184,-0.068 v -0.632 c 0,-0.04 0.032,-0.076 0.072,-0.076 0.04,0 0.076,0.036 0.076,0.076 v 0.58 l 0.332,-0.124 v -0.632 c 0,-0.04 0.036,-0.076 0.076,-0.076 0.04,0 0.072,0.036 0.072,0.076 v 0.58 l 0.128,-0.048 c 0.008,-0.004 0.02,-0.004 0.028,-0.004 0.044,0 0.08,0.036 0.08,0.08 v 0.24 c 0,0.032 -0.02,0.064 -0.052,0.076 l -0.184,0.064 v 0.64 l 0.128,-0.044 c 0.008,-0.004 0.02,-0.004 0.028,-0.004 0.044,0 0.08,0.036 0.08,0.08 v 0.24 c 0,0.032 -0.02,0.06 -0.052,0.072 l -0.184,0.068 z m -0.48,-1.508 v 0.64 l 0.332,-0.12 v -0.64 z"
     fill="currentColor"
     id="path190"
     style="stroke-width:0.004" />
  <a
     style="color:inherit"
     xlink:href="textedit:///Users/philippeperret/Sites/MusicScoreWriter/score_building/code/visu-not-trimed.ly:35:29:30"
     id="a194"
     transform="translate(-4.4186,-3.8452002)">
    <path
       transform="matrix(0.004,0,0,-0.004,42.7894,7.3952)"
       d="m 218,136 c 55,0 108,-28 108,-89 0,-71 -55,-121 -102,-149 -35,-21 -75,-34 -116,-34 -55,0 -108,28 -108,89 0,71 55,121 102,149 35,21 75,34 116,34 z"
       fill="currentColor"
       id="path192" />
  </a>
  <rect
     x="39.544998"
     y="0.54749978"
     width="0.13"
     height="2.8164001"
     ry="0.039999999"
     fill="currentColor"
     id="rect196" />
  <a
     style="color:inherit"
     xlink:href="textedit:///Users/philippeperret/Sites/MusicScoreWriter/score_building/code/visu-not-trimed.ly:35:33:34"
     id="a200"
     transform="translate(-4.4186,-3.8452002)">
    <path
       transform="matrix(0.004,0,0,-0.004,45.2936,7.8952)"
       d="m 218,136 c 55,0 108,-28 108,-89 0,-71 -55,-121 -102,-149 -35,-21 -75,-34 -116,-34 -55,0 -108,28 -108,89 0,71 55,121 102,149 35,21 75,34 116,34 z"
       fill="currentColor"
       id="path198" />
  </a>
  <a
     style="color:inherit"
     xlink:href="textedit:///Users/philippeperret/Sites/MusicScoreWriter/score_building/code/visu-not-trimed.ly:45:169:170"
     id="a204"
     transform="translate(-4.4186,-3.8452002)">
    <path
       transform="matrix(0.004,0,0,-0.004,14.2953,18.3952)"
       d="m 218,136 c 55,0 108,-28 108,-89 0,-71 -55,-121 -102,-149 -35,-21 -75,-34 -116,-34 -55,0 -108,28 -108,89 0,71 55,121 102,149 35,21 75,34 116,34 z"
       fill="currentColor"
       id="path202" />
  </a>
  <path
     d="m 0.848,12.822 c 0,1.216 -0.464,2.384 -0.464,3.536 0,0.624 0.144,1.184 0.576,1.648 0.064,0.064 -0.032,0.16 -0.096,0.096 C 0.288,17.478 0.08,16.678 0.08,15.83 0.08,14.598 0.576,13.398 0.576,12.23 0.576,11.622 0.432,11.046 0,10.582 V 10.55 10.518 c 0.432,-0.464 0.576,-1.0400002 0.576,-1.6480002 0,-1.168 -0.496,-2.368 -0.496,-3.6 0,-0.848 0.208,-1.648 0.784,-2.272 0.064,-0.064 0.16,0.032 0.096,0.096 -0.432,0.464 -0.576,1.024 -0.576,1.648 0,1.152 0.464,2.32 0.464,3.536 0,0.848 -0.192,1.648 -0.752,2.2720002 0.56,0.624 0.752,1.424 0.752,2.272 z"
     fill="currentColor"
     id="path206"
     style="stroke-width:0.004" />
  <rect
     x="1.212"
     y="2.9999998"
     width="0.16"
     height="15.1"
     ry="0.050000001"
     fill="currentColor"
     id="rect208" />
  <a
     style="color:inherit"
     xlink:href="textedit:///Users/philippeperret/Sites/MusicScoreWriter/score_building/code/visu-not-trimed.ly:35:15:16"
     id="a212"
     transform="translate(-4.4186,-3.8452002)">
    <path
       transform="matrix(0.004,0,0,-0.004,14.2953,8.8952)"
       d="m 218,136 c 55,0 108,-28 108,-89 0,-71 -55,-121 -102,-149 -35,-21 -75,-34 -116,-34 -55,0 -108,28 -108,89 0,71 55,121 102,149 35,21 75,34 116,34 z"
       fill="currentColor"
       id="path210" />
  </a>
  <path
     d="M 3.136,8.5899998 H 3.112 c -0.432,0 -0.78,-0.352 -0.78,-0.788 0,-0.232 0.212,-0.412 0.448,-0.412 0.216,0 0.38,0.188 0.38,0.412 0,0.208 -0.172,0.38 -0.38,0.38 -0.044,0 -0.084,-0.008 -0.124,-0.024 0.104,0.156 0.272,0.26 0.468,0.26 H 3.14 Z m 0.78,-1.728 c 0.272,-0.096 0.452,-0.38 0.452,-0.656 0,-0.36 -0.264,-0.716 -0.692,-0.76 0.096,0.464 0.184,0.924 0.24,1.416 z m -1.548,-0.924 c 0,0.54 0.516,0.988 1.056,0.988 0.112,0 0.22,-0.008 0.328,-0.024 -0.056,-0.508 -0.148,-0.98 -0.252,-1.456 -0.316,0.032 -0.496,0.244 -0.496,0.476 0,0.176 0.1,0.364 0.324,0.492 0.02,0.02 0.028,0.04 0.028,0.06 0,0.044 -0.04,0.088 -0.088,0.088 -0.012,0 -0.024,-0.004 -0.036,-0.008 -0.32,-0.172 -0.468,-0.46 -0.468,-0.74 0,-0.352 0.232,-0.696 0.64,-0.788 -0.056,-0.232 -0.116,-0.468 -0.184,-0.7 -0.428,0.484 -0.852,0.972 -0.852,1.612 z m 1.044,1.16 c -0.752,0 -1.332,-0.688 -1.332,-1.496 0,-0.708 0.524,-1.224 0.992,-1.764 -0.076,-0.248 -0.148,-0.5 -0.18,-0.76 -0.024,-0.208 -0.028,-0.416 -0.028,-0.624 0,-0.46 0.22,-0.896 0.596,-1.168 0.024,-0.02 0.056,-0.02 0.08,0 0.284,0.336 0.532,0.98 0.532,1.432 0,0.572 -0.344,1.02 -0.72,1.456 0.084,0.272 0.156,0.552 0.224,0.828 0.016,0 0.036,-0.004 0.052,-0.004 0.62,0 1.024,0.512 1.024,1.044 0,0.304 -0.132,0.616 -0.428,0.84 -0.088,0.068 -0.188,0.112 -0.292,0.144 0.012,0.14 0.02,0.28 0.02,0.42 0,0.076 -0.004,0.156 -0.008,0.232 -0.028,0.476 -0.352,0.9 -0.808,0.912 l 0.004,-0.172 c 0.372,-0.008 0.612,-0.368 0.636,-0.764 0.004,-0.072 0.008,-0.148 0.008,-0.22 0,-0.124 -0.004,-0.244 -0.016,-0.368 -0.116,0.02 -0.232,0.032 -0.356,0.032 z m 0.372,-4.712 c 0,-0.22 -0.016,-0.316 -0.08,-0.516 -0.396,0.192 -0.648,0.596 -0.648,1.036 0,0.296 0.072,0.532 0.144,0.776 0.32,-0.388 0.584,-0.792 0.584,-1.296 z"
     fill="currentColor"
     id="path214"
     style="stroke-width:0.004" />
  <a
     style="color:inherit"
     xlink:href="textedit:///Users/philippeperret/Sites/MusicScoreWriter/score_building/code/visu-not-trimed.ly:33:6:7"
     id="a216"
     transform="translate(-4.4186,-3.8452002)" />
  <a
     style="color:inherit"
     xlink:href="textedit:///Users/philippeperret/Sites/MusicScoreWriter/score_building/code/visu-not-trimed.ly:30:6:7"
     id="a222"
     transform="translate(-4.4186,-3.8452002)">
    <path
       transform="matrix(0.004,0,0,-0.004,10.7588,8.8952)"
       d="m 235,355 c 0,60 -18,122 -70,122 -26,0 -51,-14 -51,-37 0,-27 35,-41 35,-68 0,-38 -30,-69 -68,-69 -38,0 -69,31 -69,69 0,76 72,128 153,128 96,0 187,-56 187,-145 0,-153 -151,-159 -249,-220 9,2 17,3 26,3 33,0 70,-11 105,-36 21,-15 46,-23 66,-23 21,0 39,9 44,29 2,6 6,9 11,9 6,0 12,-5 12,-12 0,-1 -1,-2 -1,-3 C 349,37 288,0 229,0 193,0 158,14 133,44 120,60 102,66 85,66 55,66 26,46 23,11 22,4 17,0 12,0 6,0 0,4 0,11 0,186 235,176 235,355 Z"
       fill="currentColor"
       id="path218" />
    <path
       transform="matrix(0.004,0,0,-0.004,10.6906,10.9438)"
       d="m 196,117 h 117 c 0,-48 27,-94 72,-94 8,0 12,-5 12,-11 C 397,6 393,0 385,0 341,0 298,13 254,13 210,13 167,0 123,0 c -8,0 -12,6 -12,12 0,6 4,11 12,11 45,0 73,46 73,94 z m 8,190 c 22,14 44,29 60,50 11,15 19,33 27,50 2,4 5,6 9,6 6,0 13,-5 13,-14 V 154 h 72 c 10,0 15,-7 15,-14 0,-7 -5,-15 -15,-15 h -72 v -8 H 196 v 8 H 29 c -23,0 -31,14 -31,23 0,3 1,5 2,6 80,93 138,207 138,330 0,10 7,19 16,16 23,-7 47,-13 71,-13 24,0 48,6 71,13 14,4 23,-9 17,-16 L 29,154 h 167 v 131 c 0,8 1,17 8,22 z"
       fill="currentColor"
       id="path220" />
  </a>
  <a
     style="color:inherit"
     xlink:href="textedit:///Users/philippeperret/Sites/MusicScoreWriter/score_building/code/visu-not-trimed.ly:45:26:27"
     id="a226"
     transform="translate(-4.4186,-3.8452002)">
    <path
       transform="matrix(0.004,0,0,-0.004,14.2953,17.3952)"
       d="m 218,136 c 55,0 108,-28 108,-89 0,-71 -55,-121 -102,-149 -35,-21 -75,-34 -116,-34 -55,0 -108,28 -108,89 0,71 55,121 102,149 35,21 75,34 116,34 z"
       fill="currentColor"
       id="path224" />
  </a>
  <path
     d="m 4.3,15.55 c 0,-0.112 0.092,-0.204 0.204,-0.204 0.112,0 0.204,0.092 0.204,0.204 0,0.112 -0.092,0.204 -0.204,0.204 C 4.392,15.754 4.3,15.662 4.3,15.55 Z m 0,-1 c 0,-0.112 0.092,-0.204 0.204,-0.204 0.112,0 0.204,0.092 0.204,0.204 0,0.112 -0.092,0.204 -0.204,0.204 C 4.392,14.754 4.3,14.662 4.3,14.55 Z M 3,13.998 c 0.688,0 1.172,0.352 1.172,1.004 0,1.052 -1.052,1.656 -2.064,2.084 -0.012,0.012 -0.024,0.016 -0.036,0.016 -0.028,0 -0.052,-0.024 -0.052,-0.052 0,-0.012 0.004,-0.024 0.016,-0.036 0.808,-0.472 1.648,-1.06 1.648,-1.972 0,-0.48 -0.252,-0.94 -0.684,-0.94 -0.296,0 -0.516,0.216 -0.616,0.504 0.044,-0.02 0.088,-0.032 0.136,-0.032 0.22,0 0.4,0.18 0.4,0.4 0,0.232 -0.176,0.424 -0.4,0.424 -0.24,0 -0.448,-0.188 -0.448,-0.424 0,-0.532 0.408,-0.976 0.928,-0.976 z"
     fill="currentColor"
     id="path228"
     style="stroke-width:0.004" />
  <a
     style="color:inherit"
     xlink:href="textedit:///Users/philippeperret/Sites/MusicScoreWriter/score_building/code/visu-not-trimed.ly:44:6:7"
     id="a230"
     transform="translate(-4.4186,-3.8452002)" />
  <a
     style="color:inherit"
     xlink:href="textedit:///Users/philippeperret/Sites/MusicScoreWriter/score_building/code/visu-not-trimed.ly:41:6:7"
     id="a236"
     transform="translate(-4.4186,-3.8452002)">
    <path
       transform="matrix(0.004,0,0,-0.004,10.7588,19.8952)"
       d="m 235,355 c 0,60 -18,122 -70,122 -26,0 -51,-14 -51,-37 0,-27 35,-41 35,-68 0,-38 -30,-69 -68,-69 -38,0 -69,31 -69,69 0,76 72,128 153,128 96,0 187,-56 187,-145 0,-153 -151,-159 -249,-220 9,2 17,3 26,3 33,0 70,-11 105,-36 21,-15 46,-23 66,-23 21,0 39,9 44,29 2,6 6,9 11,9 6,0 12,-5 12,-12 0,-1 -1,-2 -1,-3 C 349,37 288,0 229,0 193,0 158,14 133,44 120,60 102,66 85,66 55,66 26,46 23,11 22,4 17,0 12,0 6,0 0,4 0,11 0,186 235,176 235,355 Z"
       fill="currentColor"
       id="path232" />
    <path
       transform="matrix(0.004,0,0,-0.004,10.6906,21.9438)"
       d="m 196,117 h 117 c 0,-48 27,-94 72,-94 8,0 12,-5 12,-11 C 397,6 393,0 385,0 341,0 298,13 254,13 210,13 167,0 123,0 c -8,0 -12,6 -12,12 0,6 4,11 12,11 45,0 73,46 73,94 z m 8,190 c 22,14 44,29 60,50 11,15 19,33 27,50 2,4 5,6 9,6 6,0 13,-5 13,-14 V 154 h 72 c 10,0 15,-7 15,-14 0,-7 -5,-15 -15,-15 h -72 v -8 H 196 v 8 H 29 c -23,0 -31,14 -31,23 0,3 1,5 2,6 80,93 138,207 138,330 0,10 7,19 16,16 23,-7 47,-13 71,-13 24,0 48,6 71,13 14,4 23,-9 17,-16 L 29,154 h 167 v 131 c 0,8 1,17 8,22 z"
       fill="currentColor"
       id="path234" />
  </a>
  <rect
     x="11.0509"
     y="1.7166997"
     width="0.13"
     height="3.1472001"
     ry="0.039999999"
     fill="currentColor"
     id="rect238" />
  <rect
     x="11.0509"
     y="10.0397"
     width="0.13"
     height="3.3241999"
     ry="0.039999999"
     fill="currentColor"
     id="rect240" />
  <rect
     x="9.8767004"
     y="14.7361"
     width="0.13"
     height="3.3139"
     ry="0.039999999"
     fill="currentColor"
     id="rect242" />
  <rect
     x="45.051498"
     y="4.7140994"
     width="0.13"
     height="7.6497998"
     ry="0.039999999"
     fill="currentColor"
     id="rect244" />
  <a
     style="color:inherit"
     xlink:href="textedit:///Users/philippeperret/Sites/MusicScoreWriter/score_building/code/visu-not-trimed.ly:45:330:331"
     id="a248"
     transform="translate(-4.4186,-3.8452002)">
    <path
       transform="matrix(0.004,0,0,-0.004,45.2936,18.8952)"
       d="m 218,136 c 55,0 108,-28 108,-89 0,-71 -55,-121 -102,-149 -35,-21 -75,-34 -116,-34 -55,0 -108,28 -108,89 0,71 55,121 102,149 35,21 75,34 116,34 z"
       fill="currentColor"
       id="path246" />
  </a>
  <a
     style="color:inherit"
     xlink:href="textedit:///Users/philippeperret/Sites/MusicScoreWriter/score_building/code/visu-not-trimed.ly:45:334:335"
     id="a252"
     transform="translate(-4.4186,-3.8452002)">
    <path
       transform="matrix(0.004,0,0,-0.004,49.7449,21.8952)"
       d="M 72,-250 189,76 C 155,64 120,54 84,54 38,54 -3,87 -3,133 c 0,40 33,72 73,72 25,0 48,-15 56,-39 10,-28 6,-59 35,-59 16,0 54,48 61,63 6,12 23,12 28,0 L 127,-250 c -8,-7 -17,-10 -27,-10 -10,0 -20,3 -28,10 z"
       fill="currentColor"
       id="path250" />
  </a>
  <a
     style="color:inherit"
     xlink:href="textedit:///Users/philippeperret/Sites/MusicScoreWriter/score_building/code/visu-not-trimed.ly:45:312:313"
     id="a256"
     transform="translate(-4.4186,-3.8452002)">
    <path
       transform="matrix(0.004,0,0,-0.004,51.1939,9.3952)"
       d="m 218,136 c 55,0 108,-28 108,-89 0,-71 -55,-121 -102,-149 -35,-21 -75,-34 -116,-34 -55,0 -108,28 -108,89 0,71 55,121 102,149 35,21 75,34 116,34 z"
       fill="currentColor"
       id="path254" />
  </a>
  <rect
     x="47.949501"
     y="3.2723"
     width="0.13"
     height="2.0915999"
     ry="0.039999999"
     fill="currentColor"
     id="rect258" />
  <a
     style="color:inherit"
     xlink:href="textedit:///Users/philippeperret/Sites/MusicScoreWriter/score_building/code/visu-not-trimed.ly:45:282:283"
     id="a262"
     transform="translate(-4.4186,-3.8452002)">
    <path
       transform="matrix(0.004,0,0,-0.004,45.2936,16.8952)"
       d="m 218,136 c 55,0 108,-28 108,-89 0,-71 -55,-121 -102,-149 -35,-21 -75,-34 -116,-34 -55,0 -108,28 -108,89 0,71 55,121 102,149 35,21 75,34 116,34 z"
       fill="currentColor"
       id="path260" />
  </a>
  <rect
     x="42.049198"
     y="1.0499998"
     width="0.13"
     height="2.8139"
     ry="0.039999999"
     fill="currentColor"
     id="rect264" />
  <rect
     x="40.875"
     y="15.2361"
     width="0.13"
     height="3.3139"
     ry="0.039999999"
     fill="currentColor"
     id="rect266" />
  <a
     style="color:inherit"
     xlink:href="textedit:///Users/philippeperret/Sites/MusicScoreWriter/score_building/code/visu-not-trimed.ly:45:286:287"
     id="a270"
     transform="translate(-4.4186,-3.8452002)">
    <path
       transform="matrix(0.004,0,0,-0.004,48.2958,16.3952)"
       d="m 218,136 c 55,0 108,-28 108,-89 0,-71 -55,-121 -102,-149 -35,-21 -75,-34 -116,-34 -55,0 -108,28 -108,89 0,71 55,121 102,149 35,21 75,34 116,34 z"
       fill="currentColor"
       id="path268" />
  </a>
  <path
     d="m 41.005,18.51 h -0.064 v -1 h 0.064 z m 0,0 v -1 c 0.388,-0.236 0.896,-0.592 0.896,-1.036 0,-0.228 -0.06,-0.448 -0.16,-0.652 -0.012,-0.064 0.04,-0.108 0.092,-0.108 0.028,0 0.06,0.012 0.08,0.044 0.1,0.224 0.16,0.468 0.16,0.716 0,0.812 -1.068,1.224 -1.068,2.036 z"
     fill="currentColor"
     id="path272"
     style="stroke-width:0.004" />
  <rect
     x="42.049198"
     y="6.2076993"
     width="0.13"
     height="6.6561999"
     ry="0.039999999"
     fill="currentColor"
     id="rect274" />
  <path
     d="m 39.6226,16.298 c 0,0.04 -0.032,0.076 -0.072,0.076 -0.04,0 -0.076,-0.036 -0.076,-0.076 v -0.58 l -0.332,0.124 v 0.632 c 0,0.04 -0.036,0.076 -0.076,0.076 -0.04,0 -0.072,-0.036 -0.072,-0.076 v -0.58 l -0.128,0.048 c -0.008,0.004 -0.02,0.004 -0.028,0.004 -0.044,0 -0.08,-0.036 -0.08,-0.08 v -0.24 c 0,-0.032 0.02,-0.064 0.052,-0.076 l 0.184,-0.064 v -0.64 l -0.128,0.044 c -0.008,0.004 -0.02,0.004 -0.028,0.004 -0.044,0 -0.08,-0.036 -0.08,-0.08 v -0.24 c 0,-0.032 0.02,-0.06 0.052,-0.072 l 0.184,-0.068 v -0.632 c 0,-0.04 0.032,-0.076 0.072,-0.076 0.04,0 0.076,0.036 0.076,0.076 v 0.58 l 0.332,-0.124 v -0.632 c 0,-0.04 0.036,-0.076 0.076,-0.076 0.04,0 0.072,0.036 0.072,0.076 v 0.58 l 0.128,-0.048 c 0.008,-0.004 0.02,-0.004 0.028,-0.004 0.044,0 0.08,0.036 0.08,0.08 v 0.24 c 0,0.032 -0.02,0.064 -0.052,0.076 l -0.184,0.064 v 0.64 l 0.128,-0.044 c 0.008,-0.004 0.02,-0.004 0.028,-0.004 0.044,0 0.08,0.036 0.08,0.08 v 0.24 c 0,0.032 -0.02,0.06 -0.052,0.072 l -0.184,0.068 z m -0.48,-1.508 v 0.64 l 0.332,-0.12 v -0.64 z"
     fill="currentColor"
     id="path276"
     style="stroke-width:0.004" />
  <path
     d="m 39.797,11.55 c 0.032,-0.016 0.068,-0.028 0.104,-0.028 0.036,0 0.064,0.012 0.096,0.028 l -0.008,0.732 0.424,-0.08 h 0.012 c 0.04,0 0.072,0.028 0.072,0.068 l 0.028,2.28 c -0.032,0.016 -0.064,0.028 -0.1,0.028 -0.036,0 -0.068,-0.012 -0.1,-0.028 l 0.012,-0.732 -0.424,0.08 h -0.012 c -0.04,0 -0.072,-0.028 -0.072,-0.068 z m 0.556,1.052 -0.368,0.068 -0.012,0.828 0.368,-0.068 z"
     fill="currentColor"
     id="path278"
     style="stroke-width:0.004" />
</svg>
