<?xml version="1.0" encoding="UTF-8" standalone="no"?>
<svg
   version="1.2"
   width="64.89489mm"
   height="44.609657mm"
   viewBox="0 0 36.928777 25.385358"
   id="svg182"
   xmlns:xlink="http://www.w3.org/1999/xlink"
   xmlns="http://www.w3.org/2000/svg"
   xmlns:svg="http://www.w3.org/2000/svg">
  <defs
     id="defs186" />
  <style
     text="style/css"
     id="style2"><![CDATA[
tspan { white-space: pre; }
]]></style>
  <!-- Page: 1/1 -->
  <line
     stroke-linejoin="round"
     stroke-linecap="round"
     stroke-width="0.1"
     stroke="currentColor"
     x1="13.707775"
     y1="5.7789998"
     x2="36.878777"
     y2="5.7789998"
     id="line4" />
  <line
     stroke-linejoin="round"
     stroke-linecap="round"
     stroke-width="0.1"
     stroke="currentColor"
     x1="13.707775"
     y1="4.7789998"
     x2="36.878777"
     y2="4.7789998"
     id="line6" />
  <line
     stroke-linejoin="round"
     stroke-linecap="round"
     stroke-width="0.1"
     stroke="currentColor"
     x1="13.707775"
     y1="3.779"
     x2="36.878777"
     y2="3.779"
     id="line8" />
  <line
     stroke-linejoin="round"
     stroke-linecap="round"
     stroke-width="0.1"
     stroke="currentColor"
     x1="13.707775"
     y1="2.779"
     x2="36.878777"
     y2="2.779"
     id="line10" />
  <line
     stroke-linejoin="round"
     stroke-linecap="round"
     stroke-width="0.1"
     stroke="currentColor"
     x1="13.707775"
     y1="1.779"
     x2="36.878777"
     y2="1.779"
     id="line12" />
  <rect
     x="36.738773"
     y="19.729"
     width="0.19"
     height="4.0500002"
     ry="0.0000"
     fill="currentColor"
     id="rect14" />
  <rect
     x="29.662674"
     y="14.829"
     width="0.19"
     height="4.9499998"
     ry="0.0000"
     fill="currentColor"
     id="rect16" />
  <rect
     x="29.662674"
     y="5.829"
     width="0.19"
     height="4.9499998"
     ry="0.0000"
     fill="currentColor"
     id="rect18" />
  <rect
     x="29.662674"
     y="19.729"
     width="0.19"
     height="4.0500002"
     ry="0.0000"
     fill="currentColor"
     id="rect20" />
  <rect
     x="36.738773"
     y="10.729"
     width="0.19"
     height="4.0999999"
     ry="0.0000"
     fill="currentColor"
     id="rect22" />
  <rect
     x="36.738773"
     y="14.829"
     width="0.19"
     height="4.9499998"
     ry="0.0000"
     fill="currentColor"
     id="rect24" />
  <rect
     x="36.738773"
     y="5.829"
     width="0.19"
     height="4.9499998"
     ry="0.0000"
     fill="currentColor"
     id="rect26" />
  <rect
     x="29.662674"
     y="1.779"
     width="0.19"
     height="4.0500002"
     ry="0.0000"
     fill="currentColor"
     id="rect28" />
  <rect
     x="36.738773"
     y="1.779"
     width="0.19"
     height="4.0500002"
     ry="0.0000"
     fill="currentColor"
     id="rect30" />
  <rect
     x="29.662674"
     y="10.729"
     width="0.19"
     height="4.0999999"
     ry="0.0000"
     fill="currentColor"
     id="rect32" />
  <line
     stroke-linejoin="round"
     stroke-linecap="round"
     stroke-width="0.1"
     stroke="currentColor"
     x1="13.707775"
     y1="23.778999"
     x2="36.878777"
     y2="23.778999"
     id="line34" />
  <line
     stroke-linejoin="round"
     stroke-linecap="round"
     stroke-width="0.1"
     stroke="currentColor"
     x1="13.707775"
     y1="22.778999"
     x2="36.878777"
     y2="22.778999"
     id="line36" />
  <line
     stroke-linejoin="round"
     stroke-linecap="round"
     stroke-width="0.1"
     stroke="currentColor"
     x1="13.707775"
     y1="21.778999"
     x2="36.878777"
     y2="21.778999"
     id="line38" />
  <line
     stroke-linejoin="round"
     stroke-linecap="round"
     stroke-width="0.1"
     stroke="currentColor"
     x1="13.707775"
     y1="20.778999"
     x2="36.878777"
     y2="20.778999"
     id="line40" />
  <line
     stroke-linejoin="round"
     stroke-linecap="round"
     stroke-width="0.1"
     stroke="currentColor"
     x1="13.707775"
     y1="19.778999"
     x2="36.878777"
     y2="19.778999"
     id="line42" />
  <line
     stroke-linejoin="round"
     stroke-linecap="round"
     stroke-width="0.1"
     stroke="currentColor"
     x1="13.707775"
     y1="14.779"
     x2="36.878777"
     y2="14.779"
     id="line44" />
  <line
     stroke-linejoin="round"
     stroke-linecap="round"
     stroke-width="0.1"
     stroke="currentColor"
     x1="13.707775"
     y1="13.779"
     x2="36.878777"
     y2="13.779"
     id="line46" />
  <line
     stroke-linejoin="round"
     stroke-linecap="round"
     stroke-width="0.1"
     stroke="currentColor"
     x1="13.707775"
     y1="12.779"
     x2="36.878777"
     y2="12.779"
     id="line48" />
  <line
     stroke-linejoin="round"
     stroke-linecap="round"
     stroke-width="0.1"
     stroke="currentColor"
     x1="13.707775"
     y1="11.779"
     x2="36.878777"
     y2="11.779"
     id="line50" />
  <line
     stroke-linejoin="round"
     stroke-linecap="round"
     stroke-width="0.1"
     stroke="currentColor"
     x1="13.707775"
     y1="10.779"
     x2="36.878777"
     y2="10.779"
     id="line52" />
  <a
     style="color:inherit"
     xlink:href="textedit:///Users/philippeperret/Sites/MusicScoreWriter/score_building/code/visu-untrimed.ly:60:7:8"
     id="a56"
     transform="translate(7.9671749,-3.8303)">
    <path
       transform="matrix(0.004,0,0,-0.004,18.8597,25.6093)"
       d="m 218,136 c 55,0 108,-28 108,-89 0,-71 -55,-121 -102,-149 -35,-21 -75,-34 -116,-34 -55,0 -108,28 -108,89 0,71 55,121 102,149 35,21 75,34 116,34 z"
       fill="currentColor"
       id="path54" />
  </a>
  <a
     style="color:inherit"
     xlink:href="textedit:///Users/philippeperret/Sites/MusicScoreWriter/score_building/code/visu-untrimed.ly:46:7:8"
     id="a60"
     transform="translate(7.9671749,-3.8303)">
    <path
       transform="matrix(0.004,0,0,-0.004,18.8597,15.1093)"
       d="m 218,136 c 55,0 108,-28 108,-89 0,-71 -55,-121 -102,-149 -35,-21 -75,-34 -116,-34 -55,0 -108,28 -108,89 0,71 55,121 102,149 35,21 75,34 116,34 z"
       fill="currentColor"
       id="path58" />
  </a>
  <a
     style="color:inherit"
     xlink:href="textedit:///Users/philippeperret/Sites/MusicScoreWriter/score_building/code/visu-untrimed.ly:32:7:8"
     id="a64"
     transform="translate(7.9671749,-3.8303)">
    <path
       transform="matrix(0.004,0,0,-0.004,18.8597,7.6093)"
       d="m 218,136 c 55,0 108,-28 108,-89 0,-71 -55,-121 -102,-149 -35,-21 -75,-34 -116,-34 -55,0 -108,28 -108,89 0,71 55,121 102,149 35,21 75,34 116,34 z"
       fill="currentColor"
       id="path62" />
  </a>
  <rect
     x="33.944275"
     y="20.965099"
     width="0.13"
     height="3.3139"
     ry="0.039999999"
     fill="currentColor"
     id="rect66" />
  <rect
     x="30.942076"
     y="3.4651"
     width="0.13"
     height="3.3139"
     ry="0.039999999"
     fill="currentColor"
     id="rect68" />
  <rect
     x="30.942076"
     y="21.465099"
     width="0.13"
     height="3.3139"
     ry="0.039999999"
     fill="currentColor"
     id="rect70" />
  <rect
     x="30.942076"
     y="10.9651"
     width="0.13"
     height="3.3139"
     ry="0.039999999"
     fill="currentColor"
     id="rect72" />
  <rect
     x="26.826876"
     y="3.9651"
     width="0.13"
     height="3.1472001"
     ry="0.039999999"
     fill="currentColor"
     id="rect74" />
  <a
     style="color:inherit"
     xlink:href="textedit:///Users/philippeperret/Sites/MusicScoreWriter/score_building/code/visu-untrimed.ly:60:9:10"
     id="a78"
     transform="translate(7.9671749,-3.8303)">
    <path
       transform="matrix(0.004,0,0,-0.004,22.9749,25.1093)"
       d="m 218,136 c 55,0 108,-28 108,-89 0,-71 -55,-121 -102,-149 -35,-21 -75,-34 -116,-34 -55,0 -108,28 -108,89 0,71 55,121 102,149 35,21 75,34 116,34 z"
       fill="currentColor"
       id="path76" />
  </a>
  <a
     style="color:inherit"
     xlink:href="textedit:///Users/philippeperret/Sites/MusicScoreWriter/score_building/code/visu-untrimed.ly:46:11:12"
     id="a82"
     transform="translate(7.9671749,-3.8303)">
    <path
       transform="matrix(0.004,0,0,-0.004,22.9749,14.6093)"
       d="m 218,136 c 55,0 108,-28 108,-89 0,-71 -55,-121 -102,-149 -35,-21 -75,-34 -116,-34 -55,0 -108,28 -108,89 0,71 55,121 102,149 35,21 75,34 116,34 z"
       fill="currentColor"
       id="path80" />
  </a>
  <a
     style="color:inherit"
     xlink:href="textedit:///Users/philippeperret/Sites/MusicScoreWriter/score_building/code/visu-untrimed.ly:32:9:10"
     id="a86"
     transform="translate(7.9671749,-3.8303)">
    <path
       transform="matrix(0.004,0,0,-0.004,22.9749,7.1093)"
       d="m 218,136 c 55,0 108,-28 108,-89 0,-71 -55,-121 -102,-149 -35,-21 -75,-34 -116,-34 -55,0 -108,28 -108,89 0,71 55,121 102,149 35,21 75,34 116,34 z"
       fill="currentColor"
       id="path84" />
  </a>
  <rect
     x="26.826876"
     y="21.965099"
     width="0.13"
     height="3.1472001"
     ry="0.039999999"
     fill="currentColor"
     id="rect88" />
  <rect
     x="26.826876"
     y="11.4651"
     width="0.13"
     height="3.3139"
     ry="0.039999999"
     fill="currentColor"
     id="rect90" />
  <path
     d="m 15.729775,12.779 c 0,0.132 0.028,0.292 0.18,0.292 0.116,0 0.228,-0.124 0.352,-0.124 0.492,0 0.916,0.356 0.916,0.832 0,0.676 -0.372,1 -1.06,1 -0.332,0 -0.608,-0.244 -0.608,-0.568 0,-0.168 0.136,-0.308 0.304,-0.308 0.168,0 0.304,0.14 0.304,0.308 0,0.156 -0.196,0.148 -0.196,0.304 0,0.092 0.096,0.152 0.196,0.152 0.464,0 0.56,-0.36 0.56,-0.888 0,-0.424 -0.048,-0.72 -0.416,-0.72 -0.288,0 -0.476,0.284 -0.476,0.596 0,0.036 -0.028,0.056 -0.056,0.056 -0.028,0 -0.052,-0.02 -0.052,-0.056 0,-0.304 -0.124,-0.588 -0.336,-0.8 v 1.884 c 0,0.024 -0.016,0.04 -0.04,0.04 h -0.084 c -0.024,0 -0.04,-0.016 -0.04,-0.04 v -3.92 c 0,-0.024 0.016,-0.04 0.04,-0.04 h 0.084 c 0.024,0 0.04,0.016 0.04,0.04 v 1.884 c 0.212,-0.212 0.336,-0.496 0.336,-0.8 0,-0.036 0.024,-0.056 0.052,-0.056 0.028,0 0.056,0.02 0.056,0.056 0,0.312 0.188,0.596 0.476,0.596 0.368,0 0.416,-0.296 0.416,-0.72 0,-0.528 -0.096,-0.888 -0.56,-0.888 -0.1,0 -0.196,0.06 -0.196,0.152 0,0.156 0.196,0.148 0.196,0.304 0,0.168 -0.136,0.308 -0.304,0.308 -0.168,0 -0.304,-0.14 -0.304,-0.308 0,-0.324 0.276,-0.568 0.608,-0.568 0.688,0 1.06,0.324 1.06,1 0,0.476 -0.424,0.832 -0.916,0.832 -0.124,0 -0.236,-0.124 -0.352,-0.124 -0.152,0 -0.18,0.16 -0.18,0.292 z m -0.756,2 h -0.476 c -0.024,0 -0.04,-0.016 -0.04,-0.04 v -3.92 c 0,-0.024 0.016,-0.04 0.04,-0.04 h 0.476 c 0.024,0 0.04,0.016 0.04,0.04 v 3.92 c 0,0.024 -0.016,0.04 -0.04,0.04 z"
     fill="currentColor"
     id="path92"
     style="stroke-width:0.004" />
  <a
     style="color:inherit"
     xlink:href="textedit:///Users/philippeperret/Sites/MusicScoreWriter/score_building/code/visu-untrimed.ly:44:4:5"
     id="a96"
     transform="translate(7.9671749,-3.8303)">
    <path
       transform="matrix(0.004,0,0,-0.004,9.9906,15.1093)"
       d="m 216,-312 c 0,-10 -8,-19 -18,-19 -10,0 -19,9 -19,19 v 145 l -83,-31 v -158 c 0,-10 -9,-19 -19,-19 -10,0 -18,9 -18,19 v 145 l -32,-12 c -2,-1 -5,-1 -7,-1 -11,0 -20,9 -20,20 v 60 c 0,8 5,16 13,19 l 46,16 V 51 L 27,40 C 25,39 22,39 20,39 9,39 0,48 0,59 v 60 c 0,8 5,15 13,18 l 46,17 v 158 c 0,10 8,19 18,19 10,0 19,-9 19,-19 V 167 l 83,31 v 158 c 0,10 9,19 19,19 10,0 18,-9 18,-19 V 211 l 32,12 c 2,1 5,1 7,1 11,0 20,-9 20,-20 v -60 c 0,-8 -5,-16 -13,-19 L 216,109 V -51 l 32,11 c 2,1 5,1 7,1 11,0 20,-9 20,-20 v -60 c 0,-8 -5,-15 -13,-18 l -46,-17 z M 96,65 V -95 l 83,30 V 95 Z"
       fill="currentColor"
       id="path94" />
  </a>
  <a
     style="color:inherit"
     xlink:href="textedit:///Users/philippeperret/Sites/MusicScoreWriter/score_building/code/visu-untrimed.ly:41:4:5"
     id="a102"
     transform="translate(7.9671749,-3.8303)">
    <path
       transform="matrix(0.004,0,0,-0.004,12.3088,16.6093)"
       d="m 235,355 c 0,60 -18,122 -70,122 -26,0 -51,-14 -51,-37 0,-27 35,-41 35,-68 0,-38 -30,-69 -68,-69 -38,0 -69,31 -69,69 0,76 72,128 153,128 96,0 187,-56 187,-145 0,-153 -151,-159 -249,-220 9,2 17,3 26,3 33,0 70,-11 105,-36 21,-15 46,-23 66,-23 21,0 39,9 44,29 2,6 6,9 11,9 6,0 12,-5 12,-12 0,-1 -1,-2 -1,-3 C 349,37 288,0 229,0 193,0 158,14 133,44 120,60 102,66 85,66 55,66 26,46 23,11 22,4 17,0 12,0 6,0 0,4 0,11 0,186 235,176 235,355 Z"
       fill="currentColor"
       id="path98" />
    <path
       transform="matrix(0.004,0,0,-0.004,12.2406,18.6579)"
       d="m 196,117 h 117 c 0,-48 27,-94 72,-94 8,0 12,-5 12,-11 C 397,6 393,0 385,0 341,0 298,13 254,13 210,13 167,0 123,0 c -8,0 -12,6 -12,12 0,6 4,11 12,11 45,0 73,46 73,94 z m 8,190 c 22,14 44,29 60,50 11,15 19,33 27,50 2,4 5,6 9,6 6,0 13,-5 13,-14 V 154 h 72 c 10,0 15,-7 15,-14 0,-7 -5,-15 -15,-15 h -72 v -8 H 196 v 8 H 29 c -23,0 -31,14 -31,23 0,3 1,5 2,6 80,93 138,207 138,330 0,10 7,19 16,16 23,-7 47,-13 71,-13 24,0 48,6 71,13 14,4 23,-9 17,-16 L 29,154 h 167 v 131 c 0,8 1,17 8,22 z"
       fill="currentColor"
       id="path100" />
  </a>
  <a
     style="color:inherit"
     xlink:href="textedit:///Users/philippeperret/Sites/MusicScoreWriter/score_building/code/visu-untrimed.ly:60:5:6"
     id="a106"
     transform="translate(7.9671749,-3.8303)">
    <path
       transform="matrix(0.004,0,0,-0.004,15.8453,26.1093)"
       d="m 218,136 c 55,0 108,-28 108,-89 0,-71 -55,-121 -102,-149 -35,-21 -75,-34 -116,-34 -55,0 -108,28 -108,89 0,71 55,121 102,149 35,21 75,34 116,34 z"
       fill="currentColor"
       id="path104" />
  </a>
  <path
     d="m 16.685775,21.279 c 0,-0.112 0.092,-0.204 0.204,-0.204 0.112,0 0.204,0.092 0.204,0.204 0,0.112 -0.092,0.204 -0.204,0.204 -0.112,0 -0.204,-0.092 -0.204,-0.204 z m 0,-1 c 0,-0.112 0.092,-0.204 0.204,-0.204 0.112,0 0.204,0.092 0.204,0.204 0,0.112 -0.092,0.204 -0.204,0.204 -0.112,0 -0.204,-0.092 -0.204,-0.204 z m -1.3,-0.552 c 0.688,0 1.172,0.352 1.172,1.004 0,1.052 -1.052,1.656 -2.064,2.084 -0.012,0.012 -0.024,0.016 -0.036,0.016 -0.028,0 -0.052,-0.024 -0.052,-0.052 0,-0.012 0.004,-0.024 0.016,-0.036 0.808,-0.472 1.648,-1.06 1.648,-1.972 0,-0.48 -0.252,-0.94 -0.684,-0.94 -0.296,0 -0.516,0.216 -0.616,0.504 0.044,-0.02 0.088,-0.032 0.136,-0.032 0.22,0 0.4,0.18 0.4,0.4 0,0.232 -0.176,0.424 -0.4,0.424 -0.24,0 -0.448,-0.188 -0.448,-0.424 0,-0.532 0.408,-0.976 0.928,-0.976 z"
     fill="currentColor"
     id="path108"
     style="stroke-width:0.004" />
  <a
     style="color:inherit"
     xlink:href="textedit:///Users/philippeperret/Sites/MusicScoreWriter/score_building/code/visu-untrimed.ly:58:4:5"
     id="a112"
     transform="translate(7.9671749,-3.8303)">
    <path
       transform="matrix(0.004,0,0,-0.004,9.9906,24.6093)"
       d="m 216,-312 c 0,-10 -8,-19 -18,-19 -10,0 -19,9 -19,19 v 145 l -83,-31 v -158 c 0,-10 -9,-19 -19,-19 -10,0 -18,9 -18,19 v 145 l -32,-12 c -2,-1 -5,-1 -7,-1 -11,0 -20,9 -20,20 v 60 c 0,8 5,16 13,19 l 46,16 V 51 L 27,40 C 25,39 22,39 20,39 9,39 0,48 0,59 v 60 c 0,8 5,15 13,18 l 46,17 v 158 c 0,10 8,19 18,19 10,0 19,-9 19,-19 V 167 l 83,31 v 158 c 0,10 9,19 19,19 10,0 18,-9 18,-19 V 211 l 32,12 c 2,1 5,1 7,1 11,0 20,-9 20,-20 v -60 c 0,-8 -5,-16 -13,-19 L 216,109 V -51 l 32,11 c 2,1 5,1 7,1 11,0 20,-9 20,-20 v -60 c 0,-8 -5,-15 -13,-18 l -46,-17 z M 96,65 V -95 l 83,30 V 95 Z"
       fill="currentColor"
       id="path110" />
  </a>
  <a
     style="color:inherit"
     xlink:href="textedit:///Users/philippeperret/Sites/MusicScoreWriter/score_building/code/visu-untrimed.ly:55:4:5"
     id="a118"
     transform="translate(7.9671749,-3.8303)">
    <path
       transform="matrix(0.004,0,0,-0.004,12.3088,25.6093)"
       d="m 235,355 c 0,60 -18,122 -70,122 -26,0 -51,-14 -51,-37 0,-27 35,-41 35,-68 0,-38 -30,-69 -68,-69 -38,0 -69,31 -69,69 0,76 72,128 153,128 96,0 187,-56 187,-145 0,-153 -151,-159 -249,-220 9,2 17,3 26,3 33,0 70,-11 105,-36 21,-15 46,-23 66,-23 21,0 39,9 44,29 2,6 6,9 11,9 6,0 12,-5 12,-12 0,-1 -1,-2 -1,-3 C 349,37 288,0 229,0 193,0 158,14 133,44 120,60 102,66 85,66 55,66 26,46 23,11 22,4 17,0 12,0 6,0 0,4 0,11 0,186 235,176 235,355 Z"
       fill="currentColor"
       id="path114" />
    <path
       transform="matrix(0.004,0,0,-0.004,12.2406,27.6579)"
       d="m 196,117 h 117 c 0,-48 27,-94 72,-94 8,0 12,-5 12,-11 C 397,6 393,0 385,0 341,0 298,13 254,13 210,13 167,0 123,0 c -8,0 -12,6 -12,12 0,6 4,11 12,11 45,0 73,46 73,94 z m 8,190 c 22,14 44,29 60,50 11,15 19,33 27,50 2,4 5,6 9,6 6,0 13,-5 13,-14 V 154 h 72 c 10,0 15,-7 15,-14 0,-7 -5,-15 -15,-15 h -72 v -8 H 196 v 8 H 29 c -23,0 -31,14 -31,23 0,3 1,5 2,6 80,93 138,207 138,330 0,10 7,19 16,16 23,-7 47,-13 71,-13 24,0 48,6 71,13 14,4 23,-9 17,-16 L 29,154 h 167 v 131 c 0,8 1,17 8,22 z"
       fill="currentColor"
       id="path116" />
  </a>
  <rect
     x="24.986675"
     y="0.77899998"
     width="0.13"
     height="3.3139"
     ry="0.039999999"
     fill="currentColor"
     id="rect120" />
  <a
     style="color:inherit"
     xlink:href="textedit:///Users/philippeperret/Sites/MusicScoreWriter/score_building/code/visu-untrimed.ly:46:5:6"
     id="a124"
     transform="translate(7.9671749,-3.8303)">
    <path
       transform="matrix(0.004,0,0,-0.004,15.8453,15.6093)"
       d="m 218,136 c 55,0 108,-28 108,-89 0,-71 -55,-121 -102,-149 -35,-21 -75,-34 -116,-34 -55,0 -108,28 -108,89 0,71 55,121 102,149 35,21 75,34 116,34 z"
       fill="currentColor"
       id="path122" />
  </a>
  <rect
     x="23.812475"
     y="11.9651"
     width="0.13"
     height="3.3139"
     ry="0.039999999"
     fill="currentColor"
     id="rect126" />
  <rect
     x="33.944275"
     y="10.4651"
     width="0.13"
     height="3.3139"
     ry="0.039999999"
     fill="currentColor"
     id="rect128" />
  <a
     style="color:inherit"
     xlink:href="textedit:///Users/philippeperret/Sites/MusicScoreWriter/score_building/code/visu-untrimed.ly:27:4:5"
     id="a134"
     transform="translate(7.9671749,-3.8303)">
    <path
       transform="matrix(0.004,0,0,-0.004,12.3088,7.6093)"
       d="m 235,355 c 0,60 -18,122 -70,122 -26,0 -51,-14 -51,-37 0,-27 35,-41 35,-68 0,-38 -30,-69 -68,-69 -38,0 -69,31 -69,69 0,76 72,128 153,128 96,0 187,-56 187,-145 0,-153 -151,-159 -249,-220 9,2 17,3 26,3 33,0 70,-11 105,-36 21,-15 46,-23 66,-23 21,0 39,9 44,29 2,6 6,9 11,9 6,0 12,-5 12,-12 0,-1 -1,-2 -1,-3 C 349,37 288,0 229,0 193,0 158,14 133,44 120,60 102,66 85,66 55,66 26,46 23,11 22,4 17,0 12,0 6,0 0,4 0,11 0,186 235,176 235,355 Z"
       fill="currentColor"
       id="path130" />
    <path
       transform="matrix(0.004,0,0,-0.004,12.2406,9.6579)"
       d="m 196,117 h 117 c 0,-48 27,-94 72,-94 8,0 12,-5 12,-11 C 397,6 393,0 385,0 341,0 298,13 254,13 210,13 167,0 123,0 c -8,0 -12,6 -12,12 0,6 4,11 12,11 45,0 73,46 73,94 z m 8,190 c 22,14 44,29 60,50 11,15 19,33 27,50 2,4 5,6 9,6 6,0 13,-5 13,-14 V 154 h 72 c 10,0 15,-7 15,-14 0,-7 -5,-15 -15,-15 h -72 v -8 H 196 v 8 H 29 c -23,0 -31,14 -31,23 0,3 1,5 2,6 80,93 138,207 138,330 0,10 7,19 16,16 23,-7 47,-13 71,-13 24,0 48,6 71,13 14,4 23,-9 17,-16 L 29,154 h 167 v 131 c 0,8 1,17 8,22 z"
       fill="currentColor"
       id="path132" />
  </a>
  <a
     style="color:inherit"
     xlink:href="textedit:///Users/philippeperret/Sites/MusicScoreWriter/score_building/code/visu-untrimed.ly:30:4:5"
     id="a138"
     transform="translate(7.9671749,-3.8303)">
    <path
       transform="matrix(0.004,0,0,-0.004,9.9906,5.6093)"
       d="m 216,-312 c 0,-10 -8,-19 -18,-19 -10,0 -19,9 -19,19 v 145 l -83,-31 v -158 c 0,-10 -9,-19 -19,-19 -10,0 -18,9 -18,19 v 145 l -32,-12 c -2,-1 -5,-1 -7,-1 -11,0 -20,9 -20,20 v 60 c 0,8 5,16 13,19 l 46,16 V 51 L 27,40 C 25,39 22,39 20,39 9,39 0,48 0,59 v 60 c 0,8 5,15 13,18 l 46,17 v 158 c 0,10 8,19 18,19 10,0 19,-9 19,-19 V 167 l 83,31 v 158 c 0,10 9,19 19,19 10,0 18,-9 18,-19 V 211 l 32,12 c 2,1 5,1 7,1 11,0 20,-9 20,-20 v -60 c 0,-8 -5,-16 -13,-19 L 216,109 V -51 l 32,11 c 2,1 5,1 7,1 11,0 20,-9 20,-20 v -60 c 0,-8 -5,-15 -13,-18 l -46,-17 z M 96,65 V -95 l 83,30 V 95 Z"
       fill="currentColor"
       id="path136" />
  </a>
  <path
     d="m 15.521775,7.319 h -0.024 c -0.432,0 -0.78,-0.352 -0.78,-0.788 0,-0.232 0.212,-0.412 0.448,-0.412 0.216,0 0.38,0.188 0.38,0.412 0,0.208 -0.172,0.38 -0.38,0.38 -0.044,0 -0.084,-0.008 -0.124,-0.024 0.104,0.156 0.272,0.26 0.468,0.26 h 0.016 z m 0.78,-1.728 c 0.272,-0.096 0.452,-0.38 0.452,-0.656 0,-0.36 -0.264,-0.716 -0.692,-0.76 0.096,0.464 0.184,0.924 0.24,1.416 z m -1.548,-0.924 c 0,0.54 0.516,0.988 1.056,0.988 0.112,0 0.22,-0.008 0.328,-0.024 -0.056,-0.508 -0.148,-0.98 -0.252,-1.456 -0.316,0.032 -0.496,0.244 -0.496,0.476 0,0.176 0.1,0.364 0.324,0.492 0.02,0.02 0.028,0.04 0.028,0.06 0,0.044 -0.04,0.088 -0.088,0.088 -0.012,0 -0.024,-0.004 -0.036,-0.008 -0.32,-0.172 -0.468,-0.46 -0.468,-0.74 0,-0.352 0.232,-0.696 0.64,-0.788 -0.056,-0.232 -0.116,-0.468 -0.184,-0.7 -0.428,0.484 -0.852,0.972 -0.852,1.612 z m 1.044,1.16 c -0.752,0 -1.332,-0.688 -1.332,-1.496 0,-0.708 0.524,-1.224 0.992,-1.764 -0.076,-0.248 -0.148,-0.5 -0.18,-0.76 -0.024,-0.208 -0.028,-0.416 -0.028,-0.624 0,-0.46 0.22,-0.896 0.596,-1.168 0.024,-0.02 0.056,-0.02 0.08,0 0.284,0.336 0.532,0.98 0.532,1.432 0,0.572 -0.344,1.02 -0.72,1.456 0.084,0.272 0.156,0.552 0.224,0.828 0.016,0 0.036,-0.004 0.052,-0.004 0.62,0 1.024,0.512 1.024,1.044 0,0.304 -0.132,0.616 -0.428,0.84 -0.088,0.068 -0.188,0.112 -0.292,0.144 0.012,0.14 0.02,0.28 0.02,0.42 0,0.076 -0.004,0.156 -0.008,0.232 -0.028,0.476 -0.352,0.9 -0.808,0.912 l 0.004,-0.172 c 0.372,-0.008 0.612,-0.368 0.636,-0.764 0.004,-0.072 0.008,-0.148 0.008,-0.22 0,-0.124 -0.004,-0.244 -0.016,-0.368 -0.116,0.02 -0.232,0.032 -0.356,0.032 z m 0.372,-4.712 c 0,-0.22 -0.016,-0.316 -0.08,-0.516 -0.396,0.192 -0.648,0.596 -0.648,1.036 0,0.296 0.072,0.532 0.144,0.776 0.32,-0.388 0.584,-0.792 0.584,-1.296 z"
     fill="currentColor"
     id="path140"
     style="stroke-width:0.004" />
  <a
     style="color:inherit"
     xlink:href="textedit:///Users/philippeperret/Sites/MusicScoreWriter/score_building/code/visu-untrimed.ly:32:5:6"
     id="a144"
     transform="translate(7.9671749,-3.8303)">
    <path
       transform="matrix(0.004,0,0,-0.004,15.8453,8.1093)"
       d="m 218,136 c 55,0 108,-28 108,-89 0,-71 -55,-121 -102,-149 -35,-21 -75,-34 -116,-34 -55,0 -108,28 -108,89 0,71 55,121 102,149 35,21 75,34 116,34 z"
       fill="currentColor"
       id="path142" />
  </a>
  <rect
     x="13.597775"
     y="1.7289999"
     width="0.16"
     height="22.1"
     ry="0.050000001"
     fill="currentColor"
     id="rect146" />
  <path
     d="M 12.347775,1.728 V 1.38 c 0,-0.056 0.044,-0.1 0.1,-0.1 h 0.2 c 0.636,0 1.084,-0.544 1.448,-1.08 0.044,-0.068 0.148,0.004 0.104,0.072 -0.396,0.576 -0.86,1.456 -1.552,1.456 z"
     fill="currentColor"
     id="path148"
     style="stroke-width:0.004" />
  <path
     d="m 12.347775,23.83 h 0.3 c 0.692,0 1.156,0.88 1.552,1.456 0.044,0.068 -0.06,0.14 -0.104,0.072 -0.364,-0.536 -0.812,-1.08 -1.448,-1.08 h -0.2 c -0.056,0 -0.1,-0.044 -0.1,-0.1 z"
     fill="currentColor"
     id="path150"
     style="stroke-width:0.004" />
  <rect
     x="12.347775"
     y="1.6839998"
     width="0.44999999"
     height="22.190001"
     ry="0.0000"
     fill="currentColor"
     id="rect152" />
  <text
     font-family="serif"
     font-size="2.2001px"
     text-anchor="start"
     fill="currentColor"
     id="text156"
     x="1.0901749"
     y="22.5301"><tspan
       id="tspan154">Main droite </tspan></text>
  <text
     font-family="serif"
     font-size="2.2001px"
     text-anchor="start"
     fill="currentColor"
     id="text160"
     x="0.81697488"
     y="13.5301"><tspan
       id="tspan158">Deux mains </tspan></text>
  <text
     font-family="serif"
     font-size="2.2001px"
     text-anchor="start"
     fill="currentColor"
     id="text164"
     x="-0.036525097"
     y="4.3081999"><tspan
       id="tspan162">Main gauche </tspan></text>
  <a
     style="color:inherit"
     xlink:href="textedit:///Users/philippeperret/Sites/MusicScoreWriter/score_building/code/visu-untrimed.ly:32:11:12"
     id="a168"
     transform="translate(7.9671749,-3.8303)">
    <path
       transform="matrix(0.004,0,0,-0.004,25.9771,6.6093)"
       d="m 218,136 c 55,0 108,-28 108,-89 0,-71 -55,-121 -102,-149 -35,-21 -75,-34 -116,-34 -55,0 -108,28 -108,89 0,71 55,121 102,149 35,21 75,34 116,34 z"
       fill="currentColor"
       id="path166" />
  </a>
  <a
     style="color:inherit"
     xlink:href="textedit:///Users/philippeperret/Sites/MusicScoreWriter/score_building/code/visu-untrimed.ly:46:13:14"
     id="a172"
     transform="translate(7.9671749,-3.8303)">
    <path
       transform="matrix(0.004,0,0,-0.004,25.9771,14.1093)"
       d="m 218,136 c 55,0 108,-28 108,-89 0,-71 -55,-121 -102,-149 -35,-21 -75,-34 -116,-34 -55,0 -108,28 -108,89 0,71 55,121 102,149 35,21 75,34 116,34 z"
       fill="currentColor"
       id="path170" />
  </a>
  <a
     style="color:inherit"
     xlink:href="textedit:///Users/philippeperret/Sites/MusicScoreWriter/score_building/code/visu-untrimed.ly:60:11:12"
     id="a176"
     transform="translate(7.9671749,-3.8303)">
    <path
       transform="matrix(0.004,0,0,-0.004,25.9771,24.6093)"
       d="m 218,136 c 55,0 108,-28 108,-89 0,-71 -55,-121 -102,-149 -35,-21 -75,-34 -116,-34 -55,0 -108,28 -108,89 0,71 55,121 102,149 35,21 75,34 116,34 z"
       fill="currentColor"
       id="path174" />
  </a>
  <rect
     x="33.944275"
     y="2.9651"
     width="0.13"
     height="3.3139"
     ry="0.039999999"
     fill="currentColor"
     id="rect178" />
  <rect
     x="24.986675"
     y="18.778999"
     width="0.13"
     height="3.3139"
     ry="0.039999999"
     fill="currentColor"
     id="rect180" />
</svg>
