<?xml version="1.0" encoding="UTF-8" standalone="no"?>
<svg
   version="1.2"
   width="94.844398mm"
   height="33.84153mm"
   viewBox="0 0 53.971702 19.257699"
   id="svg280"
   xmlns:xlink="http://www.w3.org/1999/xlink"
   xmlns="http://www.w3.org/2000/svg"
   xmlns:svg="http://www.w3.org/2000/svg">
  <defs
     id="defs284" />
  <style
     text="style/css"
     id="style2"><![CDATA[
tspan { white-space: pre; }
]]></style>
  <!-- Page: 1/1 -->
  <line
     stroke-linejoin="round"
     stroke-linecap="round"
     stroke-width="0.1"
     stroke="currentColor"
     x1="1.322"
     y1="7.0499997"
     x2="53.9217"
     y2="7.0499997"
     id="line4" />
  <line
     stroke-linejoin="round"
     stroke-linecap="round"
     stroke-width="0.1"
     stroke="currentColor"
     x1="1.322"
     y1="6.0499997"
     x2="53.9217"
     y2="6.0499997"
     id="line6" />
  <line
     stroke-linejoin="round"
     stroke-linecap="round"
     stroke-width="0.1"
     stroke="currentColor"
     x1="1.322"
     y1="5.0499997"
     x2="53.9217"
     y2="5.0499997"
     id="line8" />
  <line
     stroke-linejoin="round"
     stroke-linecap="round"
     stroke-width="0.1"
     stroke="currentColor"
     x1="1.322"
     y1="4.0499997"
     x2="53.9217"
     y2="4.0499997"
     id="line10" />
  <line
     stroke-linejoin="round"
     stroke-linecap="round"
     stroke-width="0.1"
     stroke="currentColor"
     x1="1.322"
     y1="3.05"
     x2="53.9217"
     y2="3.05"
     id="line12" />
  <rect
     x="43.627998"
     y="7.9499998"
     width="1.8199"
     height="0.2"
     ry="0.1"
     fill="currentColor"
     id="rect14" />
  <rect
     x="32.857101"
     y="7.9499998"
     width="1.9563"
     height="0.2"
     ry="0.1"
     fill="currentColor"
     id="rect16" />
  <rect
     x="32.857101"
     y="8.9499998"
     width="1.9563"
     height="0.2"
     ry="0.1"
     fill="currentColor"
     id="rect18" />
  <rect
     x="21.412199"
     y="7.9499998"
     width="1.9563"
     height="0.2"
     ry="0.1"
     fill="currentColor"
     id="rect20" />
  <rect
     x="21.5632"
     y="8.9499998"
     width="1.8053"
     height="0.2"
     ry="0.1"
     fill="currentColor"
     id="rect22" />
  <rect
     x="11.1007"
     y="7.9499998"
     width="1.9563"
     height="0.2"
     ry="0.1"
     fill="currentColor"
     id="rect24" />
  <rect
     x="11.1007"
     y="8.9499998"
     width="1.9563"
     height="0.2"
     ry="0.1"
     fill="currentColor"
     id="rect26" />
  <line
     stroke-linejoin="round"
     stroke-linecap="round"
     stroke-width="0.1"
     stroke="currentColor"
     x1="1.322"
     y1="17.8827"
     x2="53.9217"
     y2="17.8827"
     id="line28" />
  <line
     stroke-linejoin="round"
     stroke-linecap="round"
     stroke-width="0.1"
     stroke="currentColor"
     x1="1.322"
     y1="16.8827"
     x2="53.9217"
     y2="16.8827"
     id="line30" />
  <line
     stroke-linejoin="round"
     stroke-linecap="round"
     stroke-width="0.1"
     stroke="currentColor"
     x1="1.322"
     y1="15.8827"
     x2="53.9217"
     y2="15.8827"
     id="line32" />
  <line
     stroke-linejoin="round"
     stroke-linecap="round"
     stroke-width="0.1"
     stroke="currentColor"
     x1="1.322"
     y1="14.8827"
     x2="53.9217"
     y2="14.8827"
     id="line34" />
  <line
     stroke-linejoin="round"
     stroke-linecap="round"
     stroke-width="0.1"
     stroke="currentColor"
     x1="1.322"
     y1="13.8827"
     x2="53.9217"
     y2="13.8827"
     id="line36" />
  <rect
     x="53.7817"
     y="7.1000996"
     width="0.19"
     height="6.7827001"
     ry="0.0000"
     fill="currentColor"
     id="rect38" />
  <rect
     x="53.7817"
     y="13.8327"
     width="0.19"
     height="4.0500002"
     ry="0.0000"
     fill="currentColor"
     id="rect40" />
  <rect
     x="31.988001"
     y="7.1000996"
     width="0.19"
     height="6.7827001"
     ry="0.0000"
     fill="currentColor"
     id="rect42" />
  <rect
     x="31.988001"
     y="13.8327"
     width="0.19"
     height="4.0500002"
     ry="0.0000"
     fill="currentColor"
     id="rect44" />
  <rect
     x="31.988001"
     y="3.05"
     width="0.19"
     height="4.0500002"
     ry="0.0000"
     fill="currentColor"
     id="rect46" />
  <rect
     x="53.7817"
     y="3.05"
     width="0.19"
     height="4.0500002"
     ry="0.0000"
     fill="currentColor"
     id="rect48" />
  <rect
     x="22.912399"
     y="12.8827"
     width="0.13"
     height="3.3139"
     ry="0.039999999"
     fill="currentColor"
     id="rect50" />
  <path
     d="m 20.6962,9.3859998 -0.004,0.264 v 0.044 c 0,0.088 0.004,0.176 0.016,0.264 0.18,-0.152 0.372,-0.32 0.372,-0.556 0,-0.132 -0.056,-0.268 -0.172,-0.268 -0.124,0 -0.208,0.12 -0.212,0.252 z M 20.5282,10.102 20.4802,7.7219998 c 0.032,-0.02 0.072,-0.032 0.108,-0.032 0.036,0 0.076,0.012 0.108,0.032 l -0.028,1.38 c 0.1,-0.084 0.232,-0.136 0.364,-0.136 0.208,0 0.356,0.192 0.356,0.408 0,0.32 -0.344,0.468 -0.588,0.6760002 -0.06,0.052 -0.096,0.152 -0.18,0.152 -0.052,0 -0.092,-0.044 -0.092,-0.1 z"
     fill="currentColor"
     id="path52"
     style="stroke-width:0.004" />
  <rect
     x="21.738199"
     y="9.7361002"
     width="0.13"
     height="2.1055"
     ry="0.039999999"
     fill="currentColor"
     id="rect54" />
  <path
     d="m 23.0424,12.9227 v 1 h -0.064 v -1 z m 0,0 c 0,0.788 0.828,1.344 0.828,2.132 0,0.284 -0.06,0.564 -0.164,0.828 -0.02,0.032 -0.052,0.048 -0.08,0.048 -0.052,0 -0.104,-0.044 -0.092,-0.108 0.104,-0.244 0.168,-0.504 0.168,-0.768 0,-0.412 -0.376,-0.832 -0.66,-1.132 z"
     fill="currentColor"
     id="path56"
     style="stroke-width:0.004" />
  <path
     d="m 21.1522,17.6307 c 0,0.04 -0.032,0.076 -0.072,0.076 -0.04,0 -0.076,-0.036 -0.076,-0.076 v -0.58 l -0.332,0.124 v 0.632 c 0,0.04 -0.036,0.076 -0.076,0.076 -0.04,0 -0.072,-0.036 -0.072,-0.076 v -0.58 l -0.128,0.048 c -0.008,0.004 -0.02,0.004 -0.028,0.004 -0.044,0 -0.08,-0.036 -0.08,-0.08 v -0.24 c 0,-0.032 0.02,-0.064 0.052,-0.076 l 0.184,-0.064 v -0.64 l -0.128,0.044 c -0.008,0.004 -0.02,0.004 -0.028,0.004 -0.044,0 -0.08,-0.036 -0.08,-0.08 v -0.24 c 0,-0.032 0.02,-0.06 0.052,-0.072 l 0.184,-0.068 v -0.632 c 0,-0.04 0.032,-0.076 0.072,-0.076 0.04,0 0.076,0.036 0.076,0.076 v 0.58 l 0.332,-0.124 v -0.632 c 0,-0.04 0.036,-0.076 0.076,-0.076 0.04,0 0.072,0.036 0.072,0.076 v 0.58 l 0.128,-0.048 c 0.008,-0.004 0.02,-0.004 0.028,-0.004 0.044,0 0.08,0.036 0.08,0.08 v 0.24 c 0,0.032 -0.02,0.064 -0.052,0.076 l -0.184,0.064 v 0.64 l 0.128,-0.044 c 0.008,-0.004 0.02,-0.004 0.028,-0.004 0.044,0 0.08,0.036 0.08,0.08 v 0.24 c 0,0.032 -0.02,0.06 -0.052,0.072 l -0.184,0.068 z m -0.48,-1.508 v 0.64 l 0.332,-0.12 v -0.64 z"
     fill="currentColor"
     id="path58"
     style="stroke-width:0.004" />
  <a
     style="color:inherit"
     xlink:href="textedit:///Users/philippeperret/Sites/MusicScoreWriter/score_building/code/visu-untrimed.ly:32:82:83"
     id="a62"
     transform="translate(-4.4186,-3.8452002)">
    <path
       transform="matrix(0.004,0,0,-0.004,29.7954,10.8952)"
       d="m 218,136 c 55,0 108,-28 108,-89 0,-71 -55,-121 -102,-149 -35,-21 -75,-34 -116,-34 -55,0 -108,28 -108,89 0,71 55,121 102,149 35,21 75,34 116,34 z"
       fill="currentColor"
       id="path60" />
  </a>
  <rect
     x="25.376801"
     y="7.2360997"
     width="0.13"
     height="3.5737"
     ry="0.039999999"
     fill="currentColor"
     id="rect64" />
  <a
     style="color:inherit"
     xlink:href="textedit:///Users/philippeperret/Sites/MusicScoreWriter/score_building/code/visu-untrimed.ly:42:18:19"
     id="a68"
     transform="translate(-4.4186,-3.8452002)">
    <path
       transform="matrix(0.004,0,0,-0.004,31.4375,19.7279)"
       d="M 72,-250 189,76 C 155,64 120,54 84,54 38,54 -3,87 -3,133 c 0,40 33,72 73,72 25,0 48,-15 56,-39 10,-28 6,-59 35,-59 16,0 54,48 61,63 6,12 23,12 28,0 L 127,-250 c -8,-7 -17,-10 -27,-10 -10,0 -20,3 -28,10 z"
       fill="currentColor"
       id="path66" />
  </a>
  <a
     style="color:inherit"
     xlink:href="textedit:///Users/philippeperret/Sites/MusicScoreWriter/score_building/code/visu-untrimed.ly:32:36:37"
     id="a70"
     transform="translate(-4.4186,-3.8452002)" />
  <a
     style="color:inherit"
     xlink:href="textedit:///Users/philippeperret/Sites/MusicScoreWriter/score_building/code/visu-untrimed.ly:32:55:56"
     id="a74"
     transform="translate(-4.4186,-3.8452002)">
    <path
       transform="matrix(0.004,0,0,-0.004,19.4839,11.3952)"
       d="m 218,136 c 55,0 108,-28 108,-89 0,-71 -55,-121 -102,-149 -35,-21 -75,-34 -116,-34 -55,0 -108,28 -108,89 0,71 55,121 102,149 35,21 75,34 116,34 z"
       fill="currentColor"
       id="path72" />
  </a>
  <rect
     x="15.0653"
     y="7.7360997"
     width="0.13"
     height="3.0737"
     ry="0.039999999"
     fill="currentColor"
     id="rect76" />
  <a
     style="color:inherit"
     xlink:href="textedit:///Users/philippeperret/Sites/MusicScoreWriter/score_building/code/visu-untrimed.ly:42:11:12"
     id="a80"
     transform="translate(-4.4186,-3.8452002)">
    <path
       transform="matrix(0.004,0,0,-0.004,21.126,19.7279)"
       d="M 72,-250 189,76 C 155,64 120,54 84,54 38,54 -3,87 -3,133 c 0,40 33,72 73,72 25,0 48,-15 56,-39 10,-28 6,-59 35,-59 16,0 54,48 61,63 6,12 23,12 28,0 L 127,-250 c -8,-7 -17,-10 -27,-10 -10,0 -20,3 -28,10 z"
       fill="currentColor"
       id="path78" />
  </a>
  <a
     style="color:inherit"
     xlink:href="textedit:///Users/philippeperret/Sites/MusicScoreWriter/score_building/code/visu-untrimed.ly:32:58:59"
     id="a84"
     transform="translate(-4.4186,-3.8452002)">
    <path
       transform="matrix(0.004,0,0,-0.004,22.7682,9.8952)"
       d="m 218,136 c 55,0 108,-28 108,-89 0,-71 -55,-121 -102,-149 -35,-21 -75,-34 -116,-34 -55,0 -108,28 -108,89 0,71 55,121 102,149 35,21 75,34 116,34 z"
       fill="currentColor"
       id="path82" />
  </a>
  <rect
     x="18.3496"
     y="6.2360997"
     width="0.13"
     height="3.6422999"
     ry="0.039999999"
     fill="currentColor"
     id="rect86" />
  <a
     style="color:inherit"
     xlink:href="textedit:///Users/philippeperret/Sites/MusicScoreWriter/score_building/code/visu-untrimed.ly:32:16:17"
     id="a90"
     transform="translate(-4.4186,-3.8452002)">
    <path
       transform="matrix(0.004,0,0,-0.004,26.1568,6.3952)"
       d="m 218,136 c 55,0 108,-28 108,-89 0,-71 -55,-121 -102,-149 -35,-21 -75,-34 -116,-34 -55,0 -108,28 -108,89 0,71 55,121 102,149 35,21 75,34 116,34 z"
       fill="currentColor"
       id="path88" />
  </a>
  <a
     style="color:inherit"
     xlink:href="textedit:///Users/philippeperret/Sites/MusicScoreWriter/score_building/code/visu-untrimed.ly:32:76:77"
     id="a94"
     transform="translate(-4.4186,-3.8452002)">
    <path
       transform="matrix(0.004,0,0,-0.004,26.1568,13.3952)"
       d="m 218,136 c 55,0 108,-28 108,-89 0,-71 -55,-121 -102,-149 -35,-21 -75,-34 -116,-34 -55,0 -108,28 -108,89 0,71 55,121 102,149 35,21 75,34 116,34 z"
       fill="currentColor"
       id="path92" />
  </a>
  <a
     style="color:inherit"
     xlink:href="textedit:///Users/philippeperret/Sites/MusicScoreWriter/score_building/code/visu-untrimed.ly:42:13:14"
     id="a98"
     transform="translate(-4.4186,-3.8452002)">
    <path
       transform="matrix(0.004,0,0,-0.004,26.1568,20.2279)"
       d="m 218,136 c 55,0 108,-28 108,-89 0,-71 -55,-121 -102,-149 -35,-21 -75,-34 -116,-34 -55,0 -108,28 -108,89 0,71 55,121 102,149 35,21 75,34 116,34 z"
       fill="currentColor"
       id="path96" />
  </a>
  <rect
     x="22.912399"
     y="0.049999837"
     width="0.13"
     height="2.3139"
     ry="0.039999999"
     fill="currentColor"
     id="rect100" />
  <path
     d="m 33.3131,19.2177 h -0.064 v -1 h 0.064 z m 0,0 v -1 c 0.388,-0.236 0.896,-0.592 0.896,-1.036 0,-0.228 -0.06,-0.448 -0.16,-0.652 -0.012,-0.064 0.04,-0.108 0.092,-0.108 0.028,0 0.06,0.012 0.08,0.044 0.1,0.224 0.16,0.468 0.16,0.716 0,0.812 -1.068,1.224 -1.068,2.036 z"
     fill="currentColor"
     id="path102"
     style="stroke-width:0.004" />
  <a
     style="color:inherit"
     xlink:href="textedit:///Users/philippeperret/Sites/MusicScoreWriter/score_building/code/visu-untrimed.ly:32:140:141"
     id="a106"
     transform="translate(-4.4186,-3.8452002)">
    <path
       transform="matrix(0.004,0,0,-0.004,41.2402,11.3952)"
       d="m 218,136 c 55,0 108,-28 108,-89 0,-71 -55,-121 -102,-149 -35,-21 -75,-34 -116,-34 -55,0 -108,28 -108,89 0,71 55,121 102,149 35,21 75,34 116,34 z"
       fill="currentColor"
       id="path104" />
  </a>
  <rect
     x="36.821602"
     y="7.7360997"
     width="0.13"
     height="3.0262001"
     ry="0.039999999"
     fill="currentColor"
     id="rect108" />
  <polygon
     transform="translate(43.8176,10.55)"
     stroke-linejoin="round"
     stroke-linecap="round"
     stroke-width="0.08"
     fill="currentColor"
     stroke="currentColor"
     points="0.04,0.2 0.04,-0.2 6.7629,-1.51 6.7629,-1.11 "
     id="polygon110" />
  <polygon
     transform="translate(33.1831,11.55)"
     stroke-linejoin="round"
     stroke-linecap="round"
     stroke-width="0.08"
     fill="currentColor"
     stroke="currentColor"
     points="0.04,0.2 0.04,-0.2 7.0129,-1.7 7.0129,-1.3 "
     id="polygon112" />
  <polygon
     transform="translate(34.3573,0.23999984)"
     stroke-linejoin="round"
     stroke-linecap="round"
     stroke-width="0.08"
     fill="currentColor"
     stroke="currentColor"
     points="0.04,0.2 0.04,-0.2 7.834,0.11 7.834,0.51 "
     id="polygon114" />
  <polygon
     transform="translate(41.0663,1.3141998)"
     stroke-linejoin="round"
     stroke-linecap="round"
     stroke-width="0.08"
     fill="currentColor"
     stroke="currentColor"
     points="0.04,0.2 0.04,-0.2 1.125,-0.1541 1.125,0.2459 "
     id="polygon116" />
  <a
     style="color:inherit"
     xlink:href="textedit:///Users/philippeperret/Sites/MusicScoreWriter/score_building/code/visu-untrimed.ly:32:148:149"
     id="a122"
     transform="translate(-4.4186,-3.8452002)">
    <text
       transform="translate(51.1938,15.673)"
       font-family="serif"
       font-style="italic"
       font-size="1.7461px"
       text-anchor="start"
       fill="currentColor"
       id="text120"><tspan
         id="tspan118">3</tspan></text>
  </a>
  <a
     style="color:inherit"
     xlink:href="textedit:///Users/philippeperret/Sites/MusicScoreWriter/score_building/code/visu-untrimed.ly:32:148:149"
     id="a124"
     transform="translate(-4.4186,-3.8452002)" />
  <a
     style="color:inherit"
     xlink:href="textedit:///Users/philippeperret/Sites/MusicScoreWriter/score_building/code/visu-untrimed.ly:32:122:123"
     id="a130"
     transform="translate(-4.4186,-3.8452002)">
    <text
       transform="translate(40.6843,16.5792)"
       font-family="serif"
       font-style="italic"
       font-size="1.7461px"
       text-anchor="start"
       fill="currentColor"
       id="text128"><tspan
         id="tspan126">3</tspan></text>
  </a>
  <a
     style="color:inherit"
     xlink:href="textedit:///Users/philippeperret/Sites/MusicScoreWriter/score_building/code/visu-untrimed.ly:32:122:123"
     id="a132"
     transform="translate(-4.4186,-3.8452002)" />
  <polygon
     transform="translate(21.7382,11.86)"
     stroke-linejoin="round"
     stroke-linecap="round"
     stroke-width="0.08"
     fill="currentColor"
     stroke="currentColor"
     points="0.04,0.2 0.04,-0.2 7.0129,-2.2 7.0129,-1.8 "
     id="polygon134" />
  <polygon
     transform="translate(11.4267,11.86)"
     stroke-linejoin="round"
     stroke-linecap="round"
     stroke-width="0.08"
     fill="currentColor"
     stroke="currentColor"
     points="0.04,0.2 0.04,-0.2 7.0129,-2.2 7.0129,-1.8 "
     id="polygon136" />
  <a
     style="color:inherit"
     xlink:href="textedit:///Users/philippeperret/Sites/MusicScoreWriter/score_building/code/visu-untrimed.ly:32:62:63"
     id="a142"
     transform="translate(-4.4186,-3.8452002)">
    <text
       transform="translate(29.2394,16.6438)"
       font-family="serif"
       font-style="italic"
       font-size="1.7461px"
       text-anchor="start"
       fill="currentColor"
       id="text140"><tspan
         id="tspan138">3</tspan></text>
  </a>
  <a
     style="color:inherit"
     xlink:href="textedit:///Users/philippeperret/Sites/MusicScoreWriter/score_building/code/visu-untrimed.ly:32:62:63"
     id="a144"
     transform="translate(-4.4186,-3.8452002)" />
  <a
     style="color:inherit"
     xlink:href="textedit:///Users/philippeperret/Sites/MusicScoreWriter/score_building/code/visu-untrimed.ly:32:36:37"
     id="a150"
     transform="translate(-4.4186,-3.8452002)">
    <text
       transform="translate(18.9279,16.6438)"
       font-family="serif"
       font-style="italic"
       font-size="1.7461px"
       text-anchor="start"
       fill="currentColor"
       id="text148"><tspan
         id="tspan146">3</tspan></text>
  </a>
  <a
     style="color:inherit"
     xlink:href="textedit:///Users/philippeperret/Sites/MusicScoreWriter/score_building/code/visu-untrimed.ly:32:85:86"
     id="a154"
     transform="translate(-4.4186,-3.8452002)">
    <path
       transform="matrix(0.004,0,0,-0.004,33.0797,9.8952)"
       d="m 218,136 c 55,0 108,-28 108,-89 0,-71 -55,-121 -102,-149 -35,-21 -75,-34 -116,-34 -55,0 -108,28 -108,89 0,71 55,121 102,149 35,21 75,34 116,34 z"
       fill="currentColor"
       id="path152" />
  </a>
  <rect
     x="28.6611"
     y="6.2360997"
     width="0.13"
     height="3.6422999"
     ry="0.039999999"
     fill="currentColor"
     id="rect156" />
  <a
     style="color:inherit"
     xlink:href="textedit:///Users/philippeperret/Sites/MusicScoreWriter/score_building/code/visu-untrimed.ly:32:101:102"
     id="a160"
     transform="translate(-4.4186,-3.8452002)">
    <path
       transform="matrix(0.004,0,0,-0.004,37.6017,6.8952)"
       d="m 218,136 c 55,0 108,-28 108,-89 0,-71 -55,-121 -102,-149 -35,-21 -75,-34 -116,-34 -55,0 -108,28 -108,89 0,71 55,121 102,149 35,21 75,34 116,34 z"
       fill="currentColor"
       id="path158" />
  </a>
  <a
     style="color:inherit"
     xlink:href="textedit:///Users/philippeperret/Sites/MusicScoreWriter/score_building/code/visu-untrimed.ly:32:136:137"
     id="a164"
     transform="translate(-4.4186,-3.8452002)">
    <path
       transform="matrix(0.004,0,0,-0.004,37.6017,12.8952)"
       d="m 218,136 c 55,0 108,-28 108,-89 0,-71 -55,-121 -102,-149 -35,-21 -75,-34 -116,-34 -55,0 -108,28 -108,89 0,71 55,121 102,149 35,21 75,34 116,34 z"
       fill="currentColor"
       id="path162" />
  </a>
  <a
     style="color:inherit"
     xlink:href="textedit:///Users/philippeperret/Sites/MusicScoreWriter/score_building/code/visu-untrimed.ly:42:22:23"
     id="a168"
     transform="translate(-4.4186,-3.8452002)">
    <path
       transform="matrix(0.004,0,0,-0.004,37.6017,19.7279)"
       d="m 218,136 c 55,0 108,-28 108,-89 0,-71 -55,-121 -102,-149 -35,-21 -75,-34 -116,-34 -55,0 -108,28 -108,89 0,71 55,121 102,149 35,21 75,34 116,34 z"
       fill="currentColor"
       id="path166" />
  </a>
  <path
     d="m 34.9373,2.5499998 c 0,-0.124 0.1,-0.224 0.224,-0.224 0.124,0 0.224,0.1 0.224,0.224 0,0.124 -0.1,0.224 -0.224,0.224 -0.124,0 -0.224,-0.1 -0.224,-0.224 z"
     fill="currentColor"
     id="path170"
     style="stroke-width:0.004" />
  <rect
     x="34.3573"
     y="0.24259961"
     width="0.13"
     height="2.6213"
     ry="0.039999999"
     fill="currentColor"
     id="rect172" />
  <rect
     x="33.183102"
     y="9.2361002"
     width="0.13"
     height="2.3001001"
     ry="0.039999999"
     fill="currentColor"
     id="rect174" />
  <rect
     x="33.183102"
     y="16.0688"
     width="0.13"
     height="3.1889"
     ry="0.039999999"
     fill="currentColor"
     id="rect176" />
  <path
     d="m 11.5567,17.8427 h -0.064 v -1 h 0.064 z m 0,0 v -1 c 0.388,-0.236 0.896,-0.592 0.896,-1.036 0,-0.228 -0.06,-0.448 -0.16,-0.652 -0.012,-0.064 0.04,-0.108 0.092,-0.108 0.028,0 0.06,0.012 0.08,0.044 0.1,0.224 0.16,0.468 0.16,0.716 0,0.812 -1.068,1.224 -1.068,2.036 z"
     fill="currentColor"
     id="path178"
     style="stroke-width:0.004" />
  <a
     style="color:inherit"
     xlink:href="textedit:///Users/philippeperret/Sites/MusicScoreWriter/score_building/code/visu-untrimed.ly:42:24:25"
     id="a182"
     transform="translate(-4.4186,-3.8452002)">
    <path
       transform="matrix(0.004,0,0,-0.004,42.8824,19.7279)"
       d="M 72,-250 189,76 C 155,64 120,54 84,54 38,54 -3,87 -3,133 c 0,40 33,72 73,72 25,0 48,-15 56,-39 10,-28 6,-59 35,-59 16,0 54,48 61,63 6,12 23,12 28,0 L 127,-250 c -8,-7 -17,-10 -27,-10 -10,0 -20,3 -28,10 z"
       fill="currentColor"
       id="path180" />
  </a>
  <rect
     x="11.4267"
     y="14.5688"
     width="0.13"
     height="3.3139"
     ry="0.039999999"
     fill="currentColor"
     id="rect184" />
  <a
     style="color:inherit"
     xlink:href="textedit:///Users/philippeperret/Sites/MusicScoreWriter/score_building/code/visu-untrimed.ly:32:142:143"
     id="a188"
     transform="translate(-4.4186,-3.8452002)">
    <path
       transform="matrix(0.004,0,0,-0.004,44.5246,10.3952)"
       d="m 218,136 c 55,0 108,-28 108,-89 0,-71 -55,-121 -102,-149 -35,-21 -75,-34 -116,-34 -55,0 -108,28 -108,89 0,71 55,121 102,149 35,21 75,34 116,34 z"
       fill="currentColor"
       id="path186" />
  </a>
  <rect
     x="40.105999"
     y="6.7360997"
     width="0.13"
     height="3.3276999"
     ry="0.039999999"
     fill="currentColor"
     id="rect190" />
  <a
     style="color:inherit"
     xlink:href="textedit:///Users/philippeperret/Sites/MusicScoreWriter/score_building/code/visu-untrimed.ly:32:108:109"
     id="a194"
     transform="translate(-4.4186,-3.8452002)">
    <path
       transform="matrix(0.004,0,0,-0.004,45.3457,7.3952)"
       d="m 218,136 c 55,0 108,-28 108,-89 0,-71 -55,-121 -102,-149 -35,-21 -75,-34 -116,-34 -55,0 -108,28 -108,89 0,71 55,121 102,149 35,21 75,34 116,34 z"
       fill="currentColor"
       id="path192" />
  </a>
  <path
     d="m 4.3,15.3827 c 0,-0.112 0.092,-0.204 0.204,-0.204 0.112,0 0.204,0.092 0.204,0.204 0,0.112 -0.092,0.204 -0.204,0.204 -0.112,0 -0.204,-0.092 -0.204,-0.204 z m 0,-1 c 0,-0.112 0.092,-0.204 0.204,-0.204 0.112,0 0.204,0.092 0.204,0.204 0,0.112 -0.092,0.204 -0.204,0.204 -0.112,0 -0.204,-0.092 -0.204,-0.204 z M 3,13.8307 c 0.688,0 1.172,0.352 1.172,1.004 0,1.052 -1.052,1.656 -2.064,2.084 -0.012,0.012 -0.024,0.016 -0.036,0.016 -0.028,0 -0.052,-0.024 -0.052,-0.052 0,-0.012 0.004,-0.024 0.016,-0.036 0.808,-0.472 1.648,-1.06 1.648,-1.972 0,-0.48 -0.252,-0.94 -0.684,-0.94 -0.296,0 -0.516,0.216 -0.616,0.504 0.044,-0.02 0.088,-0.032 0.136,-0.032 0.22,0 0.4,0.18 0.4,0.4 0,0.232 -0.176,0.424 -0.4,0.424 -0.24,0 -0.448,-0.188 -0.448,-0.424 0,-0.532 0.408,-0.976 0.928,-0.976 z"
     fill="currentColor"
     id="path196"
     style="stroke-width:0.004" />
  <path
     d="m 0.848,12.7064 c 0,1.2 -0.448,2.368 -0.448,3.504 0,0.608 0.128,1.168 0.56,1.632 0.064,0.064 -0.032,0.16 -0.096,0.096 -0.576,-0.608 -0.768,-1.424 -0.768,-2.256 0,-1.216 0.48,-2.4 0.48,-3.552 0,-0.608 -0.128,-1.168 -0.56,-1.632 0,-0.016 -0.016,-0.016 -0.016,-0.032 0,-0.016 0.016,-0.016 0.016,-0.032 0.432,-0.4640002 0.56,-1.0240002 0.56,-1.6320002 0,-1.152 -0.48,-2.336 -0.48,-3.552 0,-0.832 0.192,-1.648 0.768,-2.256 0.064,-0.064 0.16,0.032 0.096,0.096 -0.432,0.464 -0.56,1.024 -0.56,1.632 0,1.136 0.448,2.304 0.448,3.504 0,0.832 -0.176,1.632 -0.736,2.2400002 0.56,0.608 0.736,1.408 0.736,2.24 z"
     fill="currentColor"
     id="path198"
     style="stroke-width:0.004" />
  <rect
     x="1.212"
     y="3.0000999"
     width="0.16"
     height="14.9327"
     ry="0.050000001"
     fill="currentColor"
     id="rect200" />
  <a
     style="color:inherit"
     xlink:href="textedit:///Users/philippeperret/Sites/MusicScoreWriter/score_building/code/visu-untrimed.ly:32:12:13"
     id="a204"
     transform="translate(-4.4186,-3.8452002)">
    <path
       transform="matrix(0.004,0,0,-0.004,15.8453,8.8952)"
       d="m 218,136 c 55,0 108,-28 108,-89 0,-71 -55,-121 -102,-149 -35,-21 -75,-34 -116,-34 -55,0 -108,28 -108,89 0,71 55,121 102,149 35,21 75,34 116,34 z"
       fill="currentColor"
       id="path202" />
  </a>
  <a
     style="color:inherit"
     xlink:href="textedit:///Users/philippeperret/Sites/MusicScoreWriter/score_building/code/visu-untrimed.ly:32:50:51"
     id="a208"
     transform="translate(-4.4186,-3.8452002)">
    <path
       transform="matrix(0.004,0,0,-0.004,15.8453,13.3952)"
       d="m 218,136 c 55,0 108,-28 108,-89 0,-71 -55,-121 -102,-149 -35,-21 -75,-34 -116,-34 -55,0 -108,28 -108,89 0,71 55,121 102,149 35,21 75,34 116,34 z"
       fill="currentColor"
       id="path206" />
  </a>
  <path
     d="M 3.136,8.5899998 H 3.112 c -0.432,0 -0.78,-0.352 -0.78,-0.788 0,-0.232 0.212,-0.412 0.448,-0.412 0.216,0 0.38,0.188 0.38,0.412 0,0.208 -0.172,0.38 -0.38,0.38 -0.044,0 -0.084,-0.008 -0.124,-0.024 0.104,0.156 0.272,0.26 0.468,0.26 H 3.14 Z m 0.78,-1.728 c 0.272,-0.096 0.452,-0.38 0.452,-0.656 0,-0.36 -0.264,-0.716 -0.692,-0.76 0.096,0.464 0.184,0.924 0.24,1.416 z m -1.548,-0.924 c 0,0.54 0.516,0.988 1.056,0.988 0.112,0 0.22,-0.008 0.328,-0.024 -0.056,-0.508 -0.148,-0.98 -0.252,-1.456 -0.316,0.032 -0.496,0.244 -0.496,0.476 0,0.176 0.1,0.364 0.324,0.492 0.02,0.02 0.028,0.04 0.028,0.06 0,0.044 -0.04,0.088 -0.088,0.088 -0.012,0 -0.024,-0.004 -0.036,-0.008 -0.32,-0.172 -0.468,-0.46 -0.468,-0.74 0,-0.352 0.232,-0.696 0.64,-0.788 -0.056,-0.232 -0.116,-0.468 -0.184,-0.7 -0.428,0.484 -0.852,0.972 -0.852,1.612 z m 1.044,1.16 c -0.752,0 -1.332,-0.688 -1.332,-1.496 0,-0.708 0.524,-1.224 0.992,-1.764 -0.076,-0.248 -0.148,-0.5 -0.18,-0.76 -0.024,-0.208 -0.028,-0.416 -0.028,-0.624 0,-0.46 0.22,-0.896 0.596,-1.168 0.024,-0.02 0.056,-0.02 0.08,0 0.284,0.336 0.532,0.98 0.532,1.432 0,0.572 -0.344,1.02 -0.72,1.456 0.084,0.272 0.156,0.552 0.224,0.828 0.016,0 0.036,-0.004 0.052,-0.004 0.62,0 1.024,0.512 1.024,1.044 0,0.304 -0.132,0.616 -0.428,0.84 -0.088,0.068 -0.188,0.112 -0.292,0.144 0.012,0.14 0.02,0.28 0.02,0.42 0,0.076 -0.004,0.156 -0.008,0.232 -0.028,0.476 -0.352,0.9 -0.808,0.912 l 0.004,-0.172 c 0.372,-0.008 0.612,-0.368 0.636,-0.764 0.004,-0.072 0.008,-0.148 0.008,-0.22 0,-0.124 -0.004,-0.244 -0.016,-0.368 -0.116,0.02 -0.232,0.032 -0.356,0.032 z m 0.372,-4.712 c 0,-0.22 -0.016,-0.316 -0.08,-0.516 -0.396,0.192 -0.648,0.596 -0.648,1.036 0,0.296 0.072,0.532 0.144,0.776 0.32,-0.388 0.584,-0.792 0.584,-1.296 z"
     fill="currentColor"
     id="path210"
     style="stroke-width:0.004" />
  <a
     style="color:inherit"
     xlink:href="textedit:///Users/philippeperret/Sites/MusicScoreWriter/score_building/code/visu-untrimed.ly:30:6:7"
     id="a214"
     transform="translate(-4.4186,-3.8452002)">
    <path
       transform="matrix(0.004,0,0,-0.004,9.9906,6.8952)"
       d="m 216,-312 c 0,-10 -8,-19 -18,-19 -10,0 -19,9 -19,19 v 145 l -83,-31 v -158 c 0,-10 -9,-19 -19,-19 -10,0 -18,9 -18,19 v 145 l -32,-12 c -2,-1 -5,-1 -7,-1 -11,0 -20,9 -20,20 v 60 c 0,8 5,16 13,19 l 46,16 V 51 L 27,40 C 25,39 22,39 20,39 9,39 0,48 0,59 v 60 c 0,8 5,15 13,18 l 46,17 v 158 c 0,10 8,19 18,19 10,0 19,-9 19,-19 V 167 l 83,31 v 158 c 0,10 9,19 19,19 10,0 18,-9 18,-19 V 211 l 32,12 c 2,1 5,1 7,1 11,0 20,-9 20,-20 v -60 c 0,-8 -5,-16 -13,-19 L 216,109 V -51 l 32,11 c 2,1 5,1 7,1 11,0 20,-9 20,-20 v -60 c 0,-8 -5,-15 -13,-18 l -46,-17 z M 96,65 V -95 l 83,30 V 95 Z"
       fill="currentColor"
       id="path212" />
  </a>
  <a
     style="color:inherit"
     xlink:href="textedit:///Users/philippeperret/Sites/MusicScoreWriter/score_building/code/visu-untrimed.ly:27:6:7"
     id="a220"
     transform="translate(-4.4186,-3.8452002)">
    <path
       transform="matrix(0.004,0,0,-0.004,12.3088,8.8952)"
       d="m 235,355 c 0,60 -18,122 -70,122 -26,0 -51,-14 -51,-37 0,-27 35,-41 35,-68 0,-38 -30,-69 -68,-69 -38,0 -69,31 -69,69 0,76 72,128 153,128 96,0 187,-56 187,-145 0,-153 -151,-159 -249,-220 9,2 17,3 26,3 33,0 70,-11 105,-36 21,-15 46,-23 66,-23 21,0 39,9 44,29 2,6 6,9 11,9 6,0 12,-5 12,-12 0,-1 -1,-2 -1,-3 C 349,37 288,0 229,0 193,0 158,14 133,44 120,60 102,66 85,66 55,66 26,46 23,11 22,4 17,0 12,0 6,0 0,4 0,11 0,186 235,176 235,355 Z"
       fill="currentColor"
       id="path216" />
    <path
       transform="matrix(0.004,0,0,-0.004,12.2406,10.9438)"
       d="m 196,117 h 117 c 0,-48 27,-94 72,-94 8,0 12,-5 12,-11 C 397,6 393,0 385,0 341,0 298,13 254,13 210,13 167,0 123,0 c -8,0 -12,6 -12,12 0,6 4,11 12,11 45,0 73,46 73,94 z m 8,190 c 22,14 44,29 60,50 11,15 19,33 27,50 2,4 5,6 9,6 6,0 13,-5 13,-14 V 154 h 72 c 10,0 15,-7 15,-14 0,-7 -5,-15 -15,-15 h -72 v -8 H 196 v 8 H 29 c -23,0 -31,14 -31,23 0,3 1,5 2,6 80,93 138,207 138,330 0,10 7,19 16,16 23,-7 47,-13 71,-13 24,0 48,6 71,13 14,4 23,-9 17,-16 L 29,154 h 167 v 131 c 0,8 1,17 8,22 z"
       fill="currentColor"
       id="path218" />
  </a>
  <a
     style="color:inherit"
     xlink:href="textedit:///Users/philippeperret/Sites/MusicScoreWriter/score_building/code/visu-untrimed.ly:42:7:8"
     id="a224"
     transform="translate(-4.4186,-3.8452002)">
    <path
       transform="matrix(0.004,0,0,-0.004,15.8453,18.2279)"
       d="m 218,136 c 55,0 108,-28 108,-89 0,-71 -55,-121 -102,-149 -35,-21 -75,-34 -116,-34 -55,0 -108,28 -108,89 0,71 55,121 102,149 35,21 75,34 116,34 z"
       fill="currentColor"
       id="path222" />
  </a>
  <rect
     x="42.101299"
     y="0.54739964"
     width="0.13"
     height="2.8164999"
     ry="0.039999999"
     fill="currentColor"
     id="rect226" />
  <a
     style="color:inherit"
     xlink:href="textedit:///Users/philippeperret/Sites/MusicScoreWriter/score_building/code/visu-untrimed.ly:41:6:7"
     id="a230"
     transform="translate(-4.4186,-3.8452002)">
    <path
       transform="matrix(0.004,0,0,-0.004,9.9906,18.7279)"
       d="m 216,-312 c 0,-10 -8,-19 -18,-19 -10,0 -19,9 -19,19 v 145 l -83,-31 v -158 c 0,-10 -9,-19 -19,-19 -10,0 -18,9 -18,19 v 145 l -32,-12 c -2,-1 -5,-1 -7,-1 -11,0 -20,9 -20,20 v 60 c 0,8 5,16 13,19 l 46,16 V 51 L 27,40 C 25,39 22,39 20,39 9,39 0,48 0,59 v 60 c 0,8 5,15 13,18 l 46,17 v 158 c 0,10 8,19 18,19 10,0 19,-9 19,-19 V 167 l 83,31 v 158 c 0,10 9,19 19,19 10,0 18,-9 18,-19 V 211 l 32,12 c 2,1 5,1 7,1 11,0 20,-9 20,-20 v -60 c 0,-8 -5,-16 -13,-19 L 216,109 V -51 l 32,11 c 2,1 5,1 7,1 11,0 20,-9 20,-20 v -60 c 0,-8 -5,-15 -13,-18 l -46,-17 z M 96,65 V -95 l 83,30 V 95 Z"
       fill="currentColor"
       id="path228" />
  </a>
  <a
     style="color:inherit"
     xlink:href="textedit:///Users/philippeperret/Sites/MusicScoreWriter/score_building/code/visu-untrimed.ly:38:6:7"
     id="a236"
     transform="translate(-4.4186,-3.8452002)">
    <path
       transform="matrix(0.004,0,0,-0.004,12.3088,19.7279)"
       d="m 235,355 c 0,60 -18,122 -70,122 -26,0 -51,-14 -51,-37 0,-27 35,-41 35,-68 0,-38 -30,-69 -68,-69 -38,0 -69,31 -69,69 0,76 72,128 153,128 96,0 187,-56 187,-145 0,-153 -151,-159 -249,-220 9,2 17,3 26,3 33,0 70,-11 105,-36 21,-15 46,-23 66,-23 21,0 39,9 44,29 2,6 6,9 11,9 6,0 12,-5 12,-12 0,-1 -1,-2 -1,-3 C 349,37 288,0 229,0 193,0 158,14 133,44 120,60 102,66 85,66 55,66 26,46 23,11 22,4 17,0 12,0 6,0 0,4 0,11 0,186 235,176 235,355 Z"
       fill="currentColor"
       id="path232" />
    <path
       transform="matrix(0.004,0,0,-0.004,12.2406,21.7765)"
       d="m 196,117 h 117 c 0,-48 27,-94 72,-94 8,0 12,-5 12,-11 C 397,6 393,0 385,0 341,0 298,13 254,13 210,13 167,0 123,0 c -8,0 -12,6 -12,12 0,6 4,11 12,11 45,0 73,46 73,94 z m 8,190 c 22,14 44,29 60,50 11,15 19,33 27,50 2,4 5,6 9,6 6,0 13,-5 13,-14 V 154 h 72 c 10,0 15,-7 15,-14 0,-7 -5,-15 -15,-15 h -72 v -8 H 196 v 8 H 29 c -23,0 -31,14 -31,23 0,3 1,5 2,6 80,93 138,207 138,330 0,10 7,19 16,16 23,-7 47,-13 71,-13 24,0 48,6 71,13 14,4 23,-9 17,-16 L 29,154 h 167 v 131 c 0,8 1,17 8,22 z"
       fill="currentColor"
       id="path234" />
  </a>
  <rect
     x="12.6009"
     y="1.7166997"
     width="0.13"
     height="3.1472001"
     ry="0.039999999"
     fill="currentColor"
     id="rect238" />
  <rect
     x="11.4267"
     y="9.7361002"
     width="0.13"
     height="2.1055"
     ry="0.039999999"
     fill="currentColor"
     id="rect240" />
  <a
     style="color:inherit"
     xlink:href="textedit:///Users/philippeperret/Sites/MusicScoreWriter/score_building/code/visu-untrimed.ly:32:168:169"
     id="a244"
     transform="translate(-4.4186,-3.8452002)">
    <path
       transform="matrix(0.004,0,0,-0.004,54.9091,9.3952)"
       d="m 218,136 c 55,0 108,-28 108,-89 0,-71 -55,-121 -102,-149 -35,-21 -75,-34 -116,-34 -55,0 -108,28 -108,89 0,71 55,121 102,149 35,21 75,34 116,34 z"
       fill="currentColor"
       id="path242" />
  </a>
  <a
     style="color:inherit"
     xlink:href="textedit:///Users/philippeperret/Sites/MusicScoreWriter/score_building/code/visu-untrimed.ly:32:166:167"
     id="a248"
     transform="translate(-4.4186,-3.8452002)">
    <path
       transform="matrix(0.004,0,0,-0.004,51.6248,11.3952)"
       d="m 218,136 c 55,0 108,-28 108,-89 0,-71 -55,-121 -102,-149 -35,-21 -75,-34 -116,-34 -55,0 -108,28 -108,89 0,71 55,121 102,149 35,21 75,34 116,34 z"
       fill="currentColor"
       id="path246" />
  </a>
  <rect
     x="47.2062"
     y="7.7360997"
     width="0.13"
     height="2.1489"
     ry="0.039999999"
     fill="currentColor"
     id="rect250" />
  <a
     style="color:inherit"
     xlink:href="textedit:///Users/philippeperret/Sites/MusicScoreWriter/score_building/code/visu-untrimed.ly:42:30:31"
     id="a254"
     transform="translate(-4.4186,-3.8452002)">
    <path
       transform="matrix(0.004,0,0,-0.004,53.267,19.7279)"
       d="M 72,-250 189,76 C 155,64 120,54 84,54 38,54 -3,87 -3,133 c 0,40 33,72 73,72 25,0 48,-15 56,-39 10,-28 6,-59 35,-59 16,0 54,48 61,63 6,12 23,12 28,0 L 127,-250 c -8,-7 -17,-10 -27,-10 -10,0 -20,3 -28,10 z"
       fill="currentColor"
       id="path252" />
  </a>
  <rect
     x="50.490501"
     y="5.7360997"
     width="0.13"
     height="3.5164001"
     ry="0.039999999"
     fill="currentColor"
     id="rect256" />
  <a
     style="color:inherit"
     xlink:href="textedit:///Users/philippeperret/Sites/MusicScoreWriter/score_building/code/visu-untrimed.ly:32:112:113"
     id="a260"
     transform="translate(-4.4186,-3.8452002)">
    <path
       transform="matrix(0.004,0,0,-0.004,48.2362,7.8952)"
       d="m 218,136 c 55,0 108,-28 108,-89 0,-71 -55,-121 -102,-149 -35,-21 -75,-34 -116,-34 -55,0 -108,28 -108,89 0,71 55,121 102,149 35,21 75,34 116,34 z"
       fill="currentColor"
       id="path258" />
  </a>
  <a
     style="color:inherit"
     xlink:href="textedit:///Users/philippeperret/Sites/MusicScoreWriter/score_building/code/visu-untrimed.ly:32:162:163"
     id="a264"
     transform="translate(-4.4186,-3.8452002)">
    <path
       transform="matrix(0.004,0,0,-0.004,48.2362,11.8952)"
       d="m 218,136 c 55,0 108,-28 108,-89 0,-71 -55,-121 -102,-149 -35,-21 -75,-34 -116,-34 -55,0 -108,28 -108,89 0,71 55,121 102,149 35,21 75,34 116,34 z"
       fill="currentColor"
       id="path262" />
  </a>
  <a
     style="color:inherit"
     xlink:href="textedit:///Users/philippeperret/Sites/MusicScoreWriter/score_building/code/visu-untrimed.ly:42:26:27"
     id="a268"
     transform="translate(-4.4186,-3.8452002)">
    <path
       transform="matrix(0.004,0,0,-0.004,48.2362,18.7279)"
       d="m 218,136 c 55,0 108,-28 108,-89 0,-71 -55,-121 -102,-149 -35,-21 -75,-34 -116,-34 -55,0 -108,28 -108,89 0,71 55,121 102,149 35,21 75,34 116,34 z"
       fill="currentColor"
       id="path266" />
  </a>
  <rect
     x="44.991798"
     y="1.0499998"
     width="0.13"
     height="2.8139"
     ry="0.039999999"
     fill="currentColor"
     id="rect270" />
  <rect
     x="43.8176"
     y="8.2361002"
     width="0.13"
     height="2.3013999"
     ry="0.039999999"
     fill="currentColor"
     id="rect272" />
  <path
     d="m 43.9476,18.3427 h -0.064 v -1 h 0.064 z m 0,0 v -1 c 0.388,-0.236 0.896,-0.592 0.896,-1.036 0,-0.228 -0.06,-0.448 -0.16,-0.652 -0.012,-0.064 0.04,-0.108 0.092,-0.108 0.028,0 0.06,0.012 0.08,0.044 0.1,0.224 0.16,0.468 0.16,0.716 0,0.812 -1.068,1.224 -1.068,2.036 z"
     fill="currentColor"
     id="path274"
     style="stroke-width:0.004" />
  <rect
     x="43.8176"
     y="15.0688"
     width="0.13"
     height="3.3139"
     ry="0.039999999"
     fill="currentColor"
     id="rect276" />
  <path
     d="m 42.7396,6.5499998 c 0.032,-0.016 0.068,-0.028 0.104,-0.028 0.036,0 0.064,0.012 0.096,0.028 l -0.008,0.732 0.424,-0.08 h 0.012 c 0.04,0 0.072,0.028 0.072,0.068 l 0.028,2.28 c -0.032,0.016 -0.064,0.028 -0.1,0.028 -0.036,0 -0.068,-0.012 -0.1,-0.028 l 0.012,-0.732 -0.424,0.08 h -0.012 c -0.04,0 -0.072,-0.028 -0.072,-0.068 z m 0.556,1.052 -0.368,0.068 -0.012,0.828 0.368,-0.068 z"
     fill="currentColor"
     id="path278"
     style="stroke-width:0.004" />
</svg>
