<?xml version="1.0" encoding="UTF-8" standalone="no"?>
<svg
   version="1.2"
   width="105.30647mm"
   height="31.320333mm"
   viewBox="0 0 59.9252 17.822999"
   id="svg262"
   xmlns:xlink="http://www.w3.org/1999/xlink"
   xmlns="http://www.w3.org/2000/svg"
   xmlns:svg="http://www.w3.org/2000/svg">
  <defs
     id="defs266" />
  <style
     text="style/css"
     id="style2"><![CDATA[
tspan { white-space: pre; }
]]></style>
  <!-- Page: 1/1 -->
  <line
     stroke-linejoin="round"
     stroke-linecap="round"
     stroke-width="0.1"
     stroke="currentColor"
     x1="1.262"
     y1="5.7789998"
     x2="59.875202"
     y2="5.7789998"
     id="line4" />
  <line
     stroke-linejoin="round"
     stroke-linecap="round"
     stroke-width="0.1"
     stroke="currentColor"
     x1="1.262"
     y1="4.7789998"
     x2="59.875202"
     y2="4.7789998"
     id="line6" />
  <line
     stroke-linejoin="round"
     stroke-linecap="round"
     stroke-width="0.1"
     stroke="currentColor"
     x1="1.262"
     y1="3.779"
     x2="59.875202"
     y2="3.779"
     id="line8" />
  <line
     stroke-linejoin="round"
     stroke-linecap="round"
     stroke-width="0.1"
     stroke="currentColor"
     x1="1.262"
     y1="2.779"
     x2="59.875202"
     y2="2.779"
     id="line10" />
  <line
     stroke-linejoin="round"
     stroke-linecap="round"
     stroke-width="0.1"
     stroke="currentColor"
     x1="1.262"
     y1="1.779"
     x2="59.875202"
     y2="1.779"
     id="line12" />
  <rect
     x="26.401199"
     y="5.829"
     width="0.19"
     height="4.9499998"
     ry="0.0000"
     fill="currentColor"
     id="rect14" />
  <rect
     x="26.401199"
     y="10.729"
     width="0.19"
     height="4.0500002"
     ry="0.0000"
     fill="currentColor"
     id="rect16" />
  <rect
     x="42.853001"
     y="5.829"
     width="0.19"
     height="4.9499998"
     ry="0.0000"
     fill="currentColor"
     id="rect18" />
  <rect
     x="26.401199"
     y="1.779"
     width="0.19"
     height="4.0500002"
     ry="0.0000"
     fill="currentColor"
     id="rect20" />
  <rect
     x="59.735199"
     y="5.829"
     width="0.19"
     height="4.9499998"
     ry="0.0000"
     fill="currentColor"
     id="rect22" />
  <rect
     x="42.853001"
     y="10.729"
     width="0.19"
     height="4.0500002"
     ry="0.0000"
     fill="currentColor"
     id="rect24" />
  <rect
     x="59.735199"
     y="10.729"
     width="0.19"
     height="4.0500002"
     ry="0.0000"
     fill="currentColor"
     id="rect26" />
  <rect
     x="59.735199"
     y="1.779"
     width="0.19"
     height="4.0500002"
     ry="0.0000"
     fill="currentColor"
     id="rect28" />
  <rect
     x="42.853001"
     y="1.779"
     width="0.19"
     height="4.0500002"
     ry="0.0000"
     fill="currentColor"
     id="rect30" />
  <line
     stroke-linejoin="round"
     stroke-linecap="round"
     stroke-width="0.1"
     stroke="currentColor"
     x1="1.262"
     y1="14.779"
     x2="59.875202"
     y2="14.779"
     id="line32" />
  <line
     stroke-linejoin="round"
     stroke-linecap="round"
     stroke-width="0.1"
     stroke="currentColor"
     x1="1.262"
     y1="13.779"
     x2="59.875202"
     y2="13.779"
     id="line34" />
  <line
     stroke-linejoin="round"
     stroke-linecap="round"
     stroke-width="0.1"
     stroke="currentColor"
     x1="1.262"
     y1="12.779"
     x2="59.875202"
     y2="12.779"
     id="line36" />
  <line
     stroke-linejoin="round"
     stroke-linecap="round"
     stroke-width="0.1"
     stroke="currentColor"
     x1="1.262"
     y1="11.779"
     x2="59.875202"
     y2="11.779"
     id="line38" />
  <line
     stroke-linejoin="round"
     stroke-linecap="round"
     stroke-width="0.1"
     stroke="currentColor"
     x1="1.262"
     y1="10.779"
     x2="59.875202"
     y2="10.779"
     id="line40" />
  <rect
     x="49.775402"
     y="15.679"
     width="1.9563"
     height="0.2"
     ry="0.1"
     fill="currentColor"
     id="rect42" />
  <rect
     x="49.775402"
     y="16.679001"
     width="1.9563"
     height="0.2"
     ry="0.1"
     fill="currentColor"
     id="rect44" />
  <rect
     x="39.7728"
     y="15.679"
     width="1.9563"
     height="0.2"
     ry="0.1"
     fill="currentColor"
     id="rect46" />
  <rect
     x="29.756001"
     y="15.679"
     width="1.9563"
     height="0.2"
     ry="0.1"
     fill="currentColor"
     id="rect48" />
  <rect
     x="16.0583"
     y="15.679"
     width="1.9563"
     height="0.2"
     ry="0.1"
     fill="currentColor"
     id="rect50" />
  <rect
     x="17.5585"
     y="11.5667"
     width="0.13"
     height="4.0261998"
     ry="0.039999999"
     fill="currentColor"
     id="rect52" />
  <a
     style="color:inherit"
     xlink:href="textedit:///Users/philippeperret/Sites/MusicScore/score_building/code/visu-not-trimed.ly:30:15:16"
     id="a56"
     transform="translate(-4.4786,-3.8303)">
    <path
       transform="matrix(0.004,0,0,-0.004,23.6171,7.6093)"
       d="m 218,136 c 55,0 108,-28 108,-89 0,-71 -55,-121 -102,-149 -35,-21 -75,-34 -116,-34 -55,0 -108,28 -108,89 0,71 55,121 102,149 35,21 75,34 116,34 z"
       fill="currentColor"
       id="path54" />
  </a>
  <rect
     x="20.312799"
     y="0.96900004"
     width="0.13"
     height="2.6238999"
     ry="0.039999999"
     fill="currentColor"
     id="rect58" />
  <a
     style="color:inherit"
     xlink:href="textedit:///Users/philippeperret/Sites/MusicScore/score_building/code/visu-not-trimed.ly:30:17:18"
     id="a62"
     transform="translate(-4.4786,-3.8303)">
    <path
       transform="matrix(0.004,0,0,-0.004,25.8714,8.6093)"
       d="m 218,136 c 55,0 108,-28 108,-89 0,-71 -55,-121 -102,-149 -35,-21 -75,-34 -116,-34 -55,0 -108,28 -108,89 0,71 55,121 102,149 35,21 75,34 116,34 z"
       fill="currentColor"
       id="path60" />
  </a>
  <a
     style="color:inherit"
     xlink:href="textedit:///Users/philippeperret/Sites/MusicScore/score_building/code/visu-not-trimed.ly:40:21:22"
     id="a66"
     transform="translate(-4.4786,-3.8303)">
    <path
       transform="matrix(0.004,0,0,-0.004,25.8714,16.6093)"
       d="M 72,-250 189,76 C 155,64 120,54 84,54 38,54 -3,87 -3,133 c 0,40 33,72 73,72 25,0 48,-15 56,-39 10,-28 6,-59 35,-59 16,0 54,48 61,63 6,12 23,12 28,0 L 127,-250 c -8,-7 -17,-10 -27,-10 -10,0 -20,3 -28,10 z"
       fill="currentColor"
       id="path64" />
  </a>
  <rect
     x="22.566999"
     y="0.96900004"
     width="0.13"
     height="3.6238999"
     ry="0.039999999"
     fill="currentColor"
     id="rect68" />
  <polygon
     transform="translate(12.4043,9.779)"
     stroke-linejoin="round"
     stroke-linecap="round"
     stroke-width="0.08"
     fill="currentColor"
     stroke="currentColor"
     points="0.04,0.2 0.04,-0.2 5.2442,1.61 5.2442,2.01 "
     id="polygon70" />
  <a
     style="color:inherit"
     xlink:href="textedit:///Users/philippeperret/Sites/MusicScore/score_building/code/visu-not-trimed.ly:30:53:54"
     id="a74"
     transform="translate(-4.4786,-3.8303)">
    <path
       transform="matrix(0.004,0,0,-0.004,61.8427,7.6093)"
       d="m 218,136 c 55,0 108,-28 108,-89 0,-71 -55,-121 -102,-149 -35,-21 -75,-34 -116,-34 -55,0 -108,28 -108,89 0,71 55,121 102,149 35,21 75,34 116,34 z"
       fill="currentColor"
       id="path72" />
  </a>
  <rect
     x="57.364101"
     y="3.9651"
     width="0.13"
     height="2.6238999"
     ry="0.039999999"
     fill="currentColor"
     id="rect76" />
  <a
     style="color:inherit"
     xlink:href="textedit:///Users/philippeperret/Sites/MusicScore/score_building/code/visu-not-trimed.ly:30:11:12"
     id="a80"
     transform="translate(-4.4786,-3.8303)">
    <path
       transform="matrix(0.004,0,0,-0.004,18.1087,9.6093)"
       d="m 218,136 c 55,0 108,-28 108,-89 0,-71 -55,-121 -102,-149 -35,-21 -75,-34 -116,-34 -55,0 -108,28 -108,89 0,71 55,121 102,149 35,21 75,34 116,34 z"
       fill="currentColor"
       id="path78" />
  </a>
  <rect
     x="14.8043"
     y="0.96900004"
     width="0.13"
     height="4.6238999"
     ry="0.039999999"
     fill="currentColor"
     id="rect82" />
  <a
     style="color:inherit"
     xlink:href="textedit:///Users/philippeperret/Sites/MusicScore/score_building/code/visu-not-trimed.ly:30:13:14"
     id="a86"
     transform="translate(-4.4786,-3.8303)">
    <path
       transform="matrix(0.004,0,0,-0.004,20.8629,8.6093)"
       d="m 218,136 c 55,0 108,-28 108,-89 0,-71 -55,-121 -102,-149 -35,-21 -75,-34 -116,-34 -55,0 -108,28 -108,89 0,71 55,121 102,149 35,21 75,34 116,34 z"
       fill="currentColor"
       id="path84" />
  </a>
  <a
     style="color:inherit"
     xlink:href="textedit:///Users/philippeperret/Sites/MusicScore/score_building/code/visu-not-trimed.ly:40:18:19"
     id="a90"
     transform="translate(-4.4786,-3.8303)">
    <path
       transform="matrix(0.004,0,0,-0.004,20.8629,19.6093)"
       d="m 218,136 c 55,0 108,-28 108,-89 0,-71 -55,-121 -102,-149 -35,-21 -75,-34 -116,-34 -55,0 -108,28 -108,89 0,71 55,121 102,149 35,21 75,34 116,34 z"
       fill="currentColor"
       id="path88" />
  </a>
  <rect
     x="17.5585"
     y="0.96900004"
     width="0.13"
     height="3.6238999"
     ry="0.039999999"
     fill="currentColor"
     id="rect92" />
  <rect
     x="31.256201"
     y="10.969"
     width="0.13"
     height="4.6238999"
     ry="0.039999999"
     fill="currentColor"
     id="rect94" />
  <a
     style="color:inherit"
     xlink:href="textedit:///Users/philippeperret/Sites/MusicScore/score_building/code/visu-not-trimed.ly:30:27:28"
     id="a98"
     transform="translate(-4.4786,-3.8303)">
    <path
       transform="matrix(0.004,0,0,-0.004,37.3148,7.6093)"
       d="m 218,136 c 55,0 108,-28 108,-89 0,-71 -55,-121 -102,-149 -35,-21 -75,-34 -116,-34 -55,0 -108,28 -108,89 0,71 55,121 102,149 35,21 75,34 116,34 z"
       fill="currentColor"
       id="path96" />
  </a>
  <a
     style="color:inherit"
     xlink:href="textedit:///Users/philippeperret/Sites/MusicScore/score_building/code/visu-not-trimed.ly:40:31:32"
     id="a102"
     transform="translate(-4.4786,-3.8303)">
    <path
       transform="matrix(0.004,0,0,-0.004,37.3148,18.6093)"
       d="m 218,136 c 55,0 108,-28 108,-89 0,-71 -55,-121 -102,-149 -35,-21 -75,-34 -116,-34 -55,0 -108,28 -108,89 0,71 55,121 102,149 35,21 75,34 116,34 z"
       fill="currentColor"
       id="path100" />
  </a>
  <rect
     x="32.836201"
     y="3.9651"
     width="0.13"
     height="2.6238999"
     ry="0.039999999"
     fill="currentColor"
     id="rect104" />
  <rect
     x="34.010399"
     y="10.969"
     width="0.13"
     height="3.6238999"
     ry="0.039999999"
     fill="currentColor"
     id="rect106" />
  <a
     style="color:inherit"
     xlink:href="textedit:///Users/philippeperret/Sites/MusicScore/score_building/code/visu-not-trimed.ly:40:29:30"
     id="a110"
     transform="translate(-4.4786,-3.8303)">
    <path
       transform="matrix(0.004,0,0,-0.004,34.5606,19.6093)"
       d="m 218,136 c 55,0 108,-28 108,-89 0,-71 -55,-121 -102,-149 -35,-21 -75,-34 -116,-34 -55,0 -108,28 -108,89 0,71 55,121 102,149 35,21 75,34 116,34 z"
       fill="currentColor"
       id="path108" />
  </a>
  <a
     style="color:inherit"
     xlink:href="textedit:///Users/philippeperret/Sites/MusicScore/score_building/code/visu-not-trimed.ly:40:33:34"
     id="a114"
     transform="translate(-4.4786,-3.8303)">
    <path
       transform="matrix(0.004,0,0,-0.004,40.069,17.6093)"
       d="m 218,136 c 55,0 108,-28 108,-89 0,-71 -55,-121 -102,-149 -35,-21 -75,-34 -116,-34 -55,0 -108,28 -108,89 0,71 55,121 102,149 35,21 75,34 116,34 z"
       fill="currentColor"
       id="path112" />
  </a>
  <rect
     x="36.764599"
     y="10.969"
     width="0.13"
     height="2.6238999"
     ry="0.039999999"
     fill="currentColor"
     id="rect116" />
  <a
     style="color:inherit"
     xlink:href="textedit:///Users/philippeperret/Sites/MusicScore/score_building/code/visu-not-trimed.ly:30:29:30"
     id="a120"
     transform="translate(-4.4786,-3.8303)">
    <path
       transform="matrix(0.004,0,0,-0.004,42.3232,6.1093)"
       d="m 218,136 c 55,0 108,-28 108,-89 0,-71 -55,-121 -102,-149 -35,-21 -75,-34 -116,-34 -55,0 -108,28 -108,89 0,71 55,121 102,149 35,21 75,34 116,34 z"
       fill="currentColor"
       id="path118" />
  </a>
  <polygon
     transform="translate(45.093,5.779)"
     stroke-linejoin="round"
     stroke-linecap="round"
     stroke-width="0.08"
     fill="currentColor"
     stroke="currentColor"
     points="0.04,0.2 0.04,-0.2 12.3611,-0.2 12.3611,0.2 "
     id="polygon122" />
  <polygon
     transform="translate(45.093,6.589)"
     stroke-linejoin="round"
     stroke-linecap="round"
     stroke-width="0.08"
     fill="currentColor"
     stroke="currentColor"
     points="0.04,0.2 0.04,-0.2 12.3611,-0.2 12.3611,0.2 "
     id="polygon124" />
  <polygon
     transform="translate(46.2672,10.779)"
     stroke-linejoin="round"
     stroke-linecap="round"
     stroke-width="0.08"
     fill="currentColor"
     stroke="currentColor"
     points="0.04,0.2 0.04,-0.2 5.0984,0.99 5.0984,1.39 "
     id="polygon126" />
  <polygon
     transform="translate(31.2562,10.969)"
     stroke-linejoin="round"
     stroke-linecap="round"
     stroke-width="0.08"
     fill="currentColor"
     stroke="currentColor"
     points="0.04,0.2 0.04,-0.2 10.1068,-0.2 10.1068,0.2 "
     id="polygon128" />
  <polygon
     transform="translate(31.2562,11.779)"
     stroke-linejoin="round"
     stroke-linecap="round"
     stroke-width="0.08"
     fill="currentColor"
     stroke="currentColor"
     points="0.04,0.2 0.04,-0.2 10.1068,-0.2 10.1068,0.2 "
     id="polygon130" />
  <polygon
     transform="translate(27.682,6.589)"
     stroke-linejoin="round"
     stroke-linecap="round"
     stroke-width="0.08"
     fill="currentColor"
     stroke="currentColor"
     points="0.04,0.2 0.04,-0.2 10.2526,-0.2 10.2526,0.2 "
     id="polygon132" />
  <polygon
     transform="translate(14.8043,0.969)"
     stroke-linejoin="round"
     stroke-linecap="round"
     stroke-width="0.08"
     fill="currentColor"
     stroke="currentColor"
     points="0.04,0.2 0.04,-0.2 10.1068,-0.2 10.1068,0.2 "
     id="polygon134" />
  <polygon
     transform="translate(14.8043,1.779)"
     stroke-linejoin="round"
     stroke-linecap="round"
     stroke-width="0.08"
     fill="currentColor"
     stroke="currentColor"
     points="0.04,0.2 0.04,-0.2 10.1068,-0.2 10.1068,0.2 "
     id="polygon136" />
  <a
     style="color:inherit"
     xlink:href="textedit:///Users/philippeperret/Sites/MusicScore/score_building/code/visu-not-trimed.ly:30:19:20"
     id="a140"
     transform="translate(-4.4786,-3.8303)">
    <path
       transform="matrix(0.004,0,0,-0.004,28.1256,9.6093)"
       d="m 218,136 c 55,0 108,-28 108,-89 0,-71 -55,-121 -102,-149 -35,-21 -75,-34 -116,-34 -55,0 -108,28 -108,89 0,71 55,121 102,149 35,21 75,34 116,34 z"
       fill="currentColor"
       id="path138" />
  </a>
  <rect
     x="24.821199"
     y="0.96900004"
     width="0.13"
     height="4.6238999"
     ry="0.039999999"
     fill="currentColor"
     id="rect142" />
  <a
     style="color:inherit"
     xlink:href="textedit:///Users/philippeperret/Sites/MusicScore/score_building/code/visu-not-trimed.ly:30:23:24"
     id="a146"
     transform="translate(-4.4786,-3.8303)">
    <path
       transform="matrix(0.004,0,0,-0.004,32.1606,6.1093)"
       d="m 218,136 c 55,0 108,-28 108,-89 0,-71 -55,-121 -102,-149 -35,-21 -75,-34 -116,-34 -55,0 -108,28 -108,89 0,71 55,121 102,149 35,21 75,34 116,34 z"
       fill="currentColor"
       id="path144" />
  </a>
  <a
     style="color:inherit"
     xlink:href="textedit:///Users/philippeperret/Sites/MusicScore/score_building/code/visu-not-trimed.ly:40:25:26"
     id="a150"
     transform="translate(-4.4786,-3.8303)">
    <path
       transform="matrix(0.004,0,0,-0.004,32.1606,16.6093)"
       d="m 66,-500 101,327 c -34,-12 -70,-23 -106,-23 -46,0 -87,33 -87,79 0,40 32,72 72,72 25,0 49,-15 57,-39 10,-28 5,-59 34,-59 16,0 55,51 60,68 L 243,76 C 209,64 175,54 139,54 93,54 52,87 52,133 c 0,40 33,72 73,72 25,0 48,-15 56,-39 10,-28 5,-59 34,-59 15,0 50,49 57,63 6,12 23,12 28,0 L 121,-500 c -8,-7 -17,-10 -27,-10 -10,0 -20,3 -28,10 z"
       fill="currentColor"
       id="path148" />
  </a>
  <rect
     x="27.681999"
     y="2.4651"
     width="0.13"
     height="4.1238999"
     ry="0.039999999"
     fill="currentColor"
     id="rect152" />
  <a
     style="color:inherit"
     xlink:href="textedit:///Users/philippeperret/Sites/MusicScore/score_building/code/visu-not-trimed.ly:40:37:38"
     id="a156"
     transform="translate(-4.4786,-3.8303)">
    <path
       transform="matrix(0.004,0,0,-0.004,44.5774,19.6093)"
       d="m 218,136 c 55,0 108,-28 108,-89 0,-71 -55,-121 -102,-149 -35,-21 -75,-34 -116,-34 -55,0 -108,28 -108,89 0,71 55,121 102,149 35,21 75,34 116,34 z"
       fill="currentColor"
       id="path154" />
  </a>
  <a
     style="color:inherit"
     xlink:href="textedit:///Users/philippeperret/Sites/MusicScore/score_building/code/visu-not-trimed.ly:40:35:36"
     id="a160"
     transform="translate(-4.4786,-3.8303)">
    <path
       transform="matrix(0.004,0,0,-0.004,42.3232,18.6093)"
       d="m 218,136 c 55,0 108,-28 108,-89 0,-71 -55,-121 -102,-149 -35,-21 -75,-34 -116,-34 -55,0 -108,28 -108,89 0,71 55,121 102,149 35,21 75,34 116,34 z"
       fill="currentColor"
       id="path158" />
  </a>
  <rect
     x="37.844601"
     y="2.4651"
     width="0.13"
     height="4.1238999"
     ry="0.039999999"
     fill="currentColor"
     id="rect162" />
  <rect
     x="39.018799"
     y="10.969"
     width="0.13"
     height="3.6238999"
     ry="0.039999999"
     fill="currentColor"
     id="rect164" />
  <rect
     x="41.272999"
     y="10.969"
     width="0.13"
     height="4.6238999"
     ry="0.039999999"
     fill="currentColor"
     id="rect166" />
  <a
     style="color:inherit"
     xlink:href="textedit:///Users/philippeperret/Sites/MusicScore/score_building/code/visu-not-trimed.ly:30:33:34"
     id="a170"
     transform="translate(-4.4786,-3.8303)">
    <path
       transform="matrix(0.004,0,0,-0.004,49.5716,6.6093)"
       d="m 218,136 c 55,0 108,-28 108,-89 0,-71 -55,-121 -102,-149 -35,-21 -75,-34 -116,-34 -55,0 -108,28 -108,89 0,71 55,121 102,149 35,21 75,34 116,34 z"
       fill="currentColor"
       id="path168" />
  </a>
  <a
     style="color:inherit"
     xlink:href="textedit:///Users/philippeperret/Sites/MusicScore/score_building/code/visu-not-trimed.ly:40:41:42"
     id="a174"
     transform="translate(-4.4786,-3.8303)">
    <path
       transform="matrix(0.004,0,0,-0.004,49.5716,17.6093)"
       d="m 218,136 c 55,0 108,-28 108,-89 0,-71 -55,-121 -102,-149 -35,-21 -75,-34 -116,-34 -55,0 -108,28 -108,89 0,71 55,121 102,149 35,21 75,34 116,34 z"
       fill="currentColor"
       id="path172" />
  </a>
  <a
     style="color:inherit"
     xlink:href="textedit:///Users/philippeperret/Sites/MusicScore/score_building/code/visu-not-trimed.ly:40:44:45"
     id="a178"
     transform="translate(-4.4786,-3.8303)">
    <path
       transform="matrix(0.004,0,0,-0.004,50.2237,13.5163)"
       d="m 20,-147 c 0,-11 -9,-20 -20,-20 -11,0 -20,9 -20,20 v 81 l -33,-50 c -4,-6 -10,-9 -17,-9 -6,0 -11,2 -15,7 L -184,1 c -10,-16 -21,-31 -31,-47 -4,-6 -9,-9 -16,-9 -11,0 -20,9 -20,20 0,4 1,8 3,11 31,47 62,93 93,140 4,6 10,9 17,9 6,0 11,-2 15,-7 l 98,-119 5,7 v 141 c 0,11 9,20 20,20 11,0 20,-9 20,-20 V 66 l 33,50 c 4,6 10,9 17,9 6,0 11,-2 15,-7 l 99,-119 8,12 33,-22 -70,-105 c -4,-6 -10,-9 -17,-9 -6,0 -11,2 -15,7 L 25,1 20,-6 Z M 215,46 c 4,6 9,9 16,9 11,0 20,-9 20,-20 0,-4 -1,-8 -3,-11 l -23,-35 -33,22 z"
       fill="currentColor"
       id="path176" />
  </a>
  <rect
     x="45.092999"
     y="2.9651"
     width="0.13"
     height="3.6238999"
     ry="0.039999999"
     fill="currentColor"
     id="rect180" />
  <path
     d="m 4.24,12.279 c 0,-0.112 0.092,-0.204 0.204,-0.204 0.112,0 0.204,0.092 0.204,0.204 0,0.112 -0.092,0.204 -0.204,0.204 -0.112,0 -0.204,-0.092 -0.204,-0.204 z m 0,-1 c 0,-0.112 0.092,-0.204 0.204,-0.204 0.112,0 0.204,0.092 0.204,0.204 0,0.112 -0.092,0.204 -0.204,0.204 -0.112,0 -0.204,-0.092 -0.204,-0.204 z m -1.3,-0.552 c 0.688,0 1.172,0.352 1.172,1.004 0,1.052 -1.052,1.656 -2.064,2.084 -0.012,0.012 -0.024,0.016 -0.036,0.016 -0.028,0 -0.052,-0.024 -0.052,-0.052 0,-0.012 0.004,-0.024 0.016,-0.036 0.808,-0.472 1.648,-1.06 1.648,-1.972 0,-0.48 -0.252,-0.94 -0.684,-0.94 -0.296,0 -0.516,0.216 -0.616,0.504 0.044,-0.02 0.088,-0.032 0.136,-0.032 0.22,0 0.4,0.18 0.4,0.4 0,0.232 -0.176,0.424 -0.4,0.424 -0.24,0 -0.448,-0.188 -0.448,-0.424 0,-0.532 0.408,-0.976 0.928,-0.976 z"
     fill="currentColor"
     id="path182"
     style="stroke-width:0.004" />
  <path
     d="m 0.792,10.271 c 0,1.044 -0.408,2.064 -0.408,3.06 0,0.54 0.12,1.044 0.516,1.44 0.06,0.06 -0.036,0.156 -0.096,0.096 -0.528,-0.54 -0.708,-1.248 -0.708,-2.004 0,-1.068 0.432,-2.112 0.432,-3.12 0,-0.54 -0.132,-1.044 -0.516,-1.44 C 0,8.291 0,8.291 0,8.279 0,8.267 0,8.267 0.012,8.255 c 0.384,-0.396 0.516,-0.9 0.516,-1.44 0,-1.008 -0.432,-2.052 -0.432,-3.12 0,-0.756 0.18,-1.464 0.708,-2.004 0.06,-0.06 0.156,0.036 0.096,0.096 -0.396,0.396 -0.516,0.9 -0.516,1.44 0,0.996 0.408,2.016 0.408,3.06 0,0.744 -0.18,1.452 -0.696,1.992 0.516,0.54 0.696,1.248 0.696,1.992 z"
     fill="currentColor"
     id="path184"
     style="stroke-width:0.004" />
  <rect
     x="1.152"
     y="1.7289999"
     width="0.16"
     height="13.1"
     ry="0.050000001"
     fill="currentColor"
     id="rect186" />
  <a
     style="color:inherit"
     xlink:href="textedit:///Users/philippeperret/Sites/MusicScore/score_building/code/visu-not-trimed.ly:30:7:8"
     id="a190"
     transform="translate(-4.4786,-3.8303)">
    <path
       transform="matrix(0.004,0,0,-0.004,15.7087,7.6093)"
       d="m 66,-500 101,327 c -34,-12 -70,-23 -106,-23 -46,0 -87,33 -87,79 0,40 32,72 72,72 25,0 49,-15 57,-39 10,-28 5,-59 34,-59 16,0 55,51 60,68 L 243,76 C 209,64 175,54 139,54 93,54 52,87 52,133 c 0,40 33,72 73,72 25,0 48,-15 56,-39 10,-28 5,-59 34,-59 15,0 50,49 57,63 6,12 23,12 28,0 L 121,-500 c -8,-7 -17,-10 -27,-10 -10,0 -20,3 -28,10 z"
       fill="currentColor"
       id="path188" />
  </a>
  <path
     d="M 3.076,7.319 H 3.052 c -0.432,0 -0.78,-0.352 -0.78,-0.788 0,-0.232 0.212,-0.412 0.448,-0.412 0.216,0 0.38,0.188 0.38,0.412 0,0.208 -0.172,0.38 -0.38,0.38 -0.044,0 -0.084,-0.008 -0.124,-0.024 0.104,0.156 0.272,0.26 0.468,0.26 H 3.08 Z M 3.856,5.591 C 4.128,5.495 4.308,5.211 4.308,4.935 4.308,4.575 4.044,4.219 3.616,4.175 3.712,4.639 3.8,5.099 3.856,5.591 Z M 2.308,4.667 c 0,0.54 0.516,0.988 1.056,0.988 0.112,0 0.22,-0.008 0.328,-0.024 C 3.636,5.123 3.544,4.651 3.44,4.175 3.124,4.207 2.944,4.419 2.944,4.651 c 0,0.176 0.1,0.364 0.324,0.492 0.02,0.02 0.028,0.04 0.028,0.06 0,0.044 -0.04,0.088 -0.088,0.088 C 3.196,5.291 3.184,5.287 3.172,5.283 2.852,5.111 2.704,4.823 2.704,4.543 2.704,4.191 2.936,3.847 3.344,3.755 3.288,3.523 3.228,3.287 3.16,3.055 2.732,3.539 2.308,4.027 2.308,4.667 Z m 1.044,1.16 C 2.6,5.827 2.02,5.139 2.02,4.331 2.02,3.623 2.544,3.107 3.012,2.567 2.936,2.319 2.864,2.067 2.832,1.807 2.808,1.599 2.804,1.391 2.804,1.183 c 0,-0.46 0.22,-0.896 0.596,-1.168 0.024,-0.02 0.056,-0.02 0.08,0 0.284,0.336 0.532,0.98 0.532,1.432 0,0.572 -0.344,1.02 -0.72,1.456 0.084,0.272 0.156,0.552 0.224,0.828 0.016,0 0.036,-0.004 0.052,-0.004 0.62,0 1.024,0.512 1.024,1.044 0,0.304 -0.132,0.616 -0.428,0.84 -0.088,0.068 -0.188,0.112 -0.292,0.144 0.012,0.14 0.02,0.28 0.02,0.42 0,0.076 -0.004,0.156 -0.008,0.232 -0.028,0.476 -0.352,0.9 -0.808,0.912 L 3.08,7.147 C 3.452,7.139 3.692,6.779 3.716,6.383 3.72,6.311 3.724,6.235 3.724,6.163 3.724,6.039 3.72,5.919 3.708,5.795 3.592,5.815 3.476,5.827 3.352,5.827 Z M 3.724,1.115 C 3.724,0.895 3.708,0.799 3.644,0.599 3.248,0.791 2.996,1.195 2.996,1.635 2.996,1.931 3.068,2.167 3.14,2.411 3.46,2.023 3.724,1.619 3.724,1.115 Z"
     fill="currentColor"
     id="path192"
     style="stroke-width:0.004" />
  <a
     style="color:inherit"
     xlink:href="textedit:///Users/philippeperret/Sites/MusicScore/score_building/code/visu-not-trimed.ly:28:6:7"
     id="a196"
     transform="translate(-4.4786,-3.8303)">
    <path
       transform="matrix(0.004,0,0,-0.004,9.9906,5.6093)"
       d="m 216,-312 c 0,-10 -8,-19 -18,-19 -10,0 -19,9 -19,19 v 145 l -83,-31 v -158 c 0,-10 -9,-19 -19,-19 -10,0 -18,9 -18,19 v 145 l -32,-12 c -2,-1 -5,-1 -7,-1 -11,0 -20,9 -20,20 v 60 c 0,8 5,16 13,19 l 46,16 V 51 L 27,40 C 25,39 22,39 20,39 9,39 0,48 0,59 v 60 c 0,8 5,15 13,18 l 46,17 v 158 c 0,10 8,19 18,19 10,0 19,-9 19,-19 V 167 l 83,31 v 158 c 0,10 9,19 19,19 10,0 18,-9 18,-19 V 211 l 32,12 c 2,1 5,1 7,1 11,0 20,-9 20,-20 v -60 c 0,-8 -5,-16 -13,-19 L 216,109 V -51 l 32,11 c 2,1 5,1 7,1 11,0 20,-9 20,-20 v -60 c 0,-8 -5,-15 -13,-18 l -46,-17 z M 96,65 V -95 l 83,30 V 95 Z"
       fill="currentColor"
       id="path194" />
  </a>
  <a
     style="color:inherit"
     xlink:href="textedit:///Users/philippeperret/Sites/MusicScore/score_building/code/visu-not-trimed.ly:25:6:7"
     id="a202"
     transform="translate(-4.4786,-3.8303)">
    <path
       transform="matrix(0.004,0,0,-0.004,12.3088,7.6093)"
       d="m 150,477 c -29,0 -59,-8 -59,-33 0,-22 36,-25 36,-47 0,-32 -26,-58 -58,-58 -32,0 -57,26 -57,58 0,65 67,103 138,103 91,0 169,-33 169,-114 0,-43 -4,-82 -42,-100 -9,-4 -14,-12 -14,-21 0,-9 5,-18 14,-22 41,-19 56,-57 56,-103 C 333,48 254,0 154,0 75,0 0,42 0,113 c 0,36 30,66 66,66 36,0 65,-30 65,-66 0,-25 -40,-28 -40,-53 0,-27 32,-37 63,-37 49,0 63,61 63,117 v 16 c 0,54 -2,94 -50,94 H 87 c -10,0 -14,8 -14,15 0,7 4,14 14,14 h 80 c 49,0 50,43 50,99 v 8 c 0,54 -18,91 -67,91 z"
       fill="currentColor"
       id="path198" />
    <path
       transform="matrix(0.004,0,0,-0.004,12.2406,9.6237)"
       d="m 259,288 c 27,29 49,62 49,102 0,55 -57,87 -117,87 -47,0 -75,-36 -75,-71 0,-20 10,-40 30,-52 z m 30,-17 C 344,240 372,192 372,144 372,71 306,0 183,0 89,0 0,54 0,140 c 0,50 39,85 76,120 -41,28 -61,67 -61,106 0,68 61,134 176,134 81,0 161,-38 161,-110 0,-47 -30,-85 -63,-119 z M 106,242 C 73,213 44,183 44,140 44,71 110,23 183,23 c 54,0 86,42 86,83 0,24 -10,48 -35,62 z"
       fill="currentColor"
       id="path200" />
  </a>
  <a
     style="color:inherit"
     xlink:href="textedit:///Users/philippeperret/Sites/MusicScore/score_building/code/visu-not-trimed.ly:40:7:8"
     id="a206"
     transform="translate(-4.4786,-3.8303)">
    <path
       transform="matrix(0.004,0,0,-0.004,15.7087,16.1093)"
       d="m 218,136 c 55,0 108,-28 108,-89 0,-71 -55,-121 -102,-149 -35,-21 -75,-34 -116,-34 -55,0 -108,28 -108,89 0,71 55,121 102,149 35,21 75,34 116,34 z"
       fill="currentColor"
       id="path204" />
  </a>
  <a
     style="color:inherit"
     xlink:href="textedit:///Users/philippeperret/Sites/MusicScore/score_building/code/visu-not-trimed.ly:40:9:10"
     id="a210"
     transform="translate(-4.4786,-3.8303)">
    <path
       transform="matrix(0.004,0,0,-0.004,16.3608,12.5235)"
       d="m 20,-147 c 0,-11 -9,-20 -20,-20 -11,0 -20,9 -20,20 v 81 l -33,-50 c -4,-6 -10,-9 -17,-9 -6,0 -11,2 -15,7 L -184,1 c -10,-16 -21,-31 -31,-47 -4,-6 -9,-9 -16,-9 -11,0 -20,9 -20,20 0,4 1,8 3,11 31,47 62,93 93,140 4,6 10,9 17,9 6,0 11,-2 15,-7 l 98,-119 5,7 v 141 c 0,11 9,20 20,20 11,0 20,-9 20,-20 V 66 l 33,50 c 4,6 10,9 17,9 6,0 11,-2 15,-7 l 99,-119 8,12 33,-22 -70,-105 c -4,-6 -10,-9 -17,-9 -6,0 -11,2 -15,7 L 25,1 20,-6 Z M 215,46 c 4,6 9,9 16,9 11,0 20,-9 20,-20 0,-4 -1,-8 -3,-11 l -23,-35 -33,22 z"
       fill="currentColor"
       id="path208" />
  </a>
  <a
     style="color:inherit"
     xlink:href="textedit:///Users/philippeperret/Sites/MusicScore/score_building/code/visu-not-trimed.ly:39:6:7"
     id="a214"
     transform="translate(-4.4786,-3.8303)">
    <path
       transform="matrix(0.004,0,0,-0.004,9.9906,15.6093)"
       d="m 216,-312 c 0,-10 -8,-19 -18,-19 -10,0 -19,9 -19,19 v 145 l -83,-31 v -158 c 0,-10 -9,-19 -19,-19 -10,0 -18,9 -18,19 v 145 l -32,-12 c -2,-1 -5,-1 -7,-1 -11,0 -20,9 -20,20 v 60 c 0,8 5,16 13,19 l 46,16 V 51 L 27,40 C 25,39 22,39 20,39 9,39 0,48 0,59 v 60 c 0,8 5,15 13,18 l 46,17 v 158 c 0,10 8,19 18,19 10,0 19,-9 19,-19 V 167 l 83,31 v 158 c 0,10 9,19 19,19 10,0 18,-9 18,-19 V 211 l 32,12 c 2,1 5,1 7,1 11,0 20,-9 20,-20 v -60 c 0,-8 -5,-16 -13,-19 L 216,109 V -51 l 32,11 c 2,1 5,1 7,1 11,0 20,-9 20,-20 v -60 c 0,-8 -5,-15 -13,-18 l -46,-17 z M 96,65 V -95 l 83,30 V 95 Z"
       fill="currentColor"
       id="path212" />
  </a>
  <a
     style="color:inherit"
     xlink:href="textedit:///Users/philippeperret/Sites/MusicScore/score_building/code/visu-not-trimed.ly:36:6:7"
     id="a220"
     transform="translate(-4.4786,-3.8303)">
    <path
       transform="matrix(0.004,0,0,-0.004,12.3088,16.6093)"
       d="m 150,477 c -29,0 -59,-8 -59,-33 0,-22 36,-25 36,-47 0,-32 -26,-58 -58,-58 -32,0 -57,26 -57,58 0,65 67,103 138,103 91,0 169,-33 169,-114 0,-43 -4,-82 -42,-100 -9,-4 -14,-12 -14,-21 0,-9 5,-18 14,-22 41,-19 56,-57 56,-103 C 333,48 254,0 154,0 75,0 0,42 0,113 c 0,36 30,66 66,66 36,0 65,-30 65,-66 0,-25 -40,-28 -40,-53 0,-27 32,-37 63,-37 49,0 63,61 63,117 v 16 c 0,54 -2,94 -50,94 H 87 c -10,0 -14,8 -14,15 0,7 4,14 14,14 h 80 c 49,0 50,43 50,99 v 8 c 0,54 -18,91 -67,91 z"
       fill="currentColor"
       id="path216" />
    <path
       transform="matrix(0.004,0,0,-0.004,12.2406,18.6237)"
       d="m 259,288 c 27,29 49,62 49,102 0,55 -57,87 -117,87 -47,0 -75,-36 -75,-71 0,-20 10,-40 30,-52 z m 30,-17 C 344,240 372,192 372,144 372,71 306,0 183,0 89,0 0,54 0,140 c 0,50 39,85 76,120 -41,28 -61,67 -61,106 0,68 61,134 176,134 81,0 161,-38 161,-110 0,-47 -30,-85 -63,-119 z M 106,242 C 73,213 44,183 44,140 44,71 110,23 183,23 c 54,0 86,42 86,83 0,24 -10,48 -35,62 z"
       fill="currentColor"
       id="path218" />
  </a>
  <rect
     x="12.4043"
     y="9.8013"
     width="0.13"
     height="2.2916"
     ry="0.039999999"
     fill="currentColor"
     id="rect222" />
  <a
     style="color:inherit"
     xlink:href="textedit:///Users/philippeperret/Sites/MusicScore/score_building/code/visu-not-trimed.ly:30:45:46"
     id="a226"
     transform="translate(-4.4786,-3.8303)">
    <path
       transform="matrix(0.004,0,0,-0.004,57.3343,5.6093)"
       d="m 218,136 c 55,0 108,-28 108,-89 0,-71 -55,-121 -102,-149 -35,-21 -75,-34 -116,-34 -55,0 -108,28 -108,89 0,71 55,121 102,149 35,21 75,34 116,34 z"
       fill="currentColor"
       id="path224" />
  </a>
  <a
     style="color:inherit"
     xlink:href="textedit:///Users/philippeperret/Sites/MusicScore/score_building/code/visu-not-trimed.ly:30:41:42"
     id="a230"
     transform="translate(-4.4786,-3.8303)">
    <path
       transform="matrix(0.004,0,0,-0.004,54.58,6.6093)"
       d="m 218,136 c 55,0 108,-28 108,-89 0,-71 -55,-121 -102,-149 -35,-21 -75,-34 -116,-34 -55,0 -108,28 -108,89 0,71 55,121 102,149 35,21 75,34 116,34 z"
       fill="currentColor"
       id="path228" />
  </a>
  <rect
     x="50.101398"
     y="2.9651"
     width="0.13"
     height="3.6238999"
     ry="0.039999999"
     fill="currentColor"
     id="rect232" />
  <rect
     x="51.2757"
     y="11.9539"
     width="0.13"
     height="5.1388998"
     ry="0.039999999"
     fill="currentColor"
     id="rect234" />
  <a
     style="color:inherit"
     xlink:href="textedit:///Users/philippeperret/Sites/MusicScore/score_building/code/visu-not-trimed.ly:40:53:54"
     id="a238"
     transform="translate(-4.4786,-3.8303)">
    <path
       transform="matrix(0.004,0,0,-0.004,54.58,21.1093)"
       d="m 218,136 c 55,0 108,-28 108,-89 0,-71 -55,-121 -102,-149 -35,-21 -75,-34 -116,-34 -55,0 -108,28 -108,89 0,71 55,121 102,149 35,21 75,34 116,34 z"
       fill="currentColor"
       id="path236" />
  </a>
  <rect
     x="52.855701"
     y="1.9651"
     width="0.13"
     height="4.6238999"
     ry="0.039999999"
     fill="currentColor"
     id="rect240" />
  <a
     style="color:inherit"
     xlink:href="textedit:///Users/philippeperret/Sites/MusicScore/score_building/code/visu-not-trimed.ly:30:49:50"
     id="a244"
     transform="translate(-4.4786,-3.8303)">
    <path
       transform="matrix(0.004,0,0,-0.004,59.5885,6.6093)"
       d="m 218,136 c 55,0 108,-28 108,-89 0,-71 -55,-121 -102,-149 -35,-21 -75,-34 -116,-34 -55,0 -108,28 -108,89 0,71 55,121 102,149 35,21 75,34 116,34 z"
       fill="currentColor"
       id="path242" />
  </a>
  <a
     style="color:inherit"
     xlink:href="textedit:///Users/philippeperret/Sites/MusicScore/score_building/code/visu-not-trimed.ly:40:56:57"
     id="a248"
     transform="translate(-4.4786,-3.8303)">
    <path
       transform="matrix(0.004,0,0,-0.004,59.5885,16.6093)"
       d="M 72,-250 189,76 C 155,64 120,54 84,54 38,54 -3,87 -3,133 c 0,40 33,72 73,72 25,0 48,-15 56,-39 10,-28 6,-59 35,-59 16,0 54,48 61,63 6,12 23,12 28,0 L 127,-250 c -8,-7 -17,-10 -27,-10 -10,0 -20,3 -28,10 z"
       fill="currentColor"
       id="path246" />
  </a>
  <rect
     x="55.109901"
     y="2.9651"
     width="0.13"
     height="3.6238999"
     ry="0.039999999"
     fill="currentColor"
     id="rect250" />
  <path
     d="m 44.507,4.027 c 0,0.04 -0.032,0.076 -0.072,0.076 -0.04,0 -0.076,-0.036 -0.076,-0.076 v -0.58 l -0.332,0.124 v 0.632 c 0,0.04 -0.036,0.076 -0.076,0.076 -0.04,0 -0.072,-0.036 -0.072,-0.076 v -0.58 l -0.128,0.048 c -0.008,0.004 -0.02,0.004 -0.028,0.004 -0.044,0 -0.08,-0.036 -0.08,-0.08 v -0.24 c 0,-0.032 0.02,-0.064 0.052,-0.076 l 0.184,-0.064 v -0.64 l -0.128,0.044 c -0.008,0.004 -0.02,0.004 -0.028,0.004 -0.044,0 -0.08,-0.036 -0.08,-0.08 v -0.24 c 0,-0.032 0.02,-0.06 0.052,-0.072 L 43.879,2.163 V 1.531 c 0,-0.04 0.032,-0.076 0.072,-0.076 0.04,0 0.076,0.036 0.076,0.076 v 0.58 L 44.359,1.987 V 1.355 c 0,-0.04 0.036,-0.076 0.076,-0.076 0.04,0 0.072,0.036 0.072,0.076 v 0.58 l 0.128,-0.048 c 0.008,-0.004 0.02,-0.004 0.028,-0.004 0.044,0 0.08,0.036 0.08,0.08 v 0.24 c 0,0.032 -0.02,0.064 -0.052,0.076 l -0.184,0.064 v 0.64 l 0.128,-0.044 c 0.008,-0.004 0.02,-0.004 0.028,-0.004 0.044,0 0.08,0.036 0.08,0.08 v 0.24 c 0,0.032 -0.02,0.06 -0.052,0.072 l -0.184,0.068 z m -0.48,-1.508 v 0.64 l 0.332,-0.12 v -0.64 z"
     fill="currentColor"
     id="path252"
     style="stroke-width:0.004" />
  <rect
     x="46.2672"
     y="10.7941"
     width="0.13"
     height="2.7988"
     ry="0.039999999"
     fill="currentColor"
     id="rect254" />
  <rect
     x="47.347198"
     y="3.9651"
     width="0.13"
     height="2.6238999"
     ry="0.039999999"
     fill="currentColor"
     id="rect256" />
  <a
     style="color:inherit"
     xlink:href="textedit:///Users/philippeperret/Sites/MusicScore/score_building/code/visu-not-trimed.ly:30:39:40"
     id="a260"
     transform="translate(-4.4786,-3.8303)">
    <path
       transform="matrix(0.004,0,0,-0.004,51.8258,7.6093)"
       d="m 218,136 c 55,0 108,-28 108,-89 0,-71 -55,-121 -102,-149 -35,-21 -75,-34 -116,-34 -55,0 -108,28 -108,89 0,71 55,121 102,149 35,21 75,34 116,34 z"
       fill="currentColor"
       id="path258" />
  </a>
</svg>
