<?xml version="1.0" encoding="UTF-8" standalone="no"?>
<svg
   version="1.2"
   width="71.016319mm"
   height="26.951656mm"
   viewBox="0 0 40.412198 15.336979"
   id="svg142"
   xmlns:xlink="http://www.w3.org/1999/xlink"
   xmlns="http://www.w3.org/2000/svg"
   xmlns:svg="http://www.w3.org/2000/svg">
  <defs
     id="defs146" />
  <style
     text="style/css"
     id="style2"><![CDATA[
tspan { white-space: pre; }
]]></style>
  <!-- Page: 1/1 -->
  <line
     stroke-linejoin="round"
     stroke-linecap="round"
     stroke-width="0.1"
     stroke="currentColor"
     x1="1.262"
     y1="6.2299814"
     x2="40.362202"
     y2="6.2299814"
     id="line4" />
  <line
     stroke-linejoin="round"
     stroke-linecap="round"
     stroke-width="0.1"
     stroke="currentColor"
     x1="1.262"
     y1="5.2299814"
     x2="40.362202"
     y2="5.2299814"
     id="line6" />
  <line
     stroke-linejoin="round"
     stroke-linecap="round"
     stroke-width="0.1"
     stroke="currentColor"
     x1="1.262"
     y1="4.2299814"
     x2="40.362202"
     y2="4.2299814"
     id="line8" />
  <line
     stroke-linejoin="round"
     stroke-linecap="round"
     stroke-width="0.1"
     stroke="currentColor"
     x1="1.262"
     y1="3.2299817"
     x2="40.362202"
     y2="3.2299817"
     id="line10" />
  <line
     stroke-linejoin="round"
     stroke-linecap="round"
     stroke-width="0.1"
     stroke="currentColor"
     x1="1.262"
     y1="2.2299817"
     x2="40.362202"
     y2="2.2299817"
     id="line12" />
  <rect
     x="24.699499"
     y="7.1299815"
     width="1.9563"
     height="0.2"
     ry="0.1"
     fill="currentColor"
     id="rect14" />
  <rect
     x="21.697201"
     y="7.1299815"
     width="1.9563"
     height="0.2"
     ry="0.1"
     fill="currentColor"
     id="rect16" />
  <rect
     x="18.695"
     y="7.1299815"
     width="1.9563"
     height="0.2"
     ry="0.1"
     fill="currentColor"
     id="rect18" />
  <rect
     x="18.695"
     y="8.129982"
     width="1.9563"
     height="0.2"
     ry="0.1"
     fill="currentColor"
     id="rect20" />
  <rect
     x="12.6905"
     y="7.1299815"
     width="1.9563"
     height="0.2"
     ry="0.1"
     fill="currentColor"
     id="rect22" />
  <rect
     x="9.6882"
     y="7.1299815"
     width="1.9563"
     height="0.2"
     ry="0.1"
     fill="currentColor"
     id="rect24" />
  <rect
     x="6.6858997"
     y="7.1299815"
     width="1.9563"
     height="0.2"
     ry="0.1"
     fill="currentColor"
     id="rect26" />
  <rect
     x="6.6858997"
     y="8.129982"
     width="1.9563"
     height="0.2"
     ry="0.1"
     fill="currentColor"
     id="rect28" />
  <line
     stroke-linejoin="round"
     stroke-linecap="round"
     stroke-width="0.1"
     stroke="currentColor"
     x1="1.262"
     y1="15.229981"
     x2="30.855499"
     y2="15.229981"
     id="line30" />
  <line
     stroke-linejoin="round"
     stroke-linecap="round"
     stroke-width="0.1"
     stroke="currentColor"
     x1="1.262"
     y1="14.229981"
     x2="30.855499"
     y2="14.229981"
     id="line32" />
  <line
     stroke-linejoin="round"
     stroke-linecap="round"
     stroke-width="0.1"
     stroke="currentColor"
     x1="1.262"
     y1="13.229981"
     x2="30.855499"
     y2="13.229981"
     id="line34" />
  <line
     stroke-linejoin="round"
     stroke-linecap="round"
     stroke-width="0.1"
     stroke="currentColor"
     x1="1.262"
     y1="12.229981"
     x2="30.855499"
     y2="12.229981"
     id="line36" />
  <line
     stroke-linejoin="round"
     stroke-linecap="round"
     stroke-width="0.1"
     stroke="currentColor"
     x1="1.262"
     y1="11.229981"
     x2="30.855499"
     y2="11.229981"
     id="line38" />
  <a
     style="color:inherit"
     xlink:href="textedit:///Users/philippeperret/Sites/MusicScore/score_building/code/visu-not-trimed.ly:33:25:26"
     id="a42"
     transform="translate(-21.5502,-12.396118)">
    <path
       transform="matrix(0.004,0,0,-0.004,46.5757,19.6261)"
       d="m 218,136 c 55,0 108,-28 108,-89 0,-71 -55,-121 -102,-149 -35,-21 -75,-34 -116,-34 -55,0 -108,28 -108,89 0,71 55,121 102,149 35,21 75,34 116,34 z"
       fill="currentColor"
       id="path40" />
  </a>
  <a
     style="color:inherit"
     xlink:href="textedit:///Users/philippeperret/Sites/MusicScore/score_building/code/visu-not-trimed.ly:33:37:38"
     id="a46"
     transform="translate(-21.5502,-12.396118)">
    <path
       transform="matrix(0.004,0,0,-0.004,46.5757,18.1261)"
       d="m 218,136 c 55,0 108,-28 108,-89 0,-71 -55,-121 -102,-149 -35,-21 -75,-34 -116,-34 -55,0 -108,28 -108,89 0,71 55,121 102,149 35,21 75,34 116,34 z"
       fill="currentColor"
       id="path44" />
  </a>
  <rect
     x="26.1998"
     y="2.2299817"
     width="0.13"
     height="4.8139"
     ry="0.039999999"
     fill="currentColor"
     id="rect48" />
  <a
     style="color:inherit"
     xlink:href="textedit:///Users/philippeperret/Sites/MusicScore/score_building/code/visu-not-trimed.ly:43:7:8"
     id="a52"
     transform="translate(-21.5502,-12.396118)">
    <path
       transform="matrix(0.004,0,0,-0.004,28.5622,27.1261)"
       d="m 213,112 c -50,0 -69,-43 -69,-88 0,-77 57,-136 134,-136 50,0 69,43 69,88 0,77 -57,136 -134,136 z M 491,0 c 0,-43 -34,-75 -72,-96 -53,-29 -114,-40 -174,-40 -60,0 -120,11 -173,40 -38,21 -72,53 -72,96 0,43 34,75 72,96 53,29 113,40 173,40 60,0 121,-11 174,-40 38,-21 72,-53 72,-96 z"
       fill="currentColor"
       id="path50" />
  </a>
  <a
     style="color:inherit"
     xlink:href="textedit:///Users/philippeperret/Sites/MusicScore/score_building/code/visu-not-trimed.ly:33:46:47"
     id="a56"
     transform="translate(-21.5502,-12.396118)">
    <path
       transform="matrix(0.004,0,0,-0.004,49.9534,16.6261)"
       d="m 218,136 c 55,0 108,-28 108,-89 0,-71 -55,-121 -102,-149 -35,-21 -75,-34 -116,-34 -55,0 -108,28 -108,89 0,71 55,121 102,149 35,21 75,34 116,34 z"
       fill="currentColor"
       id="path54" />
  </a>
  <rect
     x="28.4032"
     y="4.4160814"
     width="0.13"
     height="3.1472001"
     ry="0.039999999"
     fill="currentColor"
     id="rect58" />
  <a
     style="color:inherit"
     xlink:href="textedit:///Users/philippeperret/Sites/MusicScore/score_building/code/visu-not-trimed.ly:33:48:49"
     id="a62"
     transform="translate(-21.5502,-12.396118)">
    <path
       transform="matrix(0.004,0,0,-0.004,52.9557,16.1261)"
       d="m 218,136 c 55,0 108,-28 108,-89 0,-71 -55,-121 -102,-149 -35,-21 -75,-34 -116,-34 -55,0 -108,28 -108,89 0,71 55,121 102,149 35,21 75,34 116,34 z"
       fill="currentColor"
       id="path60" />
  </a>
  <rect
     x="23.1975"
     y="2.7299817"
     width="0.13"
     height="4.8139"
     ry="0.039999999"
     fill="currentColor"
     id="rect64" />
  <a
     style="color:inherit"
     xlink:href="textedit:///Users/philippeperret/Sites/MusicScore/score_building/code/visu-not-trimed.ly:33:35:36"
     id="a68"
     transform="translate(-21.5502,-12.396118)">
    <path
       transform="matrix(0.004,0,0,-0.004,43.5735,18.6261)"
       d="m 218,136 c 55,0 108,-28 108,-89 0,-71 -55,-121 -102,-149 -35,-21 -75,-34 -116,-34 -55,0 -108,28 -108,89 0,71 55,121 102,149 35,21 75,34 116,34 z"
       fill="currentColor"
       id="path66" />
  </a>
  <a
     style="color:inherit"
     xlink:href="textedit:///Users/philippeperret/Sites/MusicScore/score_building/code/visu-not-trimed.ly:33:23:24"
     id="a72"
     transform="translate(-21.5502,-12.396118)">
    <path
       transform="matrix(0.004,0,0,-0.004,43.5735,20.1261)"
       d="m 218,136 c 55,0 108,-28 108,-89 0,-71 -55,-121 -102,-149 -35,-21 -75,-34 -116,-34 -55,0 -108,28 -108,89 0,71 55,121 102,149 35,21 75,34 116,34 z"
       fill="currentColor"
       id="path70" />
  </a>
  <a
     style="color:inherit"
     xlink:href="textedit:///Users/philippeperret/Sites/MusicScore/score_building/code/visu-not-trimed.ly:28:6:7"
     id="a74"
     transform="translate(-21.5502,-12.396118)" />
  <a
     style="color:inherit"
     xlink:href="textedit:///Users/philippeperret/Sites/MusicScore/score_building/code/visu-not-trimed.ly:33:52:53"
     id="a78"
     transform="translate(-21.5502,-12.396118)">
    <path
       transform="matrix(0.004,0,0,-0.004,58.9602,15.1261)"
       d="m 218,136 c 55,0 108,-28 108,-89 0,-71 -55,-121 -102,-149 -35,-21 -75,-34 -116,-34 -55,0 -108,28 -108,89 0,71 55,121 102,149 35,21 75,34 116,34 z"
       fill="currentColor"
       id="path76" />
  </a>
  <path
     d="m 4.24,12.729982 c 0,-0.112 0.092,-0.204 0.204,-0.204 0.112,0 0.204,0.092 0.204,0.204 0,0.112 -0.092,0.204 -0.204,0.204 -0.112,0 -0.204,-0.092 -0.204,-0.204 z m 0,-1 c 0,-0.112 0.092,-0.204 0.204,-0.204 0.112,0 0.204,0.092 0.204,0.204 0,0.112 -0.092,0.204 -0.204,0.204 -0.112,0 -0.204,-0.092 -0.204,-0.204 z m -1.3,-0.552 c 0.688,0 1.172,0.352 1.172,1.004 0,1.052 -1.052,1.656 -2.064,2.084 -0.012,0.012 -0.024,0.016 -0.036,0.016 -0.028,0 -0.052,-0.024 -0.052,-0.052 0,-0.012 0.004,-0.024 0.016,-0.036 0.808,-0.472 1.648,-1.06 1.648,-1.972 0,-0.48 -0.252,-0.94 -0.684,-0.94 -0.296,0 -0.516,0.216 -0.616,0.504 0.044,-0.02 0.088,-0.032 0.136,-0.032 0.22,0 0.4,0.18 0.4,0.4 0,0.232 -0.176,0.424 -0.4,0.424 -0.24,0 -0.448,-0.188 -0.448,-0.424 0,-0.532 0.408,-0.976 0.928,-0.976 z"
     fill="currentColor"
     id="path80"
     style="stroke-width:0.004" />
  <a
     style="color:inherit"
     xlink:href="textedit:///Users/philippeperret/Sites/MusicScore/score_building/code/visu-not-trimed.ly:33:50:51"
     id="a84"
     transform="translate(-21.5502,-12.396118)">
    <path
       transform="matrix(0.004,0,0,-0.004,55.9579,15.6261)"
       d="m 218,136 c 55,0 108,-28 108,-89 0,-71 -55,-121 -102,-149 -35,-21 -75,-34 -116,-34 -55,0 -108,28 -108,89 0,71 55,121 102,149 35,21 75,34 116,34 z"
       fill="currentColor"
       id="path82" />
  </a>
  <rect
     x="34.4077"
     y="3.4160817"
     width="0.13"
     height="3.3139"
     ry="0.039999999"
     fill="currentColor"
     id="rect86" />
  <rect
     x="37.41"
     y="2.9160817"
     width="0.13"
     height="3.3139"
     ry="0.039999999"
     fill="currentColor"
     id="rect88" />
  <rect
     x="8.1862001"
     y="4.2299814"
     width="0.13"
     height="3.8139"
     ry="0.039999999"
     fill="currentColor"
     id="rect90" />
  <rect
     x="31.4055"
     y="3.9160817"
     width="0.13"
     height="3.3139"
     ry="0.039999999"
     fill="currentColor"
     id="rect92" />
  <a
     style="color:inherit"
     xlink:href="textedit:///Users/philippeperret/Sites/MusicScore/score_building/code/visu-not-trimed.ly:33:10:11"
     id="a96"
     transform="translate(-21.5502,-12.396118)">
    <path
       transform="matrix(0.004,0,0,-0.004,31.5645,20.1261)"
       d="m 218,136 c 55,0 108,-28 108,-89 0,-71 -55,-121 -102,-149 -35,-21 -75,-34 -116,-34 -55,0 -108,28 -108,89 0,71 55,121 102,149 35,21 75,34 116,34 z"
       fill="currentColor"
       id="path94" />
  </a>
  <rect
     x="11.1885"
     y="4.2299814"
     width="0.13"
     height="3.3139"
     ry="0.039999999"
     fill="currentColor"
     id="rect98" />
  <a
     style="color:inherit"
     xlink:href="textedit:///Users/philippeperret/Sites/MusicScore/score_building/code/visu-not-trimed.ly:33:7:8"
     id="a102"
     transform="translate(-21.5502,-12.396118)">
    <path
       transform="matrix(0.004,0,0,-0.004,28.5622,20.6261)"
       d="m 218,136 c 55,0 108,-28 108,-89 0,-71 -55,-121 -102,-149 -35,-21 -75,-34 -116,-34 -55,0 -108,28 -108,89 0,71 55,121 102,149 35,21 75,34 116,34 z"
       fill="currentColor"
       id="path100" />
  </a>
  <a
     style="color:inherit"
     xlink:href="textedit:///Users/philippeperret/Sites/MusicScore/score_building/code/visu-not-trimed.ly:42:6:7"
     id="a104"
     transform="translate(-21.5502,-12.396118)" />
  <path
     d="m 0.792,10.721982 c 0,1.044 -0.408,2.064 -0.408,3.06 0,0.54 0.12,1.044 0.516,1.44 0.06,0.06 -0.036,0.156 -0.096,0.096 -0.528,-0.54 -0.708,-1.248 -0.708,-2.004 0,-1.068 0.432,-2.112 0.432,-3.12 C 0.528,9.6539816 0.396,9.1499816 0.012,8.7539816 0,8.7419816 0,8.7419816 0,8.7299816 c 0,-0.012 0,-0.012 0.012,-0.024 0.384,-0.396 0.516,-0.9 0.516,-1.44 0,-1.008 -0.432,-2.052 -0.432,-3.12 0,-0.756 0.18,-1.464 0.708,-2.004 0.06,-0.06 0.156,0.036 0.096,0.096 -0.396,0.396 -0.516,0.9 -0.516,1.44 0,0.996 0.408,2.016 0.408,3.06 0,0.744 -0.18,1.452 -0.696,1.992 0.516,0.54 0.696,1.248 0.696,1.9920004 z"
     fill="currentColor"
     id="path106"
     style="stroke-width:0.004" />
  <rect
     x="1.152"
     y="2.1799815"
     width="0.16"
     height="13.1"
     ry="0.050000001"
     fill="currentColor"
     id="rect108" />
  <text
     font-family="serif"
     font-size="1.7461px"
     text-anchor="start"
     fill="currentColor"
     id="text112"
     x="0.32429999"
     y="1.1799816"><tspan
       id="tspan110">1</tspan></text>
  <rect
     x="20.1952"
     y="3.2299817"
     width="0.13"
     height="4.8139"
     ry="0.039999999"
     fill="currentColor"
     id="rect114" />
  <a
     style="color:inherit"
     xlink:href="textedit:///Users/philippeperret/Sites/MusicScore/score_building/code/visu-not-trimed.ly:43:12:13"
     id="a118"
     transform="translate(-21.5502,-12.396118)">
    <path
       transform="matrix(0.004,0,0,-0.004,40.5712,26.6261)"
       d="m 213,112 c -50,0 -69,-43 -69,-88 0,-77 57,-136 134,-136 50,0 69,43 69,88 0,77 -57,136 -134,136 z M 491,0 c 0,-43 -34,-75 -72,-96 -53,-29 -114,-40 -174,-40 -60,0 -120,11 -173,40 -38,21 -72,53 -72,96 0,43 34,75 72,96 53,29 113,40 173,40 60,0 121,-11 174,-40 38,-21 72,-53 72,-96 z"
       fill="currentColor"
       id="path116" />
  </a>
  <a
     style="color:inherit"
     xlink:href="textedit:///Users/philippeperret/Sites/MusicScore/score_building/code/visu-not-trimed.ly:33:33:34"
     id="a122"
     transform="translate(-21.5502,-12.396118)">
    <path
       transform="matrix(0.004,0,0,-0.004,40.5712,19.1261)"
       d="m 218,136 c 55,0 108,-28 108,-89 0,-71 -55,-121 -102,-149 -35,-21 -75,-34 -116,-34 -55,0 -108,28 -108,89 0,71 55,121 102,149 35,21 75,34 116,34 z"
       fill="currentColor"
       id="path120" />
  </a>
  <a
     style="color:inherit"
     xlink:href="textedit:///Users/philippeperret/Sites/MusicScore/score_building/code/visu-not-trimed.ly:33:21:22"
     id="a126"
     transform="translate(-21.5502,-12.396118)">
    <path
       transform="matrix(0.004,0,0,-0.004,40.5712,20.6261)"
       d="m 218,136 c 55,0 108,-28 108,-89 0,-71 -55,-121 -102,-149 -35,-21 -75,-34 -116,-34 -55,0 -108,28 -108,89 0,71 55,121 102,149 35,21 75,34 116,34 z"
       fill="currentColor"
       id="path124" />
  </a>
  <rect
     x="17.193001"
     y="3.2299817"
     width="0.13"
     height="3.3139"
     ry="0.039999999"
     fill="currentColor"
     id="rect128" />
  <a
     style="color:inherit"
     xlink:href="textedit:///Users/philippeperret/Sites/MusicScore/score_building/code/visu-not-trimed.ly:33:14:15"
     id="a132"
     transform="translate(-21.5502,-12.396118)">
    <path
       transform="matrix(0.004,0,0,-0.004,37.569,19.1261)"
       d="m 218,136 c 55,0 108,-28 108,-89 0,-71 -55,-121 -102,-149 -35,-21 -75,-34 -116,-34 -55,0 -108,28 -108,89 0,71 55,121 102,149 35,21 75,34 116,34 z"
       fill="currentColor"
       id="path130" />
  </a>
  <path
     d="M 3.076,7.7699816 H 3.052 c -0.432,0 -0.78,-0.352 -0.78,-0.788 0,-0.232 0.212,-0.412 0.448,-0.412 0.216,0 0.38,0.188 0.38,0.412 0,0.208 -0.172,0.38 -0.38,0.38 -0.044,0 -0.084,-0.008 -0.124,-0.024 0.104,0.156 0.272,0.26 0.468,0.26 H 3.08 Z m 0.78,-1.728 c 0.272,-0.096 0.452,-0.38 0.452,-0.656 0,-0.36 -0.264,-0.716 -0.692,-0.76 0.096,0.464 0.184,0.924 0.24,1.416 z m -1.548,-0.924 c 0,0.54 0.516,0.988 1.056,0.988 0.112,0 0.22,-0.008 0.328,-0.024 -0.056,-0.508 -0.148,-0.98 -0.252,-1.456 -0.316,0.032 -0.496,0.244 -0.496,0.476 0,0.176 0.1,0.364 0.324,0.492 0.02,0.02 0.028,0.04 0.028,0.06 0,0.044 -0.04,0.088 -0.088,0.088 -0.012,0 -0.024,-0.004 -0.036,-0.008 -0.32,-0.172 -0.468,-0.46 -0.468,-0.74 0,-0.352 0.232,-0.696 0.64,-0.788 -0.056,-0.232 -0.116,-0.468 -0.184,-0.7 -0.428,0.484 -0.852,0.972 -0.852,1.612 z m 1.044,1.16 c -0.752,0 -1.332,-0.688 -1.332,-1.496 0,-0.708 0.524,-1.224 0.992,-1.764 -0.076,-0.248 -0.148,-0.5 -0.18,-0.76 -0.024,-0.208 -0.028,-0.416 -0.028,-0.624 0,-0.46 0.22,-0.89599999 0.596,-1.16799999 0.024,-0.02 0.056,-0.02 0.08,0 0.284,0.336 0.532,0.97999999 0.532,1.43199999 0,0.572 -0.344,1.02 -0.72,1.456 0.084,0.272 0.156,0.552 0.224,0.828 0.016,0 0.036,-0.004 0.052,-0.004 0.62,0 1.024,0.512 1.024,1.044 0,0.304 -0.132,0.616 -0.428,0.84 -0.088,0.068 -0.188,0.112 -0.292,0.144 0.012,0.14 0.02,0.28 0.02,0.42 0,0.076 -0.004,0.156 -0.008,0.232 -0.028,0.476 -0.352,0.9 -0.808,0.912 l 0.004,-0.172 c 0.372,-0.008 0.612,-0.368 0.636,-0.764 0.004,-0.072 0.008,-0.148 0.008,-0.22 0,-0.124 -0.004,-0.244 -0.016,-0.368 -0.116,0.02 -0.232,0.032 -0.356,0.032 z m 0.372,-4.712 c 0,-0.22 -0.016,-0.316 -0.08,-0.516 -0.396,0.192 -0.648,0.596 -0.648,1.036 0,0.296 0.072,0.532 0.144,0.776 0.32,-0.388 0.584,-0.792 0.584,-1.296 z"
     fill="currentColor"
     id="path134"
     style="stroke-width:0.004" />
  <rect
     x="14.1907"
     y="3.7299817"
     width="0.13"
     height="3.3139"
     ry="0.039999999"
     fill="currentColor"
     id="rect136" />
  <a
     style="color:inherit"
     xlink:href="textedit:///Users/philippeperret/Sites/MusicScore/score_building/code/visu-not-trimed.ly:33:12:13"
     id="a140"
     transform="translate(-21.5502,-12.396118)">
    <path
       transform="matrix(0.004,0,0,-0.004,34.5667,19.6261)"
       d="m 218,136 c 55,0 108,-28 108,-89 0,-71 -55,-121 -102,-149 -35,-21 -75,-34 -116,-34 -55,0 -108,28 -108,89 0,71 55,121 102,149 35,21 75,34 116,34 z"
       fill="currentColor"
       id="path138" />
  </a>
</svg>
