<?xml version="1.0" encoding="UTF-8" standalone="no"?>
<svg
   version="1.2"
   width="79.158569mm"
   height="34.794514mm"
   viewBox="0 0 45.045599 19.8"
   id="svg262"
   xmlns:xlink="http://www.w3.org/1999/xlink"
   xmlns="http://www.w3.org/2000/svg"
   xmlns:svg="http://www.w3.org/2000/svg">
  <defs
     id="defs266" />
  <style
     text="style/css"
     id="style2"><![CDATA[
tspan { white-space: pre; }
]]></style>
  <!-- Page: 1/1 -->
  <line
     stroke-linejoin="round"
     stroke-linecap="round"
     stroke-width="0.1"
     stroke="currentColor"
     x1="1.322"
     y1="7.0499997"
     x2="44.995598"
     y2="7.0499997"
     id="line4" />
  <line
     stroke-linejoin="round"
     stroke-linecap="round"
     stroke-width="0.1"
     stroke="currentColor"
     x1="1.322"
     y1="6.0499997"
     x2="44.995598"
     y2="6.0499997"
     id="line6" />
  <line
     stroke-linejoin="round"
     stroke-linecap="round"
     stroke-width="0.1"
     stroke="currentColor"
     x1="1.322"
     y1="5.0499997"
     x2="44.995598"
     y2="5.0499997"
     id="line8" />
  <line
     stroke-linejoin="round"
     stroke-linecap="round"
     stroke-width="0.1"
     stroke="currentColor"
     x1="1.322"
     y1="4.0499997"
     x2="44.995598"
     y2="4.0499997"
     id="line10" />
  <line
     stroke-linejoin="round"
     stroke-linecap="round"
     stroke-width="0.1"
     stroke="currentColor"
     x1="1.322"
     y1="3.05"
     x2="44.995598"
     y2="3.05"
     id="line12" />
  <rect
     x="44.855598"
     y="7.1000996"
     width="0.19"
     height="6.9499998"
     ry="0.0000"
     fill="currentColor"
     id="rect14" />
  <rect
     x="44.855598"
     y="14"
     width="0.19"
     height="4.0500002"
     ry="0.0000"
     fill="currentColor"
     id="rect16" />
  <rect
     x="44.855598"
     y="3.05"
     width="0.19"
     height="4.0500002"
     ry="0.0000"
     fill="currentColor"
     id="rect18" />
  <rect
     x="38.464001"
     y="12.95"
     width="1.9563"
     height="0.2"
     ry="0.1"
     fill="currentColor"
     id="rect20" />
  <rect
     x="35.598099"
     y="12.95"
     width="1.8199"
     height="0.2"
     ry="0.1"
     fill="currentColor"
     id="rect22" />
  <rect
     x="28.199099"
     y="12.95"
     width="1.9563"
     height="0.2"
     ry="0.1"
     fill="currentColor"
     id="rect24" />
  <rect
     x="19.150799"
     y="11.95"
     width="1.9563"
     height="0.2"
     ry="0.1"
     fill="currentColor"
     id="rect26" />
  <rect
     x="19.150799"
     y="12.95"
     width="1.9563"
     height="0.2"
     ry="0.1"
     fill="currentColor"
     id="rect28" />
  <rect
     x="9.9982004"
     y="12.95"
     width="1.9563"
     height="0.2"
     ry="0.1"
     fill="currentColor"
     id="rect30" />
  <line
     stroke-linejoin="round"
     stroke-linecap="round"
     stroke-width="0.1"
     stroke="currentColor"
     x1="1.322"
     y1="18.049999"
     x2="44.995598"
     y2="18.049999"
     id="line32" />
  <line
     stroke-linejoin="round"
     stroke-linecap="round"
     stroke-width="0.1"
     stroke="currentColor"
     x1="1.322"
     y1="17.049999"
     x2="44.995598"
     y2="17.049999"
     id="line34" />
  <line
     stroke-linejoin="round"
     stroke-linecap="round"
     stroke-width="0.1"
     stroke="currentColor"
     x1="1.322"
     y1="16.049999"
     x2="44.995598"
     y2="16.049999"
     id="line36" />
  <line
     stroke-linejoin="round"
     stroke-linecap="round"
     stroke-width="0.1"
     stroke="currentColor"
     x1="1.322"
     y1="15.05"
     x2="44.995598"
     y2="15.05"
     id="line38" />
  <line
     stroke-linejoin="round"
     stroke-linecap="round"
     stroke-width="0.1"
     stroke="currentColor"
     x1="1.322"
     y1="14.05"
     x2="44.995598"
     y2="14.05"
     id="line40" />
  <a
     style="color:inherit"
     xlink:href="textedit:///Users/philippeperret/Sites/MusicScoreWriter/score_building/code/visu-not-trimed.ly:45:324:325"
     id="a44"
     transform="translate(-4.4186,-3.8452002)">
    <path
       transform="matrix(0.004,0,0,-0.004,29.6915,19.8952)"
       d="m 218,136 c 55,0 108,-28 108,-89 0,-71 -55,-121 -102,-149 -35,-21 -75,-34 -116,-34 -55,0 -108,28 -108,89 0,71 55,121 102,149 35,21 75,34 116,34 z"
       fill="currentColor"
       id="path42" />
  </a>
  <path
     d="m 25.4029,19.385 h -0.064 v -1 h 0.064 z m 0,0 v -1 c 0.388,-0.236 0.896,-0.592 0.896,-1.036 0,-0.228 -0.06,-0.448 -0.16,-0.652 -0.012,-0.064 0.04,-0.108 0.092,-0.108 0.028,0 0.06,0.012 0.08,0.044 0.1,0.224 0.16,0.468 0.16,0.716 0,0.812 -1.068,1.224 -1.068,2.036 z"
     fill="currentColor"
     id="path46"
     style="stroke-width:0.004" />
  <a
     style="color:inherit"
     xlink:href="textedit:///Users/philippeperret/Sites/MusicScoreWriter/score_building/code/visu-not-trimed.ly:45:158:159"
     id="a50"
     transform="translate(-4.4186,-3.8452002)">
    <path
       transform="matrix(0.004,0,0,-0.004,26.7934,9.8952)"
       d="m 218,136 c 55,0 108,-28 108,-89 0,-71 -55,-121 -102,-149 -35,-21 -75,-34 -116,-34 -55,0 -108,28 -108,89 0,71 55,121 102,149 35,21 75,34 116,34 z"
       fill="currentColor"
       id="path48" />
  </a>
  <rect
     x="22.3748"
     y="6.2360997"
     width="0.13"
     height="2.8266001"
     ry="0.039999999"
     fill="currentColor"
     id="rect52" />
  <a
     style="color:inherit"
     xlink:href="textedit:///Users/philippeperret/Sites/MusicScoreWriter/score_building/code/visu-not-trimed.ly:35:23:24"
     id="a56"
     transform="translate(-4.4186,-3.8452002)">
    <path
       transform="matrix(0.004,0,0,-0.004,29.6915,6.8952)"
       d="m 218,136 c 55,0 108,-28 108,-89 0,-71 -55,-121 -102,-149 -35,-21 -75,-34 -116,-34 -55,0 -108,28 -108,89 0,71 55,121 102,149 35,21 75,34 116,34 z"
       fill="currentColor"
       id="path54" />
  </a>
  <a
     style="color:inherit"
     xlink:href="textedit:///Users/philippeperret/Sites/MusicScoreWriter/score_building/code/visu-not-trimed.ly:45:208:209"
     id="a60"
     transform="translate(-4.4186,-3.8452002)">
    <path
       transform="matrix(0.004,0,0,-0.004,29.6915,17.8952)"
       d="m 218,136 c 55,0 108,-28 108,-89 0,-71 -55,-121 -102,-149 -35,-21 -75,-34 -116,-34 -55,0 -108,28 -108,89 0,71 55,121 102,149 35,21 75,34 116,34 z"
       fill="currentColor"
       id="path58" />
  </a>
  <path
     d="m 27.0271,2.5499998 c 0,-0.124 0.1,-0.224 0.224,-0.224 0.124,0 0.224,0.1 0.224,0.224 0,0.124 -0.1,0.224 -0.224,0.224 -0.124,0 -0.224,-0.1 -0.224,-0.224 z"
     fill="currentColor"
     id="path62"
     style="stroke-width:0.004" />
  <rect
     x="26.4471"
     y="0.24249996"
     width="0.13"
     height="2.6214001"
     ry="0.039999999"
     fill="currentColor"
     id="rect64" />
  <path
     d="m 24.6869,4.2979998 c 0,0.04 -0.032,0.076 -0.072,0.076 -0.04,0 -0.076,-0.036 -0.076,-0.076 v -0.58 l -0.332,0.124 v 0.632 c 0,0.04 -0.036,0.076 -0.076,0.076 -0.04,0 -0.072,-0.036 -0.072,-0.076 v -0.58 l -0.128,0.048 c -0.008,0.004 -0.02,0.004 -0.028,0.004 -0.044,0 -0.08,-0.036 -0.08,-0.08 v -0.24 c 0,-0.032 0.02,-0.064 0.052,-0.076 l 0.184,-0.064 v -0.64 l -0.128,0.044 c -0.008,0.004 -0.02,0.004 -0.028,0.004 -0.044,0 -0.08,-0.036 -0.08,-0.08 v -0.24 c 0,-0.032 0.02,-0.06 0.052,-0.072 l 0.184,-0.068 v -0.632 c 0,-0.04 0.032,-0.076 0.072,-0.076 0.04,0 0.076,0.036 0.076,0.076 v 0.58 l 0.332,-0.124 v -0.632 c 0,-0.04 0.036,-0.076 0.076,-0.076 0.04,0 0.072,0.036 0.072,0.076 v 0.58 l 0.128,-0.048 c 0.008,-0.004 0.02,-0.004 0.028,-0.004 0.044,0 0.08,0.036 0.08,0.08 v 0.24 c 0,0.032 -0.02,0.064 -0.052,0.076 l -0.184,0.064 v 0.64 l 0.128,-0.044 c 0.008,-0.004 0.02,-0.004 0.028,-0.004 0.044,0 0.08,0.036 0.08,0.08 v 0.24 c 0,0.032 -0.02,0.06 -0.052,0.072 l -0.184,0.068 z m -0.48,-1.508 v 0.64 l 0.332,-0.12 v -0.64 z"
     fill="currentColor"
     id="path66"
     style="stroke-width:0.004" />
  <rect
     x="25.2729"
     y="16.236099"
     width="0.13"
     height="3.1889"
     ry="0.039999999"
     fill="currentColor"
     id="rect68" />
  <a
     style="color:inherit"
     xlink:href="textedit:///Users/philippeperret/Sites/MusicScoreWriter/score_building/code/visu-not-trimed.ly:35:18:19"
     id="a72"
     transform="translate(-4.4186,-3.8452002)">
    <path
       transform="matrix(0.004,0,0,-0.004,20.6431,6.3952)"
       d="m 218,136 c 55,0 108,-28 108,-89 0,-71 -55,-121 -102,-149 -35,-21 -75,-34 -116,-34 -55,0 -108,28 -108,89 0,71 55,121 102,149 35,21 75,34 116,34 z"
       fill="currentColor"
       id="path70" />
  </a>
  <a
     style="color:inherit"
     xlink:href="textedit:///Users/philippeperret/Sites/MusicScoreWriter/score_building/code/visu-not-trimed.ly:45:12:13"
     id="a74"
     transform="translate(-4.4186,-3.8452002)" />
  <a
     style="color:inherit"
     xlink:href="textedit:///Users/philippeperret/Sites/MusicScoreWriter/score_building/code/visu-not-trimed.ly:45:175:176"
     id="a78"
     transform="translate(-4.4186,-3.8452002)">
    <path
       transform="matrix(0.004,0,0,-0.004,20.6431,20.3952)"
       d="m 218,136 c 55,0 108,-28 108,-89 0,-71 -55,-121 -102,-149 -35,-21 -75,-34 -116,-34 -55,0 -108,28 -108,89 0,71 55,121 102,149 35,21 75,34 116,34 z"
       fill="currentColor"
       id="path76" />
  </a>
  <a
     style="color:inherit"
     xlink:href="textedit:///Users/philippeperret/Sites/MusicScoreWriter/score_building/code/visu-not-trimed.ly:45:116:117"
     id="a82"
     transform="translate(-4.4186,-3.8452002)">
    <path
       transform="matrix(0.004,0,0,-0.004,20.6431,17.3952)"
       d="m 218,136 c 55,0 108,-28 108,-89 0,-71 -55,-121 -102,-149 -35,-21 -75,-34 -116,-34 -55,0 -108,28 -108,89 0,71 55,121 102,149 35,21 75,34 116,34 z"
       fill="currentColor"
       id="path80" />
  </a>
  <rect
     x="17.398701"
     y="0.049999844"
     width="0.13"
     height="2.3139"
     ry="0.039999999"
     fill="currentColor"
     id="rect84" />
  <rect
     x="16.224501"
     y="16.736099"
     width="0.13"
     height="3.0639"
     ry="0.039999999"
     fill="currentColor"
     id="rect86" />
  <path
     d="m 16.3545,19.76 h -0.064 v -1 h 0.064 z m 0,0 v -1 c 0.388,-0.236 0.896,-0.592 0.896,-1.036 0,-0.228 -0.06,-0.448 -0.16,-0.652 -0.012,-0.064 0.04,-0.108 0.092,-0.108 0.028,0 0.06,0.012 0.08,0.044 0.1,0.224 0.16,0.468 0.16,0.716 0,0.812 -1.068,1.224 -1.068,2.036 z"
     fill="currentColor"
     id="path88"
     style="stroke-width:0.004" />
  <rect
     x="17.398701"
     y="10.0373"
     width="0.13"
     height="3.3266001"
     ry="0.039999999"
     fill="currentColor"
     id="rect90" />
  <path
     d="m 15.6385,17.798 c 0,0.04 -0.032,0.076 -0.072,0.076 -0.04,0 -0.076,-0.036 -0.076,-0.076 v -0.58 l -0.332,0.124 v 0.632 c 0,0.04 -0.036,0.076 -0.076,0.076 -0.04,0 -0.072,-0.036 -0.072,-0.076 v -0.58 l -0.128,0.048 c -0.008,0.004 -0.02,0.004 -0.028,0.004 -0.044,0 -0.08,-0.036 -0.08,-0.08 v -0.24 c 0,-0.032 0.02,-0.064 0.052,-0.076 l 0.184,-0.064 v -0.64 l -0.128,0.044 c -0.008,0.004 -0.02,0.004 -0.028,0.004 -0.044,0 -0.08,-0.036 -0.08,-0.08 v -0.24 c 0,-0.032 0.02,-0.06 0.052,-0.072 l 0.184,-0.068 v -0.632 c 0,-0.04 0.032,-0.076 0.072,-0.076 0.04,0 0.076,0.036 0.076,0.076 v 0.58 l 0.332,-0.124 v -0.632 c 0,-0.04 0.036,-0.076 0.076,-0.076 0.04,0 0.072,0.036 0.072,0.076 v 0.58 l 0.128,-0.048 c 0.008,-0.004 0.02,-0.004 0.028,-0.004 0.044,0 0.08,0.036 0.08,0.08 v 0.24 c 0,0.032 -0.02,0.064 -0.052,0.076 l -0.184,0.064 v 0.64 l 0.128,-0.044 c 0.008,-0.004 0.02,-0.004 0.028,-0.004 0.044,0 0.08,0.036 0.08,0.08 v 0.24 c 0,0.032 -0.02,0.06 -0.052,0.072 l -0.184,0.068 z m -0.48,-1.508 v 0.64 l 0.332,-0.12 v -0.64 z"
     fill="currentColor"
     id="path92"
     style="stroke-width:0.004" />
  <a
     style="color:inherit"
     xlink:href="textedit:///Users/philippeperret/Sites/MusicScoreWriter/score_building/code/visu-not-trimed.ly:45:122:123"
     id="a96"
     transform="translate(-4.4186,-3.8452002)">
    <path
       transform="matrix(0.004,0,0,-0.004,23.8954,15.8952)"
       d="m 218,136 c 55,0 108,-28 108,-89 0,-71 -55,-121 -102,-149 -35,-21 -75,-34 -116,-34 -55,0 -108,28 -108,89 0,71 55,121 102,149 35,21 75,34 116,34 z"
       fill="currentColor"
       id="path94" />
  </a>
  <rect
     x="20.650999"
     y="9.4003"
     width="0.13"
     height="2.4635999"
     ry="0.039999999"
     fill="currentColor"
     id="rect98" />
  <a
     style="color:inherit"
     xlink:href="textedit:///Users/philippeperret/Sites/MusicScoreWriter/score_building/code/visu-not-trimed.ly:45:180:181"
     id="a102"
     transform="translate(-4.4186,-3.8452002)">
    <path
       transform="matrix(0.004,0,0,-0.004,25.3444,21.8952)"
       d="M 72,-250 189,76 C 155,64 120,54 84,54 38,54 -3,87 -3,133 c 0,40 33,72 73,72 25,0 48,-15 56,-39 10,-28 6,-59 35,-59 16,0 54,48 61,63 6,12 23,12 28,0 L 127,-250 c -8,-7 -17,-10 -27,-10 -10,0 -20,3 -28,10 z"
       fill="currentColor"
       id="path100" />
  </a>
  <rect
     x="34.457802"
     y="0.54749978"
     width="0.13"
     height="2.8164001"
     ry="0.039999999"
     fill="currentColor"
     id="rect104" />
  <a
     style="color:inherit"
     xlink:href="textedit:///Users/philippeperret/Sites/MusicScoreWriter/score_building/code/visu-not-trimed.ly:35:33:34"
     id="a108"
     transform="translate(-4.4186,-3.8452002)">
    <path
       transform="matrix(0.004,0,0,-0.004,40.2064,7.8952)"
       d="m 218,136 c 55,0 108,-28 108,-89 0,-71 -55,-121 -102,-149 -35,-21 -75,-34 -116,-34 -55,0 -108,28 -108,89 0,71 55,121 102,149 35,21 75,34 116,34 z"
       fill="currentColor"
       id="path106" />
  </a>
  <a
     style="color:inherit"
     xlink:href="textedit:///Users/philippeperret/Sites/MusicScoreWriter/score_building/code/visu-not-trimed.ly:45:330:331"
     id="a112"
     transform="translate(-4.4186,-3.8452002)">
    <path
       transform="matrix(0.004,0,0,-0.004,40.2064,18.8952)"
       d="m 218,136 c 55,0 108,-28 108,-89 0,-71 -55,-121 -102,-149 -35,-21 -75,-34 -116,-34 -55,0 -108,28 -108,89 0,71 55,121 102,149 35,21 75,34 116,34 z"
       fill="currentColor"
       id="path110" />
  </a>
  <a
     style="color:inherit"
     xlink:href="textedit:///Users/philippeperret/Sites/MusicScoreWriter/score_building/code/visu-not-trimed.ly:45:282:283"
     id="a116"
     transform="translate(-4.4186,-3.8452002)">
    <path
       transform="matrix(0.004,0,0,-0.004,40.2064,16.8952)"
       d="m 218,136 c 55,0 108,-28 108,-89 0,-71 -55,-121 -102,-149 -35,-21 -75,-34 -116,-34 -55,0 -108,28 -108,89 0,71 55,121 102,149 35,21 75,34 116,34 z"
       fill="currentColor"
       id="path114" />
  </a>
  <rect
     x="36.962002"
     y="1.0499998"
     width="0.13"
     height="2.8139"
     ry="0.039999999"
     fill="currentColor"
     id="rect118" />
  <rect
     x="35.7878"
     y="15.2361"
     width="0.13"
     height="3.3139"
     ry="0.039999999"
     fill="currentColor"
     id="rect120" />
  <a
     style="color:inherit"
     xlink:href="textedit:///Users/philippeperret/Sites/MusicScoreWriter/score_building/code/visu-not-trimed.ly:35:29:30"
     id="a124"
     transform="translate(-4.4186,-3.8452002)">
    <path
       transform="matrix(0.004,0,0,-0.004,37.7021,7.3952)"
       d="m 218,136 c 55,0 108,-28 108,-89 0,-71 -55,-121 -102,-149 -35,-21 -75,-34 -116,-34 -55,0 -108,28 -108,89 0,71 55,121 102,149 35,21 75,34 116,34 z"
       fill="currentColor"
       id="path122" />
  </a>
  <path
     d="m 35.9178,18.51 h -0.064 v -1 h 0.064 z m 0,0 v -1 c 0.388,-0.236 0.896,-0.592 0.896,-1.036 0,-0.228 -0.06,-0.448 -0.16,-0.652 -0.012,-0.064 0.04,-0.108 0.092,-0.108 0.028,0 0.06,0.012 0.08,0.044 0.1,0.224 0.16,0.468 0.16,0.716 0,0.812 -1.068,1.224 -1.068,2.036 z"
     fill="currentColor"
     id="path126"
     style="stroke-width:0.004" />
  <polygon
     transform="translate(36.962,6.2399998)"
     stroke-linejoin="round"
     stroke-linecap="round"
     stroke-width="0.08"
     fill="currentColor"
     stroke="currentColor"
     points="0.04,0.2 0.04,-0.2 5.9903,-3.2 5.9903,-2.8 "
     id="polygon128" />
  <polygon
     transform="translate(26.4471,6.2399998)"
     stroke-linejoin="round"
     stroke-linecap="round"
     stroke-width="0.08"
     fill="currentColor"
     stroke="currentColor"
     points="0.04,0.2 0.04,-0.2 6.4965,-3.39 6.4965,-2.99 "
     id="polygon130" />
  <polygon
     transform="translate(26.4471,0.23999984)"
     stroke-linejoin="round"
     stroke-linecap="round"
     stroke-width="0.08"
     fill="currentColor"
     stroke="currentColor"
     points="0.04,0.2 0.04,-0.2 8.1007,0.11 8.1007,0.51 "
     id="polygon132" />
  <polygon
     transform="translate(33.4228,1.3156998)"
     stroke-linejoin="round"
     stroke-linecap="round"
     stroke-width="0.08"
     fill="currentColor"
     stroke="currentColor"
     points="0.04,0.2 0.04,-0.2 1.125,-0.1556 1.125,0.2444 "
     id="polygon134" />
  <a
     style="color:inherit"
     xlink:href="textedit:///Users/philippeperret/Sites/MusicScoreWriter/score_building/code/visu-not-trimed.ly:45:268:269"
     id="a140"
     transform="translate(-4.4186,-3.8452002)">
    <text
       transform="translate(43.9519,7.794)"
       font-family="serif"
       font-style="italic"
       font-size="1.7461px"
       text-anchor="start"
       fill="currentColor"
       id="text138"><tspan
         id="tspan136">3</tspan></text>
  </a>
  <a
     style="color:inherit"
     xlink:href="textedit:///Users/philippeperret/Sites/MusicScoreWriter/score_building/code/visu-not-trimed.ly:45:268:269"
     id="a142"
     transform="translate(-4.4186,-3.8452002)" />
  <polygon
     transform="translate(17.3987,10.05)"
     stroke-linejoin="round"
     stroke-linecap="round"
     stroke-width="0.08"
     fill="currentColor"
     stroke="currentColor"
     points="0.04,0.2 0.04,-0.2 5.0661,-1.2 5.0661,-0.8 "
     id="polygon144" />
  <a
     style="color:inherit"
     xlink:href="textedit:///Users/philippeperret/Sites/MusicScoreWriter/score_building/code/visu-not-trimed.ly:45:194:195"
     id="a150"
     transform="translate(-4.4186,-3.8452002)">
    <text
       transform="translate(33.69,7.6996)"
       font-family="serif"
       font-style="italic"
       font-size="1.7461px"
       text-anchor="start"
       fill="currentColor"
       id="text148"><tspan
         id="tspan146">3</tspan></text>
  </a>
  <a
     style="color:inherit"
     xlink:href="textedit:///Users/philippeperret/Sites/MusicScoreWriter/score_building/code/visu-not-trimed.ly:45:194:195"
     id="a152"
     transform="translate(-4.4186,-3.8452002)" />
  <polygon
     transform="translate(8.2462,10.05)"
     stroke-linejoin="round"
     stroke-linecap="round"
     stroke-width="0.08"
     fill="currentColor"
     stroke="currentColor"
     points="0.04,0.2 0.04,-0.2 5.0661,-1.01 5.0661,-0.61 "
     id="polygon154" />
  <a
     style="color:inherit"
     xlink:href="textedit:///Users/philippeperret/Sites/MusicScoreWriter/score_building/code/visu-not-trimed.ly:45:102:103"
     id="a160"
     transform="translate(-4.4186,-3.8452002)">
    <text
       transform="translate(23.9265,12.6211)"
       font-family="serif"
       font-style="italic"
       font-size="1.7461px"
       text-anchor="start"
       fill="currentColor"
       id="text158"><tspan
         id="tspan156">3</tspan></text>
  </a>
  <a
     style="color:inherit"
     xlink:href="textedit:///Users/philippeperret/Sites/MusicScoreWriter/score_building/code/visu-not-trimed.ly:45:102:103"
     id="a162"
     transform="translate(-4.4186,-3.8452002)" />
  <a
     style="color:inherit"
     xlink:href="textedit:///Users/philippeperret/Sites/MusicScoreWriter/score_building/code/visu-not-trimed.ly:45:12:13"
     id="a168"
     transform="translate(-4.4186,-3.8452002)">
    <text
       transform="translate(14.7739,12.7161)"
       font-family="serif"
       font-style="italic"
       font-size="1.7461px"
       text-anchor="start"
       fill="currentColor"
       id="text166"><tspan
         id="tspan164">3</tspan></text>
  </a>
  <a
     style="color:inherit"
     xlink:href="textedit:///Users/philippeperret/Sites/MusicScoreWriter/score_building/code/visu-not-trimed.ly:45:328:329"
     id="a172"
     transform="translate(-4.4186,-3.8452002)">
    <path
       transform="matrix(0.004,0,0,-0.004,34.5208,21.8952)"
       d="M 72,-250 189,76 C 155,64 120,54 84,54 38,54 -3,87 -3,133 c 0,40 33,72 73,72 25,0 48,-15 56,-39 10,-28 6,-59 35,-59 16,0 54,48 61,63 6,12 23,12 28,0 L 127,-250 c -8,-7 -17,-10 -27,-10 -10,0 -20,3 -28,10 z"
       fill="currentColor"
       id="path170" />
  </a>
  <rect
     x="26.4471"
     y="6.2083001"
     width="0.13"
     height="7.6556001"
     ry="0.039999999"
     fill="currentColor"
     id="rect174" />
  <a
     style="color:inherit"
     xlink:href="textedit:///Users/philippeperret/Sites/MusicScoreWriter/score_building/code/visu-not-trimed.ly:45:212:213"
     id="a178"
     transform="translate(-4.4186,-3.8452002)">
    <path
       transform="matrix(0.004,0,0,-0.004,32.9437,16.3952)"
       d="m 218,136 c 55,0 108,-28 108,-89 0,-71 -55,-121 -102,-149 -35,-21 -75,-34 -116,-34 -55,0 -108,28 -108,89 0,71 55,121 102,149 35,21 75,34 116,34 z"
       fill="currentColor"
       id="path176" />
  </a>
  <rect
     x="29.699301"
     y="4.6210999"
     width="0.13"
     height="7.7428002"
     ry="0.039999999"
     fill="currentColor"
     id="rect180" />
  <a
     style="color:inherit"
     xlink:href="textedit:///Users/philippeperret/Sites/MusicScoreWriter/score_building/code/visu-not-trimed.ly:45:238:239"
     id="a184"
     transform="translate(-4.4186,-3.8452002)">
    <path
       transform="matrix(0.004,0,0,-0.004,36.0979,10.3952)"
       d="m 218,136 c 55,0 108,-28 108,-89 0,-71 -55,-121 -102,-149 -35,-21 -75,-34 -116,-34 -55,0 -108,28 -108,89 0,71 55,121 102,149 35,21 75,34 116,34 z"
       fill="currentColor"
       id="path182" />
  </a>
  <rect
     x="32.8535"
     y="3.0816998"
     width="0.13"
     height="3.2822001"
     ry="0.039999999"
     fill="currentColor"
     id="rect186" />
  <path
     d="m 31.0933,7.7979998 c 0,0.04 -0.032,0.076 -0.072,0.076 -0.04,0 -0.076,-0.036 -0.076,-0.076 v -0.58 l -0.332,0.124 v 0.632 c 0,0.04 -0.036,0.076 -0.076,0.076 -0.04,0 -0.072,-0.036 -0.072,-0.076 v -0.58 l -0.128,0.048 c -0.008,0.004 -0.02,0.004 -0.028,0.004 -0.044,0 -0.08,-0.036 -0.08,-0.08 v -0.24 c 0,-0.032 0.02,-0.064 0.052,-0.076 l 0.184,-0.064 v -0.64 l -0.128,0.044 c -0.008,0.004 -0.02,0.004 -0.028,0.004 -0.044,0 -0.08,-0.036 -0.08,-0.08 v -0.24 c 0,-0.032 0.02,-0.06 0.052,-0.072 l 0.184,-0.068 v -0.632 c 0,-0.04 0.032,-0.076 0.072,-0.076 0.04,0 0.076,0.036 0.076,0.076 v 0.58 l 0.332,-0.124 v -0.632 c 0,-0.04 0.036,-0.076 0.076,-0.076 0.04,0 0.072,0.036 0.072,0.076 v 0.58 l 0.128,-0.048 c 0.008,-0.004 0.02,-0.004 0.028,-0.004 0.044,0 0.08,0.036 0.08,0.08 v 0.24 c 0,0.032 -0.02,0.064 -0.052,0.076 l -0.184,0.064 v 0.64 l 0.128,-0.044 c 0.008,-0.004 0.02,-0.004 0.028,-0.004 0.044,0 0.08,0.036 0.08,0.08 v 0.24 c 0,0.032 -0.02,0.06 -0.052,0.072 l -0.184,0.068 z m -0.48,-1.508 v 0.64 l 0.332,-0.12 v -0.64 z"
     fill="currentColor"
     id="path188"
     style="stroke-width:0.004" />
  <rect
     x="7.072"
     y="14.7361"
     width="0.13"
     height="3.3139"
     ry="0.039999999"
     fill="currentColor"
     id="rect190" />
  <path
     d="M 7.202,18.01 H 7.138 v -1 h 0.064 z m 0,0 v -1 c 0.388,-0.236 0.896,-0.592 0.896,-1.036 0,-0.228 -0.06,-0.448 -0.16,-0.652 -0.012,-0.064 0.04,-0.108 0.092,-0.108 0.028,0 0.06,0.012 0.08,0.044 0.1,0.224 0.16,0.468 0.16,0.716 0,0.812 -1.068,1.224 -1.068,2.036 z"
     fill="currentColor"
     id="path192"
     style="stroke-width:0.004" />
  <rect
     x="36.962002"
     y="6.2076993"
     width="0.13"
     height="6.6561999"
     ry="0.039999999"
     fill="currentColor"
     id="rect194" />
  <path
     d="m 34.5354,16.298 c 0,0.04 -0.032,0.076 -0.072,0.076 -0.04,0 -0.076,-0.036 -0.076,-0.076 v -0.58 l -0.332,0.124 v 0.632 c 0,0.04 -0.036,0.076 -0.076,0.076 -0.04,0 -0.072,-0.036 -0.072,-0.076 v -0.58 l -0.128,0.048 c -0.008,0.004 -0.02,0.004 -0.028,0.004 -0.044,0 -0.08,-0.036 -0.08,-0.08 v -0.24 c 0,-0.032 0.02,-0.064 0.052,-0.076 l 0.184,-0.064 v -0.64 l -0.128,0.044 c -0.008,0.004 -0.02,0.004 -0.028,0.004 -0.044,0 -0.08,-0.036 -0.08,-0.08 v -0.24 c 0,-0.032 0.02,-0.06 0.052,-0.072 l 0.184,-0.068 v -0.632 c 0,-0.04 0.032,-0.076 0.072,-0.076 0.04,0 0.076,0.036 0.076,0.076 v 0.58 l 0.332,-0.124 v -0.632 c 0,-0.04 0.036,-0.076 0.076,-0.076 0.04,0 0.072,0.036 0.072,0.076 v 0.58 l 0.128,-0.048 c 0.008,-0.004 0.02,-0.004 0.028,-0.004 0.044,0 0.08,0.036 0.08,0.08 v 0.24 c 0,0.032 -0.02,0.064 -0.052,0.076 l -0.184,0.064 v 0.64 l 0.128,-0.044 c 0.008,-0.004 0.02,-0.004 0.028,-0.004 0.044,0 0.08,0.036 0.08,0.08 v 0.24 c 0,0.032 -0.02,0.06 -0.052,0.072 l -0.184,0.068 z m -0.48,-1.508 v 0.64 l 0.332,-0.12 v -0.64 z"
     fill="currentColor"
     id="path196"
     style="stroke-width:0.004" />
  <path
     d="m 34.7098,11.55 c 0.032,-0.016 0.068,-0.028 0.104,-0.028 0.036,0 0.064,0.012 0.096,0.028 l -0.008,0.732 0.424,-0.08 h 0.012 c 0.04,0 0.072,0.028 0.072,0.068 l 0.028,2.28 c -0.032,0.016 -0.064,0.028 -0.1,0.028 -0.036,0 -0.068,-0.012 -0.1,-0.028 l 0.012,-0.732 -0.424,0.08 h -0.012 c -0.04,0 -0.072,-0.028 -0.072,-0.068 z m 0.556,1.052 -0.368,0.068 -0.012,0.828 0.368,-0.068 z"
     fill="currentColor"
     id="path198"
     style="stroke-width:0.004" />
  <rect
     x="39.964199"
     y="4.7140994"
     width="0.13"
     height="7.6497998"
     ry="0.039999999"
     fill="currentColor"
     id="rect200" />
  <a
     style="color:inherit"
     xlink:href="textedit:///Users/philippeperret/Sites/MusicScoreWriter/score_building/code/visu-not-trimed.ly:45:26:27"
     id="a204"
     transform="translate(-4.4186,-3.8452002)">
    <path
       transform="matrix(0.004,0,0,-0.004,11.4906,17.3952)"
       d="m 218,136 c 55,0 108,-28 108,-89 0,-71 -55,-121 -102,-149 -35,-21 -75,-34 -116,-34 -55,0 -108,28 -108,89 0,71 55,121 102,149 35,21 75,34 116,34 z"
       fill="currentColor"
       id="path202" />
  </a>
  <path
     d="m 0.848,12.822 c 0,1.216 -0.464,2.384 -0.464,3.536 0,0.624 0.144,1.184 0.576,1.648 0.064,0.064 -0.032,0.16 -0.096,0.096 C 0.288,17.478 0.08,16.678 0.08,15.83 0.08,14.598 0.576,13.398 0.576,12.23 0.576,11.622 0.432,11.046 0,10.582 V 10.55 10.518 c 0.432,-0.464 0.576,-1.0400002 0.576,-1.6480002 0,-1.168 -0.496,-2.368 -0.496,-3.6 0,-0.848 0.208,-1.648 0.784,-2.272 0.064,-0.064 0.16,0.032 0.096,0.096 -0.432,0.464 -0.576,1.024 -0.576,1.648 0,1.152 0.464,2.32 0.464,3.536 0,0.848 -0.192,1.648 -0.752,2.2720002 0.56,0.624 0.752,1.424 0.752,2.272 z"
     fill="currentColor"
     id="path206"
     style="stroke-width:0.004" />
  <rect
     x="1.212"
     y="2.9999998"
     width="0.16"
     height="15.1"
     ry="0.050000001"
     fill="currentColor"
     id="rect208" />
  <path
     d="m 15.1825,13.386 -0.004,0.264 v 0.044 c 0,0.088 0.004,0.176 0.016,0.264 0.18,-0.152 0.372,-0.32 0.372,-0.556 0,-0.132 -0.056,-0.268 -0.172,-0.268 -0.124,0 -0.208,0.12 -0.212,0.252 z m -0.168,0.716 -0.048,-2.38 c 0.032,-0.02 0.072,-0.032 0.108,-0.032 0.036,0 0.076,0.012 0.108,0.032 l -0.028,1.38 c 0.1,-0.084 0.232,-0.136 0.364,-0.136 0.208,0 0.356,0.192 0.356,0.408 0,0.32 -0.344,0.468 -0.588,0.676 -0.06,0.052 -0.096,0.152 -0.18,0.152 -0.052,0 -0.092,-0.044 -0.092,-0.1 z"
     fill="currentColor"
     id="path210"
     style="stroke-width:0.004" />
  <a
     style="color:inherit"
     xlink:href="textedit:///Users/philippeperret/Sites/MusicScoreWriter/score_building/code/visu-not-trimed.ly:35:15:16"
     id="a214"
     transform="translate(-4.4186,-3.8452002)">
    <path
       transform="matrix(0.004,0,0,-0.004,11.4906,8.8952)"
       d="m 218,136 c 55,0 108,-28 108,-89 0,-71 -55,-121 -102,-149 -35,-21 -75,-34 -116,-34 -55,0 -108,28 -108,89 0,71 55,121 102,149 35,21 75,34 116,34 z"
       fill="currentColor"
       id="path212" />
  </a>
  <path
     d="M 3.136,8.5899998 H 3.112 c -0.432,0 -0.78,-0.352 -0.78,-0.788 0,-0.232 0.212,-0.412 0.448,-0.412 0.216,0 0.38,0.188 0.38,0.412 0,0.208 -0.172,0.38 -0.38,0.38 -0.044,0 -0.084,-0.008 -0.124,-0.024 0.104,0.156 0.272,0.26 0.468,0.26 H 3.14 Z m 0.78,-1.728 c 0.272,-0.096 0.452,-0.38 0.452,-0.656 0,-0.36 -0.264,-0.716 -0.692,-0.76 0.096,0.464 0.184,0.924 0.24,1.416 z m -1.548,-0.924 c 0,0.54 0.516,0.988 1.056,0.988 0.112,0 0.22,-0.008 0.328,-0.024 -0.056,-0.508 -0.148,-0.98 -0.252,-1.456 -0.316,0.032 -0.496,0.244 -0.496,0.476 0,0.176 0.1,0.364 0.324,0.492 0.02,0.02 0.028,0.04 0.028,0.06 0,0.044 -0.04,0.088 -0.088,0.088 -0.012,0 -0.024,-0.004 -0.036,-0.008 -0.32,-0.172 -0.468,-0.46 -0.468,-0.74 0,-0.352 0.232,-0.696 0.64,-0.788 -0.056,-0.232 -0.116,-0.468 -0.184,-0.7 -0.428,0.484 -0.852,0.972 -0.852,1.612 z m 1.044,1.16 c -0.752,0 -1.332,-0.688 -1.332,-1.496 0,-0.708 0.524,-1.224 0.992,-1.764 -0.076,-0.248 -0.148,-0.5 -0.18,-0.76 -0.024,-0.208 -0.028,-0.416 -0.028,-0.624 0,-0.46 0.22,-0.896 0.596,-1.168 0.024,-0.02 0.056,-0.02 0.08,0 0.284,0.336 0.532,0.98 0.532,1.432 0,0.572 -0.344,1.02 -0.72,1.456 0.084,0.272 0.156,0.552 0.224,0.828 0.016,0 0.036,-0.004 0.052,-0.004 0.62,0 1.024,0.512 1.024,1.044 0,0.304 -0.132,0.616 -0.428,0.84 -0.088,0.068 -0.188,0.112 -0.292,0.144 0.012,0.14 0.02,0.28 0.02,0.42 0,0.076 -0.004,0.156 -0.008,0.232 -0.028,0.476 -0.352,0.9 -0.808,0.912 l 0.004,-0.172 c 0.372,-0.008 0.612,-0.368 0.636,-0.764 0.004,-0.072 0.008,-0.148 0.008,-0.22 0,-0.124 -0.004,-0.244 -0.016,-0.368 -0.116,0.02 -0.232,0.032 -0.356,0.032 z m 0.372,-4.712 c 0,-0.22 -0.016,-0.316 -0.08,-0.516 -0.396,0.192 -0.648,0.596 -0.648,1.036 0,0.296 0.072,0.532 0.144,0.776 0.32,-0.388 0.584,-0.792 0.584,-1.296 z"
     fill="currentColor"
     id="path216"
     style="stroke-width:0.004" />
  <a
     style="color:inherit"
     xlink:href="textedit:///Users/philippeperret/Sites/MusicScoreWriter/score_building/code/visu-not-trimed.ly:33:6:7"
     id="a218"
     transform="translate(-4.4186,-3.8452002)" />
  <a
     style="color:inherit"
     xlink:href="textedit:///Users/philippeperret/Sites/MusicScoreWriter/score_building/code/visu-not-trimed.ly:45:286:287"
     id="a222"
     transform="translate(-4.4186,-3.8452002)">
    <path
       transform="matrix(0.004,0,0,-0.004,43.2086,16.3952)"
       d="m 218,136 c 55,0 108,-28 108,-89 0,-71 -55,-121 -102,-149 -35,-21 -75,-34 -116,-34 -55,0 -108,28 -108,89 0,71 55,121 102,149 35,21 75,34 116,34 z"
       fill="currentColor"
       id="path220" />
  </a>
  <a
     style="color:inherit"
     xlink:href="textedit:///Users/philippeperret/Sites/MusicScoreWriter/score_building/code/visu-not-trimed.ly:45:169:170"
     id="a226"
     transform="translate(-4.4186,-3.8452002)">
    <path
       transform="matrix(0.004,0,0,-0.004,11.4906,18.3952)"
       d="m 218,136 c 55,0 108,-28 108,-89 0,-71 -55,-121 -102,-149 -35,-21 -75,-34 -116,-34 -55,0 -108,28 -108,89 0,71 55,121 102,149 35,21 75,34 116,34 z"
       fill="currentColor"
       id="path224" />
  </a>
  <path
     d="m 4.3,15.55 c 0,-0.112 0.092,-0.204 0.204,-0.204 0.112,0 0.204,0.092 0.204,0.204 0,0.112 -0.092,0.204 -0.204,0.204 C 4.392,15.754 4.3,15.662 4.3,15.55 Z m 0,-1 c 0,-0.112 0.092,-0.204 0.204,-0.204 0.112,0 0.204,0.092 0.204,0.204 0,0.112 -0.092,0.204 -0.204,0.204 C 4.392,14.754 4.3,14.662 4.3,14.55 Z M 3,13.998 c 0.688,0 1.172,0.352 1.172,1.004 0,1.052 -1.052,1.656 -2.064,2.084 -0.012,0.012 -0.024,0.016 -0.036,0.016 -0.028,0 -0.052,-0.024 -0.052,-0.052 0,-0.012 0.004,-0.024 0.016,-0.036 0.808,-0.472 1.648,-1.06 1.648,-1.972 0,-0.48 -0.252,-0.94 -0.684,-0.94 -0.296,0 -0.516,0.216 -0.616,0.504 0.044,-0.02 0.088,-0.032 0.136,-0.032 0.22,0 0.4,0.18 0.4,0.4 0,0.232 -0.176,0.424 -0.4,0.424 -0.24,0 -0.448,-0.188 -0.448,-0.424 0,-0.532 0.408,-0.976 0.928,-0.976 z"
     fill="currentColor"
     id="path228"
     style="stroke-width:0.004" />
  <a
     style="color:inherit"
     xlink:href="textedit:///Users/philippeperret/Sites/MusicScoreWriter/score_building/code/visu-not-trimed.ly:44:6:7"
     id="a230"
     transform="translate(-4.4186,-3.8452002)" />
  <rect
     x="8.2461996"
     y="1.7166997"
     width="0.13"
     height="3.1472001"
     ry="0.039999999"
     fill="currentColor"
     id="rect232" />
  <rect
     x="8.2461996"
     y="10.0397"
     width="0.13"
     height="3.3241999"
     ry="0.039999999"
     fill="currentColor"
     id="rect234" />
  <a
     style="color:inherit"
     xlink:href="textedit:///Users/philippeperret/Sites/MusicScoreWriter/score_building/code/visu-not-trimed.ly:45:30:31"
     id="a238"
     transform="translate(-4.4186,-3.8452002)">
    <path
       transform="matrix(0.004,0,0,-0.004,14.7428,16.3952)"
       d="m 218,136 c 55,0 108,-28 108,-89 0,-71 -55,-121 -102,-149 -35,-21 -75,-34 -116,-34 -55,0 -108,28 -108,89 0,71 55,121 102,149 35,21 75,34 116,34 z"
       fill="currentColor"
       id="path236" />
  </a>
  <rect
     x="11.4984"
     y="9.5237999"
     width="0.13"
     height="2.8401"
     ry="0.039999999"
     fill="currentColor"
     id="rect240" />
  <a
     style="color:inherit"
     xlink:href="textedit:///Users/philippeperret/Sites/MusicScoreWriter/score_building/code/visu-not-trimed.ly:45:173:174"
     id="a244"
     transform="translate(-4.4186,-3.8452002)">
    <path
       transform="matrix(0.004,0,0,-0.004,16.1918,21.8952)"
       d="M 72,-250 189,76 C 155,64 120,54 84,54 38,54 -3,87 -3,133 c 0,40 33,72 73,72 25,0 48,-15 56,-39 10,-28 6,-59 35,-59 16,0 54,48 61,63 6,12 23,12 28,0 L 127,-250 c -8,-7 -17,-10 -27,-10 -10,0 -20,3 -28,10 z"
       fill="currentColor"
       id="path242" />
  </a>
  <a
     style="color:inherit"
     xlink:href="textedit:///Users/philippeperret/Sites/MusicScoreWriter/score_building/code/visu-not-trimed.ly:45:66:67"
     id="a248"
     transform="translate(-4.4186,-3.8452002)">
    <path
       transform="matrix(0.004,0,0,-0.004,17.6409,9.8952)"
       d="m 218,136 c 55,0 108,-28 108,-89 0,-71 -55,-121 -102,-149 -35,-21 -75,-34 -116,-34 -55,0 -108,28 -108,89 0,71 55,121 102,149 35,21 75,34 116,34 z"
       fill="currentColor"
       id="path246" />
  </a>
  <rect
     x="13.2223"
     y="6.2360997"
     width="0.13"
     height="3.0142"
     ry="0.039999999"
     fill="currentColor"
     id="rect250" />
  <a
     style="color:inherit"
     xlink:href="textedit:///Users/philippeperret/Sites/MusicScoreWriter/score_building/code/visu-not-trimed.ly:45:334:335"
     id="a254"
     transform="translate(-4.4186,-3.8452002)">
    <path
       transform="matrix(0.004,0,0,-0.004,44.6576,21.8952)"
       d="M 72,-250 189,76 C 155,64 120,54 84,54 38,54 -3,87 -3,133 c 0,40 33,72 73,72 25,0 48,-15 56,-39 10,-28 6,-59 35,-59 16,0 54,48 61,63 6,12 23,12 28,0 L 127,-250 c -8,-7 -17,-10 -27,-10 -10,0 -20,3 -28,10 z"
       fill="currentColor"
       id="path252" />
  </a>
  <a
     style="color:inherit"
     xlink:href="textedit:///Users/philippeperret/Sites/MusicScoreWriter/score_building/code/visu-not-trimed.ly:45:312:313"
     id="a258"
     transform="translate(-4.4186,-3.8452002)">
    <path
       transform="matrix(0.004,0,0,-0.004,46.1067,9.3952)"
       d="m 218,136 c 55,0 108,-28 108,-89 0,-71 -55,-121 -102,-149 -35,-21 -75,-34 -116,-34 -55,0 -108,28 -108,89 0,71 55,121 102,149 35,21 75,34 116,34 z"
       fill="currentColor"
       id="path256" />
  </a>
  <rect
     x="42.862301"
     y="3.2723"
     width="0.13"
     height="2.0915999"
     ry="0.039999999"
     fill="currentColor"
     id="rect260" />
</svg>
